SplineFontDB: 3.2
FontName: titi-pula-lili
FullName: titi pula lili
FamilyName: titi pula lili
Weight: Regular
Copyright: MIT License\n\nCopyright (c) 2024 Elliott Crampton (jan Elijo / ka Ililu)\n\nPermission is hereby granted, free of charge, to any person obtaining a copy of this software and associated documentation files (the "Software"), to deal in the Software without restriction, including without limitation the rights to use, copy, modify, merge, publish, distribute, sublicense, and/or sell copies of the Software, and to permit persons to whom the Software is furnished to do so, subject to the following conditions:\n\nThe above copyright notice and this permission notice shall be included in all copies or substantial portions of the Software.\n\nTHE SOFTWARE IS PROVIDED "AS IS", WITHOUT WARRANTY OF ANY KIND, EXPRESS OR IMPLIED, INCLUDING BUT NOT LIMITED TO THE WARRANTIES OF MERCHANTABILITY, FITNESS FOR A PARTICULAR PURPOSE AND NONINFRINGEMENT. IN NO EVENT SHALL THE AUTHORS OR COPYRIGHT HOLDERS BE LIABLE FOR ANY CLAIM, DAMAGES OR OTHER LIABILITY, WHETHER IN AN ACTION OF CONTRACT, TORT OR OTHERWISE, ARISING FROM, OUT OF OR IN CONNECTION WITH THE SOFTWARE OR THE USE OR OTHER DEALINGS IN THE SOFTWARE.
UComments: "2024-8-29: Created with FontForge (http://fontforge.org)"
Version: 001.000
ItalicAngle: 0
UnderlinePosition: -102
UnderlineWidth: 51
Ascent: 819
Descent: 205
InvalidEm: 0
LayerCount: 2
Layer: 0 0 "Back" 1
Layer: 1 0 "Fore" 0
XUID: [1021 942 -833848187 11751]
StyleMap: 0x0000
FSType: 0
OS2Version: 0
OS2_WeightWidthSlopeOnly: 0
OS2_UseTypoMetrics: 1
CreationTime: 1724960464
ModificationTime: 1725651974
PfmFamily: 17
TTFWeight: 400
TTFWidth: 5
LineGap: 92
VLineGap: 92
OS2TypoAscent: 0
OS2TypoAOffset: 1
OS2TypoDescent: 0
OS2TypoDOffset: 1
OS2TypoLinegap: 92
OS2WinAscent: 0
OS2WinAOffset: 1
OS2WinDescent: 0
OS2WinDOffset: 1
HheadAscent: 0
HheadAOffset: 1
HheadDescent: 0
HheadDOffset: 1
OS2Vendor: 'PfEd'

StartChar: tiki.a
Encoding: 256 990272 0
Width: 872
Flags: W
HStem: -128.996 75.8525<-34.6494 906.794> 3.74414 75.8496<401.5 470.648> 819.148 75.8516<-34.6495 906.794>
VStem: 398.15 75.8496<7.09438 76.2437 189.134 758.913>
LayerCount: 2
Fore
SplineSet
474 42 m 0
 474 21 457 4 436 4 c 0
 415 4 398 21 398 42 c 0
 398 63 415 80 436 80 c 0
 457 80 474 63 474 42 c 0
474 724 m 2
 470 389 l 0
 474 224 l 2
 474 203 457 186 436 186 c 0
 415 186 398 203 398 224 c 2
 398 724 l 2
 398 745 415 762 436 762 c 0
 457 762 474 745 474 724 c 2
EndSplineSet
Validated: 1
Ligature2: "liga-2" a space
Ligature2: "liga-1" a
MultipleSubs2: "cc01-1" tiki.a tiki.cartouchebody
EndChar

StartChar: tiki.ala
Encoding: 257 990273 1
Width: 872
Flags: W
LayerCount: 2
Fore
SplineSet
804 68 m 0
 812 60 815 52 815 42 c 0
 815 32 812 23 804 15 c 0
 797 8 787 4 777 4 c 0
 767 4 758 8 751 15 c 2
 436 329 l 1
 122 15 l 2
 115 8 105 4 95 4 c 0
 85 4 75 8 68 15 c 0
 60 23 57 32 57 42 c 0
 57 52 60 60 68 68 c 2
 382 383 l 1
 68 698 l 2
 60 706 57 714 57 724 c 0
 57 734 60 743 68 751 c 0
 76 759 85 762 95 762 c 0
 105 762 114 759 122 751 c 2
 436 437 l 1
 751 751 l 2
 759 759 768 762 778 762 c 0
 788 762 796 759 804 751 c 0
 812 743 815 734 815 724 c 0
 815 714 812 706 804 698 c 2
 490 383 l 1
 804 68 l 0
EndSplineSet
Validated: 1
Ligature2: "liga-2" a l a space
Ligature2: "liga-1" a l a
MultipleSubs2: "cc01-1" tiki.ala tiki.cartouchebody
EndChar

StartChar: tiki.i
Encoding: 258 990274 2
Width: 872
Flags: W
LayerCount: 2
Fore
SplineSet
795 424 m 2
 809 414 815 398 815 383 c 0
 815 368 809 352 795 342 c 2
 591 183 l 2
 581 175 570 172 559 172 c 0
 532 172 507 193 507 224 c 2
 507 345 l 1
 95 345 l 2
 74 345 57 362 57 383 c 0
 57 404 74 421 95 421 c 2
 507 421 l 1
 507 542 l 2
 507 573 532 594 559 594 c 0
 570 594 581 591 591 583 c 2
 795 424 l 2
583 493 m 1
 583 421 l 1
 676 421 l 1
 583 493 l 1
583 273 m 1
 676 345 l 1
 583 345 l 1
 583 273 l 1
EndSplineSet
Validated: 1
Ligature2: "liga-2" i space
Ligature2: "liga-1" i
MultipleSubs2: "cc01-1" tiki.i tiki.cartouchebody
EndChar

StartChar: tiki.iku
Encoding: 259 990275 3
Width: 872
Flags: W
LayerCount: 2
Fore
SplineSet
57 383 m 0
 57 592 227 762 436 762 c 0
 645 762 815 592 815 383 c 0
 815 174 645 4 436 4 c 0
 227 4 57 174 57 383 c 0
739 383 m 0
 739 550 603 686 436 686 c 0
 269 686 133 550 133 383 c 0
 133 216 269 80 436 80 c 0
 603 80 739 216 739 383 c 0
EndSplineSet
Validated: 1
Ligature2: "liga-2" i k u space
Ligature2: "liga-1" i k u
MultipleSubs2: "cc01-1" tiki.iku tiki.cartouchebody
EndChar

StartChar: tiki.ilu
Encoding: 260 990276 4
Width: 872
Flags: W
LayerCount: 2
Fore
SplineSet
815 724 m 0
 815 703 798 686 777 686 c 2
 474 686 l 1
 474 42 l 2
 474 21 457 4 436 4 c 0
 415 4 398 21 398 42 c 2
 398 686 l 1
 95 686 l 2
 74 686 57 703 57 724 c 0
 57 745 74 762 95 762 c 2
 777 762 l 2
 798 762 815 745 815 724 c 0
EndSplineSet
Validated: 1
Ligature2: "liga-2" i l u space
Ligature2: "liga-1" i l u
MultipleSubs2: "cc01-1" tiki.ilu tiki.cartouchebody
EndChar

StartChar: tiki.ka
Encoding: 261 990277 5
Width: 872
Flags: W
HStem: 4 76<324.226 547.774> 326 114<277.306 366.694 505.306 594.694> 686 76<324.226 547.774>
VStem: 57 76<271.226 494.774> 265 114<338.306 427.694> 493 114<338.306 427.694> 739 76<271.226 494.774>
CounterMasks: 1 e0
LayerCount: 2
Fore
SplineSet
607 383 m 0
 607 352 581 326 550 326 c 0
 519 326 493 352 493 383 c 0
 493 414 519 440 550 440 c 0
 581 440 607 414 607 383 c 0
379 383 m 0
 379 352 353 326 322 326 c 0
 291 326 265 352 265 383 c 0
 265 414 291 440 322 440 c 0
 353 440 379 414 379 383 c 0
436 80 m 0
 603 80 739 216 739 383 c 0
 739 550 603 686 436 686 c 0
 269 686 133 550 133 383 c 0
 133 216 269 80 436 80 c 0
436 762 m 0
 645 762 815 592 815 383 c 0
 815 174 645 4 436 4 c 0
 227 4 57 174 57 383 c 0
 57 592 227 762 436 762 c 0
EndSplineSet
Validated: 1
LCarets2: 2 0 0
Ligature2: "liga-2" k a space
Ligature2: "liga-1" k a
MultipleSubs2: "cc01-1" tiki.ka tiki.cartouchebody
EndChar

StartChar: tiki.kati
Encoding: 262 990278 6
Width: 872
Flags: W
LayerCount: 2
Fore
SplineSet
804 698 m 2
 474 367 l 1
 474 42 l 2
 474 21 457 4 436 4 c 0
 415 4 398 21 398 42 c 2
 398 367 l 1
 68 698 l 2
 61 705 57 714 57 724 c 0
 57 734 61 744 68 751 c 0
 75 758 85 762 95 762 c 0
 105 762 115 758 122 751 c 2
 398 475 l 1
 398 724 l 2
 398 745 415 762 436 762 c 0
 457 762 474 745 474 724 c 2
 474 475 l 1
 751 751 l 2
 758 758 767 762 777 762 c 0
 787 762 797 758 804 751 c 0
 811 744 815 734 815 724 c 0
 815 714 811 705 804 698 c 2
EndSplineSet
Validated: 1
Ligature2: "liga-2" k a t i space
Ligature2: "liga-1" k a t i
MultipleSubs2: "cc01-1" tiki.kati tiki.cartouchebody
EndChar

StartChar: tiki.ki
Encoding: 263 990279 7
Width: 872
Flags: W
LayerCount: 2
Fore
SplineSet
666 243 m 2
 613 175 l 1
 507 39 l 2
 490 17 465 4 437 4 c 2
 436 4 l 1
 435 4 l 2
 407 4 382 17 365 39 c 2
 206 243 l 2
 201 250 198 258 198 266 c 0
 198 277 203 289 213 296 c 0
 220 301 228 304 236 304 c 0
 247 304 259 299 266 289 c 2
 398 119 l 1
 398 295 l 2
 398 298 398 300 398 303 c 0
 398 306 398 310 398 313 c 0
 398 325 398 337 403 351 c 0
 410 372 427 393 447 406 c 2
 450 408 l 2
 621 521 627 573 627 579 c 0
 627 609 625 683 417 687 c 1
 416 687 l 1
 416 687 414 687 412 687 c 0
 392 687 299 684 240 626 c 0
 233 619 223 615 213 615 c 0
 203 615 193 619 186 627 c 0
 179 634 175 643 175 653 c 0
 175 663 179 673 187 680 c 0
 266 757 381 763 412 763 c 0
 416 763 418 763 419 763 c 0
 572 760 703 716 703 579 c 0
 703 516 634 439 492 345 c 2
 489 343 l 2
 483 339 477 331 475 326 c 0
 473 321 474 313 474 305 c 0
 474 302 474 298 474 295 c 2
 474 119 l 1
 606 289 l 2
 613 299 625 304 636 304 c 0
 644 304 652 301 659 296 c 0
 669 289 674 277 674 266 c 0
 674 258 671 250 666 243 c 2
EndSplineSet
Validated: 1
Ligature2: "liga-2" k i space
Ligature2: "liga-1" k i
MultipleSubs2: "cc01-1" tiki.ki tiki.cartouchebody
EndChar

StartChar: tiki.kiku
Encoding: 264 990280 8
Width: 872
Flags: W
LayerCount: 2
Fore
SplineSet
436 741 m 0
 449 741 463 735 473 725 c 2
 778 420 l 2
 788 410 794 396 794 383 c 0
 794 370 788 356 778 346 c 2
 473 41 l 2
 463 31 449 25 436 25 c 0
 423 25 409 31 399 41 c 2
 94 346 l 2
 84 356 78 370 78 383 c 0
 78 396 84 410 94 420 c 2
 399 725 l 2
 409 735 423 741 436 741 c 0
436 111 m 1
 708 383 l 1
 436 655 l 1
 164 383 l 1
 436 111 l 1
EndSplineSet
Validated: 1
Ligature2: "liga-2" k i k u space
Ligature2: "liga-1" k i k u
MultipleSubs2: "cc01-1" tiki.kiku tiki.cartouchebody
EndChar

StartChar: tiki.ku
Encoding: 265 990281 9
Width: 872
Flags: W
LayerCount: 2
Fore
SplineSet
646 216 m 1xf2
 646 216 646 217 646 218 c 0
 646 226 645 255 621 294 c 0
 598 333 555 388 531 417 c 0
 503 452 485 492 480 534 c 0
 479 541 479 550 479 558 c 0
 479 619 507 706 652 749 c 0
 656 750 658 750 662 750 c 0
 678 750 694 739 699 723 c 0
 700 719 700 716 700 712 c 0
 700 696 690 681 673 676 c 0
 593 652 555 614 555 558 c 0
 555 553 555 548 556 543 c 0
 559 516 570 488 589 465 c 0
 614 434 660 376 686 333 c 0
 717 281 722 237 722 218 c 0xfa
 722 213 721 211 721 209 c 0
 710 76 599 24 542 16 c 0
 540 16 539 16 537 16 c 0
 518 16 502 29 499 48 c 0
 499 50 499 52 499 54 c 0xf4
 499 72 512 88 531 91 c 0
 542 93 637 111 646 215 c 2
 646 216 l 1xf2
317 216 m 1
 317 216 317 218 317 220 c 0
 317 230 315 257 293 294 c 0
 270 333 226 388 202 417 c 0
 174 452 157 492 152 534 c 0
 151 541 150 550 150 558 c 0
 150 619 178 706 323 749 c 0
 327 750 330 750 334 750 c 0
 350 750 365 739 370 723 c 0
 371 719 372 716 372 712 c 0
 372 696 362 681 345 676 c 0
 265 652 226 614 226 558 c 0
 226 553 226 548 227 543 c 0
 230 516 242 488 261 465 c 0
 286 434 332 376 358 333 c 0
 389 281 393 237 393 218 c 0
 393 213 393 211 393 209 c 0
 382 76 271 24 214 16 c 0
 212 16 210 16 208 16 c 0
 189 16 174 29 171 48 c 0
 171 50 170 52 170 54 c 0
 170 72 184 88 203 91 c 0
 214 93 308 111 317 215 c 2
 317 216 l 1
EndSplineSet
Validated: 1
Ligature2: "liga-2" k u space
Ligature2: "liga-1" k u
MultipleSubs2: "cc01-1" tiki.ku tiki.cartouchebody
EndChar

StartChar: tiki.la
Encoding: 266 990282 10
Width: 872
Flags: W
LayerCount: 2
Fore
SplineSet
531 231 m 2
 531 535 l 2
 531 619 463 686 379 686 c 2
 303 686 l 2
 282 686 265 703 265 724 c 0
 265 745 282 762 303 762 c 2
 379 762 l 2
 504 762 607 660 607 535 c 2
 607 231 l 2
 607 106 504 4 379 4 c 2
 303 4 l 2
 282 4 265 21 265 42 c 0
 265 63 282 80 303 80 c 2
 379 80 l 2
 463 80 531 147 531 231 c 2
EndSplineSet
Validated: 1
Ligature2: "liga-2" l a space
Ligature2: "liga-1" l a
MultipleSubs2: "cc01-1" tiki.la tiki.cartouchebody
EndChar

StartChar: tiki.lapi
Encoding: 267 990283 11
Width: 872
Flags: W
HStem: 193 76<560.323 691.452> 345 76<60.3547 445.261> 497 76<560.323 691.452>
VStem: 739 76<316.21 449.79>
CounterMasks: 1 e0
LayerCount: 2
Fore
SplineSet
626 573 m 0
 731 573 815 488 815 383 c 0
 815 278 731 193 626 193 c 0
 534 193 458 258 440 345 c 1
 95 345 l 2
 74 345 57 362 57 383 c 0
 57 404 74 421 95 421 c 2
 440 421 l 1
 458 508 534 573 626 573 c 0
626 269 m 0
 689 269 739 320 739 383 c 0
 739 446 689 497 626 497 c 0
 563 497 512 446 512 383 c 0
 512 320 563 269 626 269 c 0
EndSplineSet
Validated: 1
LCarets2: 4 0 0 0 0
Ligature2: "liga-2" l a p i space
Ligature2: "liga-1" l a p i
MultipleSubs2: "cc01-1" tiki.lapi tiki.cartouchebody
EndChar

StartChar: tiki.li
Encoding: 268 990284 12
Width: 872
Flags: W
LayerCount: 2
Fore
SplineSet
77 424 m 2
 281 583 l 2
 291 591 302 594 313 594 c 0
 340 594 365 573 365 542 c 2
 365 421 l 1
 777 421 l 2
 798 421 815 404 815 383 c 0
 815 362 798 345 777 345 c 2
 365 345 l 1
 365 224 l 2
 365 193 340 172 313 172 c 0
 302 172 291 175 281 183 c 2
 77 342 l 2
 63 352 57 368 57 383 c 0
 57 398 63 414 77 424 c 2
289 493 m 1
 196 421 l 1
 289 421 l 1
 289 493 l 1
289 273 m 1
 289 345 l 1
 196 345 l 1
 289 273 l 1
EndSplineSet
Validated: 1
Ligature2: "liga-2" l i space
Ligature2: "liga-1" l i
MultipleSubs2: "cc01-1" tiki.li tiki.cartouchebody
EndChar

StartChar: tiki.lika
Encoding: 269 990285 13
Width: 872
Flags: W
LayerCount: 2
Fore
SplineSet
771 484 m 0
 790 481 803 464 803 446 c 0
 803 444 803 443 803 441 c 0
 795 384 743 273 610 262 c 0
 608 262 606 262 601 262 c 0
 582 262 538 266 486 297 c 0
 443 323 385 369 354 394 c 0
 331 413 303 425 276 428 c 0
 271 429 266 429 261 429 c 0
 205 429 167 390 143 310 c 0
 138 294 123 283 107 283 c 0
 103 283 100 283 96 284 c 0
 80 289 69 305 69 321 c 0
 69 325 69 328 70 332 c 0
 113 477 200 504 261 504 c 0
 269 504 278 504 285 503 c 0
 327 498 367 481 402 453 c 0
 431 429 486 385 525 362 c 0
 563 339 592 337 601 337 c 0
 603 337 603 338 603 338 c 0
 708 347 726 441 728 452 c 0
 731 471 747 484 765 484 c 0
 767 484 769 484 771 484 c 0
EndSplineSet
Validated: 1
Ligature2: "liga-2" l i k a space
Ligature2: "liga-1" l i k a
MultipleSubs2: "cc01-1" tiki.lika tiki.cartouchebody
EndChar

StartChar: tiki.lili
Encoding: 270 990286 14
Width: 872
Flags: W
HStem: 193 76<484.317 615.621> 326 114<145.306 234.078> 497 76<484.317 615.621>
VStem: 133 113<338.306 427.694> 360 76<317.317 448.683> 664 75<317.317 448.683>
CounterMasks: 1 e0
LayerCount: 2
Fore
SplineSet
190 440 m 0
 221 440 246 414 246 383 c 0
 246 352 221 326 190 326 c 0
 159 326 133 352 133 383 c 0
 133 414 159 440 190 440 c 0
360 383 m 0
 360 488 445 573 550 573 c 0
 655 573 739 488 739 383 c 0
 739 278 655 193 550 193 c 0
 445 193 360 278 360 383 c 0
664 383 m 0
 664 446 613 497 550 497 c 0
 487 497 436 446 436 383 c 0
 436 320 487 269 550 269 c 0
 613 269 664 320 664 383 c 0
EndSplineSet
Validated: 1
LCarets2: 4 0 0 0 0
Ligature2: "liga-2" l i l i space
Ligature2: "liga-1" l i l i
MultipleSubs2: "cc01-1" tiki.lili tiki.cartouchebody
EndChar

StartChar: tiki.lu
Encoding: 271 990287 15
Width: 872
Flags: W
LayerCount: 2
Fore
SplineSet
665 421 m 1
 686 421 703 404 703 383 c 0
 703 362 686 345 665 345 c 2
 209 345 l 2
 188 345 171 362 171 383 c 0
 171 404 188 421 209 421 c 2
 665 421 l 1
EndSplineSet
Validated: 1
Ligature2: "liga-2" l u space
Ligature2: "liga-1" l u
MultipleSubs2: "cc01-1" tiki.lu tiki.cartouchebody
LCarets2: 1 0
EndChar

StartChar: tiki.lupa
Encoding: 272 990288 16
Width: 872
Flags: W
LayerCount: 2
Fore
SplineSet
171 686 m 2
 171 126 l 2
 171 121 174 118 179 118 c 2
 693 118 l 2
 698 118 702 121 702 126 c 2
 702 686 l 2
 702 707 718 724 739 724 c 0
 760 724 777 707 777 686 c 2
 777 126 l 2
 777 80 739 42 693 42 c 2
 179 42 l 2
 133 42 95 80 95 126 c 2
 95 686 l 2
 95 707 112 724 133 724 c 0
 154 724 171 707 171 686 c 2
EndSplineSet
Validated: 1
Ligature2: "liga-2" l u p a space
Ligature2: "liga-1" l u p a
MultipleSubs2: "cc01-1" tiki.lupa tiki.cartouchebody
EndChar

StartChar: tiki.mi
Encoding: 273 990289 17
Width: 872
Flags: W
LayerCount: 2
Fore
SplineSet
395 24 m 2
 236 228 l 2
 228 238 225 249 225 260 c 0
 225 287 246 312 277 312 c 2
 398 312 l 1
 398 724 l 2
 398 745 415 762 436 762 c 0
 457 762 474 745 474 724 c 2
 474 312 l 1
 595 312 l 2
 626 312 647 287 647 260 c 0
 647 249 644 238 636 228 c 2
 477 24 l 2
 467 10 451 4 436 4 c 0
 421 4 405 10 395 24 c 2
326 236 m 1
 398 143 l 1
 398 236 l 1
 326 236 l 1
546 236 m 1
 474 236 l 1
 474 143 l 1
 546 236 l 1
EndSplineSet
Validated: 1
Ligature2: "liga-2" m i space
Ligature2: "liga-1" m i
MultipleSubs2: "cc01-1" tiki.mi tiki.cartouchebody
EndChar

StartChar: tiki.muku
Encoding: 274 990290 18
Width: 872
Flags: W
HStem: 184 76<337.855 534.145> 506 76<172 700>
LayerCount: 2
Fore
SplineSet
719 582 m 2
 735 582 750 575 761 563 c 0
 771 552 777 537 777 522 c 0
 777 390 656 184 436 184 c 0
 216 184 95 390 95 522 c 0
 95 537 101 552 111 563 c 0
 122 575 138 582 154 582 c 2
 719 582 l 2
436 260 m 0
 569 260 683 366 700 506 c 1
 172 506 l 1
 189 366 303 260 436 260 c 0
EndSplineSet
Validated: 1
Ligature2: "liga-2" m u k u space
Ligature2: "liga-1" m u k u
MultipleSubs2: "cc01-1" tiki.muku tiki.cartouchebody
EndChar

StartChar: tiki.muti
Encoding: 275 990291 19
Width: 872
Flags: W
HStem: 69 76<336.676 535.516> 432 61<215.47 290.482 581.518 657.497> 599 60<205.588 290.482 581.518 666.482>
VStem: 133 76<272.676 435.303> 135 60<502.856 588.412> 301 61<503.518 588.412> 510 61<503.518 588.412> 664 75<275.667 435.007> 677 61<502.983 588.412>
LayerCount: 2
Fore
SplineSet
719 482 m 1xe680
 733 447 739 410 739 372 c 0
 739 291 708 215 651 158 c 0
 594 101 517 69 436 69 c 0
 355 69 279 101 222 158 c 1
 165 215 133 291 133 372 c 0xf7
 133 410 140 448 154 483 c 1
 142 501 135 523 135 546 c 0xee
 135 609 185 659 248 659 c 0
 311 659 362 609 362 546 c 0
 362 483 311 432 248 432 c 0
 237 432 228 433 218 436 c 1
 212 415 209 394 209 372 c 0
 209 311 232 254 275 211 c 0
 318 168 375 145 436 145 c 0
 497 145 554 168 597 211 c 0
 640 254 664 311 664 372 c 0xf7
 664 394 661 415 655 436 c 1
 645 433 635 432 624 432 c 0
 561 432 510 483 510 546 c 0
 510 609 561 659 624 659 c 0
 687 659 738 609 738 546 c 0
 738 523 730 500 718 482 c 1
 719 482 l 1xe680
571 546 m 0
 571 517 595 493 624 493 c 0
 653 493 677 517 677 546 c 0xe680
 677 575 653 599 624 599 c 0
 595 599 571 575 571 546 c 0
248 599 m 0
 219 599 195 575 195 546 c 0xee
 195 517 219 493 248 493 c 0
 277 493 301 517 301 546 c 0
 301 575 277 599 248 599 c 0
EndSplineSet
Validated: 1
Ligature2: "liga-2" m u t i space
Ligature2: "liga-1" m u t i
MultipleSubs2: "cc01-1" tiki.muti tiki.cartouchebody
EndChar

StartChar: tiki.paka
Encoding: 276 990292 20
Width: 872
Flags: W
LayerCount: 2
Fore
SplineSet
702 42 m 0
 702 21 685 4 664 4 c 0
 643 4 626 21 626 42 c 0
 626 154 541 246 436 246 c 0
 331 246 246 154 246 42 c 0
 246 21 230 4 209 4 c 0
 188 4 171 21 171 42 c 0
 171 196 290 321 436 321 c 0
 582 321 702 196 702 42 c 0
256 434 m 2
 382 560 l 1
 256 686 l 2
 249 693 245 703 245 713 c 0
 245 723 249 733 256 740 c 0
 263 747 273 751 283 751 c 0
 293 751 303 747 310 740 c 2
 436 614 l 1
 562 740 l 2
 569 747 579 751 589 751 c 0
 599 751 609 747 616 740 c 0
 623 733 627 723 627 713 c 0
 627 703 623 693 616 686 c 2
 490 560 l 1
 616 434 l 2
 623 427 627 417 627 407 c 0
 627 397 623 388 616 381 c 0
 609 374 599 370 589 370 c 0
 579 370 569 374 562 381 c 2
 436 507 l 1
 310 381 l 2
 303 374 293 370 283 370 c 0
 273 370 263 374 256 381 c 0
 249 388 245 397 245 407 c 0
 245 417 249 427 256 434 c 2
EndSplineSet
Validated: 1
Ligature2: "liga-2" p a k a space
Ligature2: "liga-1" p a k a
MultipleSubs2: "cc01-1" tiki.paka tiki.cartouchebody
EndChar

StartChar: tiki.pali
Encoding: 277 990293 21
Width: 872
Flags: W
LayerCount: 2
Fore
SplineSet
171 42 m 0xf2
 171 196 290 321 436 321 c 0
 582 321 702 196 702 42 c 0
 702 21 685 4 664 4 c 0
 643 4 626 21 626 42 c 0
 626 154 541 246 436 246 c 0
 331 246 246 154 246 42 c 0
 246 21 230 4 209 4 c 0
 188 4 171 21 171 42 c 0xf2
436 383 m 0
 331 383 246 468 246 573 c 0
 246 678 331 762 436 762 c 0
 541 762 626 678 626 573 c 0xec
 626 468 541 383 436 383 c 0
436 686 m 0
 373 686 322 636 322 573 c 0
 322 510 373 459 436 459 c 0
 499 459 550 510 550 573 c 0
 550 636 499 686 436 686 c 0
EndSplineSet
Validated: 1
Ligature2: "liga-2" p a l i space
Ligature2: "liga-1" p a l i
MultipleSubs2: "cc01-1" tiki.pali tiki.cartouchebody
EndChar

StartChar: tiki.puka
Encoding: 278 990294 22
Width: 872
Flags: W
LayerCount: 2
Fore
SplineSet
815 626 m 2
 815 140 l 2
 815 119 798 102 777 102 c 0
 756 102 739 119 739 140 c 2
 739 345 l 1
 133 345 l 1
 133 140 l 2
 133 119 116 102 95 102 c 0
 74 102 57 119 57 140 c 2
 57 626 l 2
 57 647 74 664 95 664 c 0
 116 664 133 647 133 626 c 2
 133 421 l 1
 739 421 l 1
 739 626 l 2
 739 647 756 664 777 664 c 0
 798 664 815 647 815 626 c 2
EndSplineSet
Validated: 1
Ligature2: "liga-2" p u k a space
Ligature2: "liga-1" p u k a
MultipleSubs2: "cc01-1" tiki.puka tiki.cartouchebody
EndChar

StartChar: tiki.pula
Encoding: 279 990295 23
Width: 872
Flags: W
LayerCount: 2
Fore
SplineSet
664 542 m 0
 685 542 702 525 702 504 c 0
 702 350 582 224 436 224 c 0
 290 224 171 350 171 504 c 0
 171 525 188 542 209 542 c 0
 230 542 246 525 246 504 c 0
 246 392 331 300 436 300 c 0
 541 300 626 392 626 504 c 0
 626 525 643 542 664 542 c 0
EndSplineSet
Validated: 1
LCarets2: 4 0 0 0 0
Ligature2: "liga-2" p u l a space
Ligature2: "liga-1" p u l a
MultipleSubs2: "cc01-1" tiki.pula tiki.cartouchebody
EndChar

StartChar: tiki.taka
Encoding: 280 990296 24
Width: 872
Flags: W
LayerCount: 2
Fore
SplineSet
788 198 m 2
 578 111 l 2
 573 109 568 108 563 108 c 0
 548 108 534 117 528 132 c 2
 331 608 l 1
 148 167 l 1
 323 94 l 2
 338 88 347 74 347 59 c 0
 347 54 346 50 344 45 c 0
 338 30 324 21 309 21 c 0
 304 21 299 22 294 24 c 2
 84 111 l 2
 79 113 75 116 72 119 c 0
 65 126 61 136 61 146 c 0
 61 151 62 156 64 161 c 2
 296 721 l 2
 298 725 300 728 302 731 c 0
 306 736 310 740 316 742 c 0
 321 744 326 745 331 745 c 0
 336 745 340 744 345 742 c 0
 351 740 355 736 359 732 c 0
 362 729 364 725 366 721 c 2
 584 196 l 1
 759 268 l 2
 764 270 768 271 773 271 c 0
 788 271 802 263 808 248 c 0
 810 243 811 238 811 233 c 0
 811 218 803 204 788 198 c 2
EndSplineSet
Validated: 1
LCarets2: 4 0 0 0 0
Ligature2: "liga-2" t a k a space
Ligature2: "liga-1" t a k a
MultipleSubs2: "cc01-1" tiki.taka tiki.cartouchebody
EndChar

StartChar: tiki.tama
Encoding: 281 990297 25
Width: 872
Flags: W
LayerCount: 2
Fore
SplineSet
57 231 m 0
 57 252 74 269 95 269 c 2
 777 269 l 2
 798 269 815 252 815 231 c 0
 815 210 798 193 777 193 c 2
 95 193 l 2
 74 193 57 210 57 231 c 0
57 535 m 0
 57 556 74 573 95 573 c 2
 777 573 l 2
 798 573 815 556 815 535 c 0
 815 514 798 497 777 497 c 2
 95 497 l 2
 74 497 57 514 57 535 c 0
EndSplineSet
Validated: 1
Ligature2: "liga-2" t a m a space
Ligature2: "liga-1" t a m a
MultipleSubs2: "cc01-1" tiki.tama tiki.cartouchebody
EndChar

StartChar: tiki.tiki
Encoding: 282 990298 26
Width: 872
Flags: W
LayerCount: 2
Fore
SplineSet
815 358 m 1
 815 357 l 2
 815 263 779 175 712 108 c 2
 711 107 l 2
 644 41 556 4 462 4 c 2
 461 4 l 1
 460 4 l 2
 366 4 278 41 211 108 c 0
 204 115 200 125 200 135 c 0
 200 145 204 155 211 162 c 0
 218 169 228 173 238 173 c 0
 248 173 257 169 264 162 c 0
 317 109 387 80 461 80 c 0
 535 80 605 109 658 162 c 0
 711 215 739 284 739 358 c 0
 739 432 711 502 658 555 c 0
 605 607 535 637 461 637 c 0
 387 637 318 607 265 555 c 2
 189 476 l 1
 382 500 l 2
 384 500 385 500 387 500 c 0
 408 500 425 483 425 462 c 0
 425 443 410 426 391 424 c 2
 154 395 l 2
 150 395 147 394 143 394 c 0
 121 394 99 402 83 418 c 1
 83 419 l 1
 82 419 l 1
 66 435 57 457 57 480 c 0
 57 484 57 487 57 491 c 2
 87 729 l 2
 89 748 106 762 125 762 c 0
 127 762 128 762 130 762 c 0
 149 759 162 744 162 725 c 0
 162 723 162 721 162 719 c 2
 139 533 l 1
 211 609 l 2
 278 676 366 712 460 712 c 2
 461 712 l 1
 462 712 l 2
 556 712 644 675 711 609 c 1
 712 609 l 1
 779 542 815 453 815 359 c 2
 815 358 l 1
EndSplineSet
Validated: 1
Ligature2: "liga-2" t i k i space
Ligature2: "liga-1" t i k i
MultipleSubs2: "cc01-1" tiki.tiki tiki.cartouchebody
EndChar

StartChar: tiki.tiku
Encoding: 283 990299 27
Width: 872
Flags: W
LayerCount: 2
Fore
SplineSet
171 80 m 2
 171 59 154 42 133 42 c 0
 112 42 95 59 95 80 c 2
 95 640 l 2
 95 686 133 724 179 724 c 2
 693 724 l 2
 739 724 777 686 777 640 c 2
 777 80 l 2
 777 59 760 42 739 42 c 0
 718 42 702 59 702 80 c 2
 702 640 l 2
 702 645 698 648 693 648 c 2
 337 648 l 0
 179 648 l 2
 174 648 171 645 171 640 c 2
 171 80 l 2
EndSplineSet
Validated: 1
Ligature2: "liga-2" t i k u space
Ligature2: "liga-1" t i k u
MultipleSubs2: "cc01-1" tiki.tiku tiki.cartouchebody
EndChar

StartChar: tiki.tila
Encoding: 284 990300 28
Width: 872
Flags: W
LayerCount: 2
Fore
SplineSet
395 742 m 2
 405 756 421 762 436 762 c 0
 451 762 467 756 477 742 c 2
 636 538 l 2
 644 528 647 517 647 506 c 0
 647 479 626 454 595 454 c 2
 474 454 l 1
 474 42 l 2
 474 21 457 4 436 4 c 0
 415 4 398 21 398 42 c 2
 398 454 l 1
 277 454 l 2
 246 454 225 479 225 506 c 0
 225 517 228 528 236 538 c 2
 395 742 l 2
326 530 m 1
 398 530 l 1
 398 623 l 1
 326 530 l 1
546 530 m 1
 474 623 l 1
 474 530 l 1
 546 530 l 1
EndSplineSet
Validated: 1
LCarets2: 4 0 0 0 0
Ligature2: "liga-2" t i l a space
Ligature2: "liga-1" t i l a
MultipleSubs2: "cc01-1" tiki.tila tiki.cartouchebody
EndChar

StartChar: tiki.tilu
Encoding: 285 990301 29
Width: 872
Flags: W
LayerCount: 2
Fore
SplineSet
269 593 m 1
 268 593 l 2
 164 584 146 489 144 478 c 0
 141 459 125 446 107 446 c 0
 105 446 103 446 101 446 c 0
 82 449 69 465 69 484 c 0
 69 486 69 487 69 489 c 0
 77 546 129 657 262 668 c 0
 264 668 266 669 271 669 c 0
 290 669 334 664 386 633 c 0
 429 607 487 561 518 536 c 0
 541 517 569 506 596 503 c 0
 601 502 606 502 611 502 c 0
 667 502 705 540 729 620 c 0
 734 637 749 647 765 647 c 0
 769 647 772 647 776 646 c 0
 792 641 803 625 803 609 c 0
 803 605 803 603 802 599 c 0
 759 454 672 426 611 426 c 0
 603 426 594 426 587 427 c 0
 545 432 505 450 470 478 c 0
 441 502 386 545 347 568 c 0
 308 592 279 593 271 593 c 0
 270 593 269 593 269 593 c 1
269 264 m 1
 268 264 l 2
 164 255 146 161 144 150 c 0
 141 131 125 117 107 117 c 0
 105 117 103 118 101 118 c 0
 82 121 69 136 69 155 c 0
 69 157 69 159 69 161 c 0
 77 218 129 329 262 340 c 0
 264 340 266 340 271 340 c 0
 290 340 334 336 386 305 c 0
 429 279 487 233 518 208 c 0
 541 189 569 177 596 174 c 0
 601 173 606 173 611 173 c 0
 667 173 705 212 729 292 c 0
 734 309 749 319 765 319 c 0
 769 319 772 318 776 317 c 0
 792 312 803 297 803 281 c 0
 803 277 803 274 802 270 c 0
 759 125 672 97 611 97 c 0
 603 97 594 98 587 99 c 0
 545 104 505 121 470 149 c 0
 441 173 386 217 347 240 c 0
 310 262 283 264 273 264 c 0
 271 264 269 264 269 264 c 1
EndSplineSet
Validated: 1
Ligature2: "liga-2" t i l u space
Ligature2: "liga-1" t i l u
MultipleSubs2: "cc01-1" tiki.tilu tiki.cartouchebody
LCarets2: 3 0 0 0
EndChar

StartChar: tiki.timi
Encoding: 286 990302 30
Width: 872
Flags: W
LayerCount: 2
Fore
SplineSet
474 42 m 0
 474 21 457 4 436 4 c 0
 415 4 398 21 398 42 c 0
 398 63 415 80 436 80 c 0
 457 80 474 63 474 42 c 0
700 578 m 0
 700 515 631 439 489 345 c 1
 486 342 l 2
 480 338 474 331 472 326 c 0
 470 321 471 312 471 304 c 0
 471 301 471 298 471 295 c 2
 471 208 l 2
 471 187 454 170 433 170 c 0
 412 170 395 187 395 208 c 2
 395 295 l 2
 395 298 395 300 395 303 c 0
 395 306 395 309 395 312 c 0
 395 324 395 337 400 351 c 0
 407 372 424 392 444 405 c 1
 447 408 l 1
 618 521 624 572 624 578 c 0
 624 606 623 682 414 686 c 1
 413 686 l 1
 413 686 411 687 409 687 c 0
 389 687 296 684 237 626 c 0
 230 619 220 615 210 615 c 0
 200 615 190 618 183 626 c 0
 176 633 172 643 172 653 c 0
 172 663 176 673 184 680 c 0
 263 757 377 762 409 762 c 0
 413 762 415 762 416 762 c 0
 569 759 700 715 700 578 c 0
EndSplineSet
Validated: 1
Ligature2: "liga-2" t i m i space
Ligature2: "liga-1" t i m i
MultipleSubs2: "cc01-1" tiki.timi tiki.cartouchebody
LCarets2: 3 0 0 0
EndChar

StartChar: tiki.tipi
Encoding: 287 990303 31
Width: 872
Flags: W
LayerCount: 2
Fore
SplineSet
133 118 m 2
 693 118 l 2
 698 118 701 121 701 126 c 2
 701 640 l 2
 701 645 698 649 693 649 c 2
 133 649 l 2
 112 649 95 665 95 686 c 0
 95 707 112 724 133 724 c 2
 693 724 l 2
 739 724 777 686 777 640 c 2
 777 126 l 2
 777 80 739 42 693 42 c 2
 133 42 l 2
 112 42 95 59 95 80 c 0
 95 101 112 118 133 118 c 2
EndSplineSet
Validated: 1
LCarets2: 4 0 0 0 0
Ligature2: "liga-2" t i p i space
Ligature2: "liga-1" t i p i
MultipleSubs2: "cc01-1" tiki.tipi tiki.cartouchebody
EndChar

StartChar: tiki.titi
Encoding: 288 990304 32
Width: 872
Flags: W
HStem: 42 76<60.3547 811.645> 326 114<201.922 290.694 391.306 480.694 581.306 670.694> 648 76<60.3547 811.645>
VStem: 190 113<338.306 427.694> 379 114<338.306 427.694> 569 114<338.306 427.694>
CounterMasks: 1 e0
LayerCount: 2
Fore
SplineSet
190 383 m 0
 190 414 215 440 246 440 c 0
 277 440 303 414 303 383 c 0
 303 352 277 326 246 326 c 0
 215 326 190 352 190 383 c 0
569 383 m 0
 569 414 595 440 626 440 c 0
 657 440 683 414 683 383 c 0
 683 352 657 326 626 326 c 0
 595 326 569 352 569 383 c 0
815 80 m 0
 815 59 798 42 777 42 c 2
 95 42 l 2
 74 42 57 59 57 80 c 0
 57 101 74 118 95 118 c 2
 777 118 l 2
 798 118 815 101 815 80 c 0
57 686 m 0
 57 707 74 724 95 724 c 2
 777 724 l 2
 798 724 815 707 815 686 c 0
 815 665 798 648 777 648 c 2
 95 648 l 2
 74 648 57 665 57 686 c 0
379 383 m 0
 379 414 405 440 436 440 c 0
 467 440 493 414 493 383 c 0
 493 352 467 326 436 326 c 0
 405 326 379 352 379 383 c 0
EndSplineSet
Validated: 1
LCarets2: 4 0 0 0 0
Ligature2: "liga-2" t i t i space
Ligature2: "liga-1" t i t i
MultipleSubs2: "cc01-1" tiki.titi tiki.cartouchebody
EndChar

StartChar: tiki.tu
Encoding: 289 990305 33
Width: 872
Flags: W
LayerCount: 2
Fore
SplineSet
588 4 m 0
 567 4 550 21 550 42 c 2
 550 724 l 2
 550 745 567 762 588 762 c 0
 609 762 626 745 626 724 c 2
 626 42 l 2
 626 21 609 4 588 4 c 0
284 4 m 0
 263 4 246 21 246 42 c 2
 246 724 l 2
 246 745 263 762 284 762 c 0
 305 762 322 745 322 724 c 2
 322 42 l 2
 322 21 305 4 284 4 c 0
EndSplineSet
Validated: 1
Ligature2: "liga-2" t u space
Ligature2: "liga-1" t u
MultipleSubs2: "cc01-1" tiki.tu tiki.cartouchebody
EndChar

StartChar: tiki.tuki
Encoding: 290 990306 34
Width: 872
Flags: W
LayerCount: 2
Fore
SplineSet
611 534 m 0
 606 534 601 535 596 537 c 0
 581 543 573 557 573 572 c 0
 573 577 574 582 576 587 c 2
 619 692 l 2
 625 707 639 715 654 715 c 0
 659 715 664 714 669 712 c 0
 684 706 692 692 692 677 c 0
 692 672 691 668 689 663 c 2
 646 558 l 2
 640 543 626 534 611 534 c 0
261 534 m 0
 246 534 232 543 226 558 c 2
 183 663 l 2
 181 668 180 672 180 677 c 0
 180 692 188 706 203 712 c 0
 208 714 213 715 218 715 c 0
 233 715 247 707 253 692 c 2
 296 587 l 2
 298 582 299 577 299 572 c 0
 299 557 291 543 276 537 c 0
 271 535 266 534 261 534 c 0
436 573 m 0
 415 573 398 590 398 611 c 2
 398 724 l 2
 398 745 415 762 436 762 c 0
 457 762 474 745 474 724 c 2
 474 611 l 2
 474 590 457 573 436 573 c 0
436 535 m 0
 583 535 702 416 702 269 c 0
 702 122 583 4 436 4 c 0
 289 4 171 122 171 269 c 0
 171 416 289 535 436 535 c 0
436 459 m 0
 331 459 246 374 246 269 c 0
 246 164 331 80 436 80 c 0
 541 80 626 164 626 269 c 0
 626 374 541 459 436 459 c 0
EndSplineSet
Validated: 1
LCarets2: 4 0 0 0 0
Ligature2: "liga-2" t u k i space
Ligature2: "liga-1" t u k i
MultipleSubs2: "cc01-1" tiki.tuki tiki.cartouchebody
EndChar

StartChar: tiki.tula
Encoding: 291 990307 35
Width: 872
Flags: W
LayerCount: 2
Fore
SplineSet
564 470 m 1xf5
 635 427 683 349 683 259 c 0
 683 123 572 13 436 13 c 0
 300 13 190 123 190 259 c 0xee
 190 349 238 427 309 470 c 1
 227 518 171 609 171 715 c 0
 171 736 188 753 209 753 c 0
 230 753 246 736 246 715 c 0
 246 603 331 512 436 512 c 0
 541 512 626 603 626 715 c 0
 626 736 643 753 664 753 c 0
 685 753 702 736 702 715 c 0
 702 609 646 518 564 470 c 1xf5
436 88 m 0
 530 88 607 165 607 259 c 0
 607 353 530 430 436 430 c 0
 342 430 265 353 265 259 c 0
 265 165 342 88 436 88 c 0
379 259 m 0
 379 290 405 316 436 316 c 0
 467 316 493 290 493 259 c 0
 493 228 467 202 436 202 c 0
 405 202 379 228 379 259 c 0
EndSplineSet
Validated: 1
Ligature2: "liga-2" t u l a space
Ligature2: "liga-1" t u l a
MultipleSubs2: "cc01-1" tiki.tula tiki.cartouchebody
EndChar

StartChar: tiki.tulu
Encoding: 292 990308 36
Width: 872
Flags: W
LayerCount: 2
Fore
SplineSet
777 421 m 2
 798 421 815 404 815 383 c 0
 815 362 798 345 777 345 c 2
 622 345 l 1
 607 271 548 212 474 197 c 1
 474 42 l 2
 474 21 457 4 436 4 c 0
 415 4 398 21 398 42 c 2
 398 197 l 1
 324 212 265 271 250 345 c 1
 95 345 l 2
 74 345 57 362 57 383 c 0
 57 404 74 421 95 421 c 2
 250 421 l 1
 265 495 324 554 398 569 c 1
 398 724 l 2
 398 745 415 762 436 762 c 0
 457 762 474 745 474 724 c 2
 474 569 l 1
 548 554 607 495 622 421 c 1
 777 421 l 2
436 269 m 0
 499 269 550 320 550 383 c 0
 550 446 499 497 436 497 c 0
 373 497 322 446 322 383 c 0
 322 320 373 269 436 269 c 0
EndSplineSet
Validated: 1
LCarets2: 4 0 0 0 0
Ligature2: "liga-2" t u l u space
Ligature2: "liga-1" t u l u
MultipleSubs2: "cc01-1" tiki.tulu tiki.cartouchebody
EndChar

StartChar: tiki.uli
Encoding: 293 990309 37
Width: 872
Flags: W
LayerCount: 2
Fore
SplineSet
359 16 m 0
 340 16 321 23 307 37 c 0
 293 51 286 70 286 89 c 0
 286 92 286 96 286 99 c 2
 308 275 l 2
 310 294 327 308 346 308 c 0
 348 308 348 308 350 308 c 0
 369 305 383 289 383 270 c 0
 383 268 383 267 383 265 c 2
 369 153 l 1
 572 356 l 1
 209 356 l 1
 208 356 l 0
 203 356 199 357 194 359 c 0
 190 361 186 363 182 367 c 0
 178 371 175 375 173 380 c 0
 171 384 171 389 171 393 c 0
 171 394 171 394 171 395 c 0
 171 400 171 404 173 408 c 0
 175 413 178 417 182 421 c 2
 495 734 l 2
 502 741 512 745 522 745 c 0
 532 745 542 741 549 734 c 0
 556 727 560 717 560 707 c 0
 560 697 556 687 549 680 c 2
 300 432 l 1
 664 432 l 2
 670 432 674 430 679 428 c 0
 682 427 686 425 689 423 c 0
 690 422 692 419 693 418 c 0
 695 415 698 412 699 409 c 0
 701 405 702 401 702 396 c 0
 702 395 702 393 702 392 c 0
 702 388 701 383 699 379 c 0
 697 375 695 372 692 369 c 0
 691 368 691 368 690 367 c 2
 423 100 l 1
 535 114 l 2
 537 114 538 114 540 114 c 0
 561 114 578 97 578 76 c 0
 578 57 563 40 544 38 c 2
 369 16 l 2
 366 16 362 16 359 16 c 0
EndSplineSet
Validated: 1
Ligature2: "liga-2" u l i space
Ligature2: "liga-1" u l i
MultipleSubs2: "cc01-1" tiki.uli tiki.cartouchebody
LCarets2: 2 0 0
EndChar

StartChar: tiki.upi
Encoding: 294 990310 38
Width: 872
Flags: W
LayerCount: 2
Fore
SplineSet
474 457 m 1
 582 439 664 346 664 233 c 0
 664 107 562 5 436 5 c 0
 310 5 209 107 209 233 c 0
 209 346 290 439 398 457 c 1
 398 645 l 1
 266 475 l 2
 259 465 247 461 236 461 c 0
 228 461 220 464 213 469 c 0
 203 476 198 488 198 499 c 0
 198 507 201 515 206 522 c 2
 365 726 l 2
 382 748 408 761 436 761 c 0
 464 761 490 748 507 726 c 2
 666 522 l 2
 671 515 674 507 674 499 c 0
 674 488 669 476 659 469 c 0
 652 464 644 461 636 461 c 0
 625 461 613 465 606 475 c 2
 474 645 l 1
 474 457 l 1
436 81 m 0
 520 81 588 149 588 233 c 0
 588 317 520 384 436 384 c 0
 352 384 284 317 284 233 c 0
 284 149 352 81 436 81 c 0
EndSplineSet
Validated: 1
Ligature2: "liga-2" u p i space
Ligature2: "liga-1" u p i
MultipleSubs2: "cc01-1" tiki.upi tiki.cartouchebody
LCarets2: 2 0 0
EndChar

StartChar: tiki.middledot
Encoding: 295 989596 39
Width: 872
Flags: W
LayerCount: 2
Fore
SplineSet
379 383 m 0
 379 414 405 440 436 440 c 0
 467 440 493 414 493 383 c 0
 493 352 467 326 436 326 c 0
 405 326 379 352 379 383 c 0
EndSplineSet
Validated: 1
Ligature2: "liga-2" period space
Ligature2: "liga-1" periodcentered
Ligature2: "liga-2" periodcentered space
Ligature2: "liga-1" period
MultipleSubs2: "cc01-1" tiki.middledot tiki.cartouchebody
EndChar

StartChar: tiki.colon
Encoding: 296 989597 40
Width: 872
Flags: W
LayerCount: 2
Fore
SplineSet
379 193 m 0
 379 224 405 250 436 250 c 0
 467 250 493 224 493 193 c 0
 493 162 467 136 436 136 c 0
 405 136 379 162 379 193 c 0
379 573 m 0
 379 604 405 630 436 630 c 0
 467 630 493 604 493 573 c 0
 493 542 467 516 436 516 c 0
 405 516 379 542 379 573 c 0
EndSplineSet
Validated: 1
Ligature2: "liga-2" colon space
Ligature2: "liga-1" colon
MultipleSubs2: "cc01-1" tiki.colon tiki.cartouchebody
EndChar

StartChar: zero
Encoding: 48 48 90
Width: 872
Flags: W
HStem: 4 76<367.949 503.69> 686 76<368.343 504.084>
VStem: 171 75<244.406 520.655> 626 76<245.345 521.594>
LayerCount: 2
Fore
SplineSet
436 762 m 0
 583 762 702 592 702 383 c 0
 702 174 583 4 436 4 c 0
 289 4 171 174 171 383 c 0
 171 592 289 762 436 762 c 0
436 686 m 0
 333 686 246 547 246 383 c 0
 246 320 259 260 281 211 c 1
 547 627 l 1
 516 664 477 686 436 686 c 0
436 80 m 0
 539 80 626 219 626 383 c 0
 626 446 613 506 591 555 c 1
 325 139 l 1
 356 102 395 80 436 80 c 0
EndSplineSet
Validated: 1
Ligature2: "liga-2" zero space
EndChar

StartChar: one
Encoding: 49 49 91
Width: 872
Flags: W
HStem: 5 21G<425.5 446.5> 5 21G<425.5 446.5>
VStem: 398 76<8.35475 648>
LayerCount: 2
Fore
SplineSet
216 520 m 0xa0
 205 520 193 525 186 535 c 0
 181 542 178 550 178 558 c 0
 178 569 183 581 193 588 c 2
 413 754 l 2
 415 756 417 757 419 758 c 0
 426 762 435 763 443 762 c 0
 445 762 447 761 449 760 c 0
 455 758 461 754 466 748 c 0
 468 746 469 743 470 741 c 0
 473 735 474 730 474 724 c 2
 474 43 l 2
 474 22 457 5 436 5 c 0
 415 5 398 22 398 43 c 2
 398 648 l 1
 239 528 l 2
 232 523 224 520 216 520 c 0xa0
EndSplineSet
Validated: 1
Ligature2: "liga-2" one space
EndChar

StartChar: two
Encoding: 50 50 92
Width: 872
Flags: W
HStem: 4 76<173.736 215.907 302 698.645> 686 76<297.988 554.54>
VStem: 624 76<541.385 634.643>
LayerCount: 2
Fore
SplineSet
209 4 m 2
 208 4 207 4 206 4 c 0
 201 4 196 6 191 8 c 0
 186 10 182 14 179 18 c 0
 176 22 173 26 172 31 c 0
 171 35 171 40 171 44 c 0
 171 50 172 55 175 60 c 0
 177 64 181 68 185 71 c 0
 186 72 186 73 187 73 c 0
 202 85 304 188 415 311 c 0
 604 521 622 573 624 580 c 0
 624 609 620 682 414 686 c 2
 413 686 l 2
 413 686 411 686 409 686 c 0
 389 686 296 684 237 626 c 0
 230 619 220 615 210 615 c 0
 200 615 190 618 183 626 c 0
 176 633 172 643 172 653 c 0
 172 663 176 673 184 680 c 0
 263 757 377 762 409 762 c 0
 413 762 415 762 416 762 c 0
 580 758 700 710 700 577 c 0
 700 555 695 508 474 263 c 0
 417 200 352 131 302 80 c 1
 664 80 l 2
 685 80 702 63 702 42 c 0
 702 21 685 4 664 4 c 2
 209 4 l 2
EndSplineSet
Validated: 1
Ligature2: "liga-2" two space
EndChar

StartChar: three
Encoding: 51 51 93
Width: 872
Flags: W
HStem: 4 76<297.988 553.188> 686 76<295.737 554.874>
VStem: 624 76<130.301 223.067 542.933 636.496>
LayerCount: 2
Fore
SplineSet
409 4 m 0
 377 4 263 9 184 86 c 0
 176 93 172 103 172 113 c 0
 172 123 176 133 183 140 c 0
 190 148 200 151 210 151 c 0
 220 151 230 147 237 140 c 0
 296 83 388 80 409 80 c 0
 412 80 413 80 413 80 c 2
 414 80 l 1
 622 84 624 159 624 188 c 0
 624 201 606 241 441 336 c 0
 429 343 421 348 416 351 c 0
 413 353 411 355 409 357 c 0
 406 360 403 363 401 367 c 0
 399 372 398 379 398 384 c 0
 398 389 399 393 401 398 c 0
 403 402 405 406 409 410 c 0
 411 412 414 414 416 415 c 0
 421 418 429 423 441 430 c 0
 606 525 624 565 624 578 c 0
 624 607 622 682 414 686 c 1
 413 686 l 2
 413 686 411 686 409 686 c 0
 389 686 296 684 237 626 c 0
 230 619 220 615 210 615 c 0
 200 615 190 618 183 626 c 0
 176 633 172 643 172 653 c 0
 172 663 176 673 184 680 c 0
 263 757 378 762 409 762 c 0
 413 762 415 762 416 762 c 0
 569 759 700 716 700 578 c 0
 700 509 613 444 511 383 c 1
 613 322 700 257 700 188 c 0
 700 92 636 9 416 4 c 0
 415 4 413 4 409 4 c 0
EndSplineSet
Validated: 1
Ligature2: "liga-2" three space
EndChar

StartChar: four
Encoding: 52 52 94
Width: 872
Flags: W
HStem: 4 21G<520.5 541.5> 4 21G<520.5 541.5> 345 76<279 493 569 698.645> 742 20G<430 439.5> 742 20G<430 439.5>
VStem: 493 76<7.35475 345 421 588.645>
LayerCount: 2
Fore
SplineSet
531 4 m 0xb4
 510 4 493 21 493 42 c 2
 493 345 l 1
 209 345 l 2
 208 345 l 0
 204 345 201 346 197 347 c 0
 193 348 189 350 185 353 c 0
 181 356 177 361 175 366 c 0
 173 370 171 375 171 380 c 0
 171 385 171 389 172 394 c 0
 173 398 175 401 177 404 c 2
 405 745 l 2
 412 756 424 762 436 762 c 0
 443 762 451 760 457 756 c 0
 468 749 474 736 474 724 c 0
 474 717 472 709 468 703 c 2
 279 421 l 1
 493 421 l 1
 493 554 l 2
 493 575 510 592 531 592 c 0
 552 592 569 575 569 554 c 2
 569 421 l 1
 664 421 l 2
 685 421 702 404 702 383 c 0
 702 362 685 345 664 345 c 2
 569 345 l 1
 569 42 l 2
 569 21 552 4 531 4 c 0xb4
EndSplineSet
Validated: 1
Ligature2: "liga-2" four space
EndChar

StartChar: five
Encoding: 53 53 95
Width: 872
Flags: W
HStem: 4 76<298.988 553.346> 383 76<248.273 507.692> 686 76<247 660.819>
VStem: 171 76<461.816 686> 625 76<129.344 264.333>
LayerCount: 2
Fore
SplineSet
417 4 m 0
 416 4 414 4 410 4 c 0
 378 4 264 9 185 86 c 0
 177 93 173 103 173 113 c 0
 173 123 177 133 184 140 c 0
 191 148 201 151 211 151 c 0
 221 151 231 147 238 140 c 0
 297 83 389 80 410 80 c 0
 413 80 414 80 414 80 c 2
 415 80 l 2
 624 84 625 160 625 188 c 0
 625 189 l 0
 625 245 595 280 575 303 c 0
 573 305 572 307 570 309 c 0
 569 310 509 383 437 383 c 2
 285 383 l 2
 280 383 233 384 200 416 c 0
 181 435 171 460 171 489 c 0
 171 490 l 2
 171 724 l 2
 171 745 188 762 209 762 c 2
 627 762 l 2
 648 762 664 745 664 724 c 0
 664 703 648 686 627 686 c 2
 247 686 l 1
 247 490 l 2
 247 464 271 459 285 459 c 2
 437 459 l 2
 545 459 625 361 628 357 c 0
 629 356 631 354 633 352 c 0
 657 324 701 273 701 189 c 0
 701 104 652 9 417 4 c 0
EndSplineSet
Validated: 1
Ligature2: "liga-2" five space
EndChar

StartChar: six
Encoding: 54 54 96
Width: 872
Flags: W
HStem: 4 76<337.469 533.856> 383 76<337.967 533.856> 686 76<309.467 566.263>
VStem: 162 76<382 634.792> 626 76<162.812 299.34>
LayerCount: 2
Fore
SplineSet
436 80 m 0
 541 80 626 147 626 231 c 0
 626 315 541 383 436 383 c 0
 331 383 246 315 246 231 c 0
 246 215 249 200 255 185 c 0
 256 184 257 183 257 182 c 0
 283 123 353 80 436 80 c 0
436 459 m 0
 582 459 702 356 702 231 c 0
 702 106 582 4 436 4 c 0
 325 4 230 63 190 146 c 1
 172 167 161 221 161 454 c 0
 161 484 162 515 162 551 c 0
 162 562 162 572 162 579 c 0
 163 697 258 758 446 762 c 0
 447 762 449 762 453 762 c 0
 484 762 599 757 678 680 c 0
 686 673 690 663 690 653 c 0
 690 643 686 633 679 626 c 0
 672 618 662 615 652 615 c 0
 642 615 632 619 625 626 c 0
 566 684 473 686 453 686 c 0
 451 686 449 686 449 686 c 2
 448 686 l 2
 239 682 238 606 238 578 c 0
 238 571 238 562 238 551 c 0
 238 517 237 485 237 457 c 0
 237 430 238 404 238 382 c 1
 287 429 357 459 436 459 c 0
EndSplineSet
Validated: 1
Ligature2: "liga-2" six space
EndChar

StartChar: seven
Encoding: 55 55 97
Width: 872
Flags: W
HStem: 4 21G<319 329> 4 21G<319 329> 686 76<174.355 602>
LayerCount: 2
Fore
SplineSet
322 4 m 0xa0
 316 4 310 5 305 8 c 0
 292 15 284 28 284 42 c 0
 284 48 285 54 288 59 c 2
 602 686 l 1
 209 686 l 2
 188 686 171 703 171 724 c 0
 171 745 188 762 209 762 c 2
 664 762 l 2
 684 762 700 747 701 727 c 0
 701 720 701 713 698 707 c 2
 356 25 l 2x60
 349 12 336 4 322 4 c 0xa0
EndSplineSet
Validated: 1
Ligature2: "liga-2" seven space
EndChar

StartChar: eight
Encoding: 56 56 98
Width: 872
Flags: W
HStem: 4 76<338.213 533.856> 383 76<345.72 526.28> 686 76<347.892 524.187>
VStem: 171 75<162.812 300.428> 209 75<513.227 629.828> 588 76<513.227 629.828> 626 76<162.812 300.428>
LayerCount: 2
Fore
SplineSet
578 424 m 1xec
 652 384 702 312 702 231 c 0
 702 106 582 4 436 4 c 0
 290 4 171 106 171 231 c 0xf2
 171 312 220 384 294 424 c 1
 242 459 209 512 209 572 c 0
 209 677 311 762 436 762 c 0
 561 762 664 677 664 572 c 0
 664 512 630 459 578 424 c 1xec
284 572 m 0xec
 284 512 345 464 423 459 c 0
 427 459 432 458 436 458 c 0
 440 458 445 459 449 459 c 0
 527 464 588 512 588 572 c 0
 588 635 520 686 436 686 c 0
 352 686 284 635 284 572 c 0xec
436 80 m 0
 541 80 626 147 626 231 c 0
 626 311 548 378 449 383 c 0
 445 383 440 383 436 383 c 0
 432 383 427 383 423 383 c 0
 324 378 246 311 246 231 c 0xf2
 246 147 331 80 436 80 c 0
EndSplineSet
Validated: 1
Ligature2: "liga-2" eight space
EndChar

StartChar: nine
Encoding: 57 57 99
Width: 872
Flags: W
HStem: 4 76<299.311 553.533> 307 76<329.144 524.896> 686 76<329.144 525.531>
VStem: 161 76<466.66 603.188> 625 76<131.208 384>
LayerCount: 2
Fore
SplineSet
427 686 m 0
 322 686 237 619 237 535 c 0
 237 451 322 383 427 383 c 0
 532 383 616 451 616 535 c 0
 616 551 613 566 607 581 c 1
 606 582 606 583 606 584 c 0
 606 585 l 0
 580 644 510 686 427 686 c 0
427 307 m 0
 281 307 161 410 161 535 c 0
 161 660 281 762 427 762 c 0
 538 762 633 703 673 620 c 1
 691 599 702 545 702 312 c 0
 702 282 701 251 701 215 c 0
 701 204 701 194 701 187 c 0
 700 69 605 8 417 4 c 0
 416 4 414 4 410 4 c 0
 379 4 264 9 185 86 c 0
 177 93 173 103 173 113 c 0
 173 123 177 133 184 140 c 0
 191 148 201 151 211 151 c 0
 221 151 231 148 238 141 c 0
 297 83 390 80 410 80 c 0
 412 80 414 80 414 80 c 2
 415 80 l 2
 624 84 625 160 625 188 c 0
 625 195 625 204 625 215 c 0
 625 249 626 281 626 309 c 0
 626 336 625 362 625 384 c 1
 576 337 506 307 427 307 c 0
EndSplineSet
Validated: 1
Ligature2: "liga-2" nine space
EndChar

StartChar: A
Encoding: 65 65 107
Width: 872
VWidth: 1100
Flags: W
HStem: 4 21G<198.5 219.5 653.5 674.5> 4 21G<198.5 219.5 653.5 674.5> 345 76<246 626> 686 76<350.358 521.695>
VStem: 171 75<7.35475 345 421 582.749> 626 76<7.35475 345 421 582.749>
LayerCount: 2
Fore
SplineSet
702 498 m 0xbc
 702 497 l 2
 702 42 l 2
 702 21 685 4 664 4 c 0
 643 4 626 21 626 42 c 2
 626 345 l 1
 246 345 l 1
 246 42 l 2
 246 21 230 4 209 4 c 0
 188 4 171 21 171 42 c 2
 171 497 l 2
 171 498 l 0
 172 644 290 762 436 762 c 0
 582 762 701 644 702 498 c 0xbc
246 421 m 2
 626 421 l 1
 626 497 l 2
 626 602 541 686 436 686 c 0
 331 686 246 602 246 497 c 2
 246 421 l 2
EndSplineSet
Validated: 1
MultipleSubs2: "cc01-1" A tiki.cartouchebody
EndChar

StartChar: B
Encoding: 66 66 108
Width: 872
VWidth: 1100
Flags: W
HStem: 4 76<246 565.567> 345 76<246 479.19> 686 76<246 480.445>
VStem: 171 75<80 345 421 686> 540 76<480.815 626.65> 626 76<140.677 284.493>
CounterMasks: 1 e0
LayerCount: 2
Fore
SplineSet
559 410 m 1
 642 382 702 304 702 212 c 0
 702 97 609 5 494 4 c 0
 493 4 l 2
 209 4 l 2
 188 4 171 21 171 42 c 2
 171 724 l 2
 171 745 188 762 209 762 c 2
 408 762 l 2
 409 762 l 0
 524 761 616 669 616 554 c 0
 616 498 594 447 559 410 c 1
540 554 m 0
 540 627 481 686 408 686 c 2
 246 686 l 1
 246 421 l 1
 408 421 l 2
 481 421 540 481 540 554 c 0
493 80 m 2
 566 80 626 139 626 212 c 0
 626 285 566 345 493 345 c 2
 246 345 l 1
 246 80 l 1
 493 80 l 2
EndSplineSet
Validated: 1
MultipleSubs2: "cc01-1" B tiki.cartouchebody
EndChar

StartChar: C
Encoding: 67 67 109
Width: 872
VWidth: 1100
Flags: W
HStem: 4 76<372.102 540.171> 686 76<372.102 540.171>
VStem: 152 75<255.478 510.522>
LayerCount: 2
Fore
SplineSet
675 118 m 0
 618 44 540 4 457 4 c 0
 456 4 l 0
 455 4 l 0
 372 4 295 44 238 118 c 0
 182 189 152 283 152 383 c 0
 152 483 182 577 238 648 c 0
 295 722 372 762 455 762 c 0
 456 762 l 0
 457 762 l 0
 540 762 618 722 675 648 c 0
 680 641 683 632 683 624 c 0
 683 613 678 601 668 594 c 0
 661 589 653 586 645 586 c 0
 634 586 622 591 615 601 c 0
 572 656 515 686 456 686 c 0
 397 686 341 656 298 601 c 0
 253 543 227 466 227 383 c 0
 227 300 253 223 298 165 c 0
 341 110 397 80 456 80 c 0
 515 80 572 110 615 165 c 0
 622 175 634 180 645 180 c 0
 653 180 661 177 668 172 c 0
 678 165 683 153 683 142 c 0
 683 134 680 125 675 118 c 0
EndSplineSet
Validated: 1
MultipleSubs2: "cc01-1" C tiki.cartouchebody
EndChar

StartChar: D
Encoding: 68 68 110
Width: 872
VWidth: 1100
Flags: W
HStem: 4 76<246 433.1> 686 76<246 433.1>
VStem: 171 75<80 686> 626 76<271.226 494.774>
LayerCount: 2
Fore
SplineSet
322 762 m 2
 531 762 702 592 702 383 c 0
 702 174 531 4 322 4 c 2
 209 4 l 2
 188 4 171 21 171 42 c 2
 171 724 l 2
 171 745 188 762 209 762 c 2
 322 762 l 2
322 80 m 2
 489 80 626 216 626 383 c 0
 626 550 489 686 322 686 c 2
 246 686 l 1
 246 80 l 1
 322 80 l 2
EndSplineSet
Validated: 1
MultipleSubs2: "cc01-1" D tiki.cartouchebody
EndChar

StartChar: E
Encoding: 69 69 111
Width: 872
VWidth: 1100
Flags: W
HStem: 4 76<246 698.645> 345 76<246 584.645> 686 76<246 698.645>
VStem: 171 75<80 345 421 686>
CounterMasks: 1 e0
LayerCount: 2
Fore
SplineSet
702 42 m 0
 702 21 685 4 664 4 c 2
 209 4 l 2
 188 4 171 21 171 42 c 2
 171 724 l 2
 171 745 188 762 209 762 c 2
 664 762 l 2
 685 762 702 745 702 724 c 0
 702 703 685 686 664 686 c 2
 246 686 l 1
 246 421 l 1
 550 421 l 2
 571 421 588 404 588 383 c 0
 588 362 571 345 550 345 c 2
 246 345 l 1
 246 80 l 1
 664 80 l 2
 685 80 702 63 702 42 c 0
EndSplineSet
Validated: 1
MultipleSubs2: "cc01-1" E tiki.cartouchebody
EndChar

StartChar: F
Encoding: 70 70 112
Width: 872
VWidth: 1100
Flags: W
HStem: 4 21G<198.5 219.5> 4 21G<198.5 219.5> 345 76<246 584.645> 686 76<246 698.645>
VStem: 171 75<7.35475 345 421 686>
LayerCount: 2
Fore
SplineSet
702 724 m 0xb8
 702 703 685 686 664 686 c 2
 246 686 l 1
 246 421 l 1
 550 421 l 2
 571 421 588 404 588 383 c 0
 588 362 571 345 550 345 c 2
 246 345 l 1
 246 42 l 2
 246 21 230 4 209 4 c 0
 188 4 171 21 171 42 c 2
 171 724 l 2
 171 745 188 762 209 762 c 2
 664 762 l 2
 685 762 702 745 702 724 c 0xb8
EndSplineSet
Validated: 1
MultipleSubs2: "cc01-1" F tiki.cartouchebody
EndChar

StartChar: G
Encoding: 71 71 113
Width: 872
VWidth: 1100
Flags: W
HStem: 4 76<391.102 560.51> 345 76<440.355 626> 686 76<391.102 559.171>
VStem: 171 75<253.339 512.661> 626 76<133.727 345>
CounterMasks: 1 e0
LayerCount: 2
Fore
SplineSet
702 383 m 2
 702 142 l 1
 702 140 l 2
 702 139 701 138 701 137 c 2
 701 136 l 2
 701 135 700 133 700 132 c 0
 700 131 700 132 700 131 c 2
 700 130 l 1
 699 128 l 1
 698 127 l 1
 698 125 l 1
 697 124 l 1
 696 122 l 1
 695 121 l 1
 695 120 l 1
 694 120 l 1
 694 118 l 1
 693 118 l 1
 636 45 558 4 476 4 c 2
 475 4 l 1
 474 4 l 2
 391 4 314 44 257 118 c 0
 201 189 171 283 171 383 c 0
 171 483 201 577 257 648 c 0
 314 722 391 762 474 762 c 2
 475 762 l 1
 476 762 l 2
 559 762 637 722 694 648 c 0
 699 641 702 632 702 624 c 0
 702 613 697 601 687 594 c 0
 680 589 672 586 664 586 c 0
 653 586 641 591 634 601 c 0
 591 656 534 686 475 686 c 0
 416 686 359 656 316 601 c 0
 271 543 246 466 246 383 c 0
 246 300 271 223 316 165 c 0
 359 110 416 80 475 80 c 0
 531 80 584 106 626 155 c 1
 626 345 l 1
 475 345 l 2
 454 345 437 362 437 383 c 0
 437 404 454 421 475 421 c 2
 664 421 l 2
 685 421 702 404 702 383 c 2
EndSplineSet
Validated: 1
MultipleSubs2: "cc01-1" G tiki.cartouchebody
EndChar

StartChar: H
Encoding: 72 72 114
Width: 872
VWidth: 1100
Flags: W
HStem: 4 21G<198.5 219.5 653.5 674.5> 4 21G<198.5 219.5 653.5 674.5> 345 76<246 626> 742 20G<198.5 219.5 653.5 674.5> 742 20G<198.5 219.5 653.5 674.5>
VStem: 171 75<7.35475 345 421 758.645> 626 76<7.35475 345 421 758.645>
LayerCount: 2
Fore
SplineSet
702 724 m 2xb6
 702 42 l 2
 702 21 685 4 664 4 c 0
 643 4 626 21 626 42 c 2
 626 345 l 1
 246 345 l 1
 246 42 l 2
 246 21 230 4 209 4 c 0
 188 4 171 21 171 42 c 2
 171 724 l 2
 171 745 188 762 209 762 c 0
 230 762 246 745 246 724 c 2
 246 421 l 1
 626 421 l 1
 626 724 l 2
 626 745 643 762 664 762 c 0
 685 762 702 745 702 724 c 2xb6
EndSplineSet
Validated: 1
MultipleSubs2: "cc01-1" H tiki.cartouchebody
EndChar

StartChar: I
Encoding: 73 73 115
Width: 872
VWidth: 1100
Flags: W
HStem: 4 76<174.355 398 474 698.645> 686 76<174.355 398 474 698.645>
VStem: 398 76<80 686>
LayerCount: 2
Fore
SplineSet
702 42 m 0
 702 21 685 4 664 4 c 2
 209 4 l 2
 188 4 171 21 171 42 c 0
 171 63 188 80 209 80 c 2
 398 80 l 1
 398 686 l 1
 209 686 l 2
 188 686 171 703 171 724 c 0
 171 745 188 762 209 762 c 2
 664 762 l 2
 685 762 702 745 702 724 c 0
 702 703 685 686 664 686 c 2
 474 686 l 1
 474 80 l 1
 664 80 l 2
 685 80 702 63 702 42 c 0
EndSplineSet
Validated: 1
MultipleSubs2: "cc01-1" I tiki.cartouchebody
EndChar

StartChar: J
Encoding: 74 74 116
Width: 872
VWidth: 1100
Flags: W
HStem: 4 76<350.309 521.695> 742 20G<653.5 674.5> 742 20G<653.5 674.5>
VStem: 171 75<184.144 303.645> 626 76<183.251 758.645>
LayerCount: 2
Fore
SplineSet
702 724 m 2xd8
 702 269 l 2
 702 268 l 0
 701 122 582 4 436 4 c 0
 290 4 171 123 171 269 c 0
 171 290 188 307 209 307 c 0
 230 307 246 290 246 269 c 0
 246 164 331 80 436 80 c 0
 541 80 626 164 626 269 c 2
 626 724 l 2
 626 745 643 762 664 762 c 0
 685 762 702 745 702 724 c 2xd8
EndSplineSet
Validated: 1
MultipleSubs2: "cc01-1" J tiki.cartouchebody
EndChar

StartChar: K
Encoding: 75 75 117
Width: 872
VWidth: 1100
Flags: W
HStem: 4 21G<198.5 219.5 660 670> 4 21G<198.5 219.5 660 670> 742 20G<198.5 219.5 660 670> 742 20G<198.5 219.5 660 670>
VStem: 171 75<7.35475 307 459 758.645>
LayerCount: 2
Fore
SplineSet
686 72 m 2xa8
 696 65 702 54 702 42 c 0
 702 34 699 26 694 19 c 0
 687 9 676 4 664 4 c 0
 656 4 648 6 641 11 c 2
 246 307 l 1
 246 42 l 2
 246 21 230 4 209 4 c 0
 188 4 171 21 171 42 c 2
 171 724 l 2
 171 745 188 762 209 762 c 0
 230 762 246 745 246 724 c 2
 246 459 l 1
 641 755 l 2
 648 760 656 762 664 762 c 0
 676 762 687 757 694 747 c 0
 699 740 702 732 702 724 c 0
 702 712 696 701 686 694 c 2
 272 383 l 1
 686 72 l 2xa8
EndSplineSet
Validated: 1
MultipleSubs2: "cc01-1" K tiki.cartouchebody
EndChar

StartChar: L
Encoding: 76 76 118
Width: 872
VWidth: 1100
Flags: W
HStem: 4 76<246 698.645> 742 20G<198.5 219.5> 742 20G<198.5 219.5>
VStem: 171 75<80 758.645>
LayerCount: 2
Fore
SplineSet
702 42 m 0xd0
 702 21 685 4 664 4 c 2
 209 4 l 2
 188 4 171 21 171 42 c 2
 171 724 l 2
 171 745 188 762 209 762 c 0
 230 762 246 745 246 724 c 2
 246 80 l 1
 664 80 l 2
 685 80 702 63 702 42 c 0xd0
EndSplineSet
Validated: 1
MultipleSubs2: "cc01-1" L tiki.cartouchebody
EndChar

StartChar: M
Encoding: 77 77 119
Width: 872
VWidth: 1100
Flags: W
HStem: 4 21G<198.5 219.5 653.5 674.5> 4 21G<198.5 219.5 653.5 674.5> 742 20G<197.5 214> 742 20G<197.5 214>
VStem: 171 75<7.35475 633> 626 76<7.35475 633>
LayerCount: 2
Fore
SplineSet
171 724 m 2x9c
 171 745 187 762 208 762 c 0
 209 762 211 762 212 762 c 0xac
 216 762 226 760 236 750 c 2
 436 550 l 1
 554 668 637 751 639 753 c 0
 645 758 656 764 668 762 c 0
 671 762 689 759 698 740 c 0
 700 736 702 731 702 724 c 2
 702 42 l 2
 702 21 685 4 664 4 c 0
 643 4 626 21 626 42 c 2
 626 633 l 1
 463 470 l 2
 456 463 446 459 436 459 c 0
 426 459 416 463 409 470 c 2
 246 633 l 1
 246 42 l 2
 246 21 230 4 209 4 c 0
 188 4 171 21 171 42 c 2
 171 724 l 2x9c
EndSplineSet
Validated: 1
MultipleSubs2: "cc01-1" M tiki.cartouchebody
EndChar

StartChar: N
Encoding: 78 78 120
Width: 872
VWidth: 1100
Flags: W
HStem: 4 21G<198.5 219.5 661 673.5> 4 21G<198.5 219.5 661 673.5> 742 20G<198 212.5 653.5 674.5> 742 20G<198 212.5 653.5 674.5>
VStem: 171 75<7.35475 599> 626 76<167 758.645>
LayerCount: 2
Fore
SplineSet
171 724 m 2xac
 171 746 188 762 208 762 c 0
 217 762 231 760 241 745 c 2
 626 167 l 1
 626 724 l 2
 626 745 643 762 664 762 c 0
 685 762 702 745 702 724 c 2
 702 42 l 2
 702 41 l 2
 701 20 684 4 663 4 c 0
 659 4 643 4 632 21 c 2
 246 599 l 1
 246 42 l 2
 246 21 230 4 209 4 c 0
 188 4 171 21 171 42 c 2
 171 724 l 2xac
EndSplineSet
Validated: 1
MultipleSubs2: "cc01-1" N tiki.cartouchebody
EndChar

StartChar: O
Encoding: 79 79 121
Width: 872
VWidth: 1100
Flags: W
HStem: 4 76<368.343 503.69> 686 76<368.343 503.69>
VStem: 171 75<245.345 520.655> 626 76<245.345 520.655>
LayerCount: 2
Fore
SplineSet
436 762 m 0
 583 762 702 592 702 383 c 0
 702 174 583 4 436 4 c 0
 289 4 171 174 171 383 c 0
 171 592 289 762 436 762 c 0
436 686 m 0
 333 686 246 547 246 383 c 0
 246 219 333 80 436 80 c 0
 539 80 626 219 626 383 c 0
 626 547 539 686 436 686 c 0
EndSplineSet
Validated: 1
MultipleSubs2: "cc01-1" O tiki.cartouchebody
EndChar

StartChar: P
Encoding: 80 80 122
Width: 872
VWidth: 1100
Flags: W
HStem: 4 21G<198.5 219.5> 4 21G<198.5 219.5> 345 76<246 564.485> 686 76<246 565.567>
VStem: 171 75<7.35475 345 421 686> 626 76<482.469 625.323>
LayerCount: 2
Fore
SplineSet
494 762 m 0xbc
 609 761 702 669 702 554 c 0
 702 439 609 346 494 345 c 0
 493 345 l 2
 246 345 l 1
 246 42 l 2
 246 21 230 4 209 4 c 0
 188 4 171 21 171 42 c 2
 171 724 l 2
 171 745 188 762 209 762 c 2
 493 762 l 2
 494 762 l 0xbc
493 421 m 2
 566 421 626 481 626 554 c 0
 626 627 566 686 493 686 c 2
 246 686 l 1
 246 421 l 1
 493 421 l 2
EndSplineSet
Validated: 1
MultipleSubs2: "cc01-1" P tiki.cartouchebody
EndChar

StartChar: Q
Encoding: 81 81 123
Width: 872
VWidth: 1100
Flags: W
HStem: 4 76<368.343 505.471> 4 21G<659 669> 686 76<368.343 503.69>
VStem: 171 75<245.345 520.655> 626 76<243.113 520.655>
LayerCount: 2
Fore
SplineSet
632 127 m 1xb8
 690 68 l 2
 697 61 702 52 702 42 c 0
 702 32 697 22 690 15 c 0
 683 8 674 4 664 4 c 0x78
 654 4 644 8 637 15 c 2
 584 68 l 1
 542 28 491 4 436 4 c 0
 289 4 171 174 171 383 c 0
 171 592 289 762 436 762 c 0
 583 762 702 592 702 383 c 0
 702 284 675 194 632 127 c 1xb8
436 80 m 0xb8
 470 80 502 95 530 121 c 1
 409 242 l 2
 402 249 398 259 398 269 c 0
 398 279 402 289 409 296 c 0
 416 303 426 307 436 307 c 0
 446 307 456 303 463 296 c 2
 577 182 l 1
 607 236 626 307 626 383 c 0
 626 547 539 686 436 686 c 0
 333 686 246 547 246 383 c 0
 246 219 333 80 436 80 c 0xb8
EndSplineSet
Validated: 1
MultipleSubs2: "cc01-1" Q tiki.cartouchebody
EndChar

StartChar: R
Encoding: 82 82 124
Width: 872
VWidth: 1100
Flags: W
HStem: 4 21G<198.5 219.5 659.5 669> 4 21G<198.5 219.5 659.5 669> 345 76<246 270 383 564.485> 686 76<246 565.567>
VStem: 171 75<7.35475 345 421 686> 626 76<482.469 625.323>
LayerCount: 2
Fore
SplineSet
689 70 m 2xbc
 697 63 702 52 702 42 c 0
 702 33 699 23 692 16 c 0
 685 8 674 4 664 4 c 0
 655 4 645 6 638 13 c 2
 270 345 l 1
 246 345 l 1
 246 42 l 2
 246 21 230 4 209 4 c 0
 188 4 171 21 171 42 c 2
 171 724 l 2
 171 745 188 762 209 762 c 2
 493 762 l 2
 494 762 l 0
 609 761 702 669 702 554 c 0
 702 439 609 346 494 345 c 0
 493 345 l 2
 383 345 l 1
 689 70 l 2xbc
626 554 m 0
 626 627 566 686 493 686 c 2
 246 686 l 1
 246 421 l 1
 493 421 l 2
 566 421 626 481 626 554 c 0
EndSplineSet
Validated: 1
MultipleSubs2: "cc01-1" R tiki.cartouchebody
EndChar

StartChar: S
Encoding: 83 83 125
Width: 872
VWidth: 1100
Flags: W
HStem: 4 76<297.988 412.999 413 553.188> 686 76<316.683 576.449>
VStem: 172 76<543.089 634.792> 624 76<130.499 223.118>
LayerCount: 2
Fore
SplineSet
416 4 m 0
 415 4 413 4 409 4 c 0
 377 4 263 9 184 86 c 0
 176 93 172 103 172 113 c 0
 172 123 176 133 183 140 c 0
 190 148 200 151 210 151 c 0
 220 151 230 147 237 140 c 0
 296 82 392 79 410 79 c 0
 412 79 413 80 413 80 c 1
 414 80 l 1
 623 84 624 160 624 188 c 0
 624 201 606 241 441 336 c 0
 429 343 420 347 415 351 c 0
 412 353 403 359 394 364 c 0
 279 430 172 502 172 578 c 2
 172 579 l 2
 173 697 269 758 456 762 c 0
 457 762 459 762 463 762 c 0
 494 762 609 757 688 680 c 0
 696 673 700 663 700 653 c 0
 700 643 696 633 689 626 c 0
 682 618 672 615 662 615 c 0
 652 615 642 619 635 626 c 0
 576 684 484 686 463 686 c 0
 460 686 459 686 459 686 c 1
 458 686 l 1
 249 682 248 606 248 578 c 0
 248 565 266 525 431 430 c 0
 443 423 452 419 457 415 c 0
 460 413 470 407 479 402 c 0
 594 336 700 264 700 188 c 0
 700 92 636 9 416 4 c 0
EndSplineSet
Validated: 1
MultipleSubs2: "cc01-1" S tiki.cartouchebody
EndChar

StartChar: T
Encoding: 84 84 126
Width: 872
VWidth: 1100
Flags: W
HStem: 4 21G<425.5 446.5> 4 21G<425.5 446.5> 686 76<174.355 398 474 698.645>
VStem: 398 76<7.35475 686>
LayerCount: 2
Fore
SplineSet
702 724 m 0xb0
 702 703 685 686 664 686 c 2
 474 686 l 1
 474 42 l 2
 474 21 457 4 436 4 c 0
 415 4 398 21 398 42 c 2
 398 686 l 1
 209 686 l 2
 188 686 171 703 171 724 c 0
 171 745 188 762 209 762 c 2
 664 762 l 2
 685 762 702 745 702 724 c 0xb0
EndSplineSet
Validated: 1
MultipleSubs2: "cc01-1" T tiki.cartouchebody
EndChar

StartChar: U
Encoding: 85 85 127
Width: 872
VWidth: 1100
Flags: W
HStem: 4 76<350.358 521.695> 742 20G<198.5 219.5 653.5 674.5> 742 20G<198.5 219.5 653.5 674.5>
VStem: 171 75<183.251 758.645> 626 76<183.251 758.645>
LayerCount: 2
Fore
SplineSet
702 724 m 2xd8
 702 269 l 2
 702 268 l 0
 701 122 582 4 436 4 c 0
 290 4 172 122 171 268 c 0
 171 269 l 2
 171 724 l 2
 171 745 188 762 209 762 c 0
 230 762 246 745 246 724 c 2
 246 269 l 2
 246 164 331 80 436 80 c 0
 541 80 626 164 626 269 c 2
 626 724 l 2
 626 745 643 762 664 762 c 0
 685 762 702 745 702 724 c 2xd8
EndSplineSet
Validated: 1
MultipleSubs2: "cc01-1" U tiki.cartouchebody
EndChar

StartChar: V
Encoding: 86 86 128
Width: 872
VWidth: 1100
Flags: W
HStem: 4 21G<436 442.5> 4 21G<436 442.5> 742 20G<207 217 656 666> 742 20G<207 217 656 666>
VStem: 171 73<736 758.618> 628 74<736 758.618>
LayerCount: 2
Fore
SplineSet
472 30 m 2xac
 466 11 449 4 436 4 c 0
 436 4 425 4 419 8 c 0
 410 12 406 19 403 24 c 0
 403 24 401 27 400 30 c 2
 173 712 l 2
 172 716 171 720 171 724 c 0
 171 740 181 755 197 760 c 0
 201 761 205 762 209 762 c 0
 225 762 239 752 244 736 c 2
 436 162 l 1
 628 736 l 2
 633 752 648 762 664 762 c 0
 668 762 672 761 676 760 c 0
 692 755 702 740 702 724 c 0
 702 720 701 716 700 712 c 2
 472 30 l 2xac
EndSplineSet
Validated: 1
MultipleSubs2: "cc01-1" V tiki.cartouchebody
EndChar

StartChar: W
Encoding: 87 87 129
Width: 872
VWidth: 1100
Flags: W
HStem: 4 21G<316.5 329.5 548.5 555> 4 21G<316.5 329.5 548.5 555> 742 20G<192.5 218 655 679.5> 742 20G<192.5 218 655 679.5>
VStem: 171 75<687.829 758.922>
LayerCount: 2
Fore
SplineSet
322 4 m 2xa8
 322 4 322 4 321 4 c 2
 320 4 l 2
 313 4 289 10 285 36 c 2
 171 718 l 2
 171 720 171 722 171 724 c 0
 171 742 183 759 202 762 c 0
 204 762 207 762 209 762 c 0
 227 762 243 750 246 731 c 2
 334 201 l 1
 397 395 l 2
 397 396 399 398 401 402 c 0
 405 411 417 418 422 419 c 0
 435 423 444 419 445 419 c 0
 454 416 464 409 469 394 c 2
 537 196 l 1
 626 731 l 2
 629 750 646 762 664 762 c 0
 666 762 668 762 670 762 c 0
 689 759 702 742 702 724 c 0
 702 722 701 720 701 718 c 0
 587 32 587 32 586 30 c 0
 584 25 580 15 569 9 c 0
 567 8 560 4 550 4 c 0
 547 4 523 4 514 30 c 2
 434 263 l 1
 425 233 366 55 358 30 c 0
 357 28 357 27 357 27 c 0
 351 13 337 4 322 4 c 2xa8
EndSplineSet
Validated: 1
MultipleSubs2: "cc01-1" W tiki.cartouchebody
EndChar

StartChar: X
Encoding: 88 88 130
Width: 872
VWidth: 1100
Flags: W
HStem: 4 21G<204.5 214 658 667.5> 4 21G<204.5 214 658 667.5> 742 20G<204.5 214 658 667.5> 742 20G<204.5 214 658 667.5>
LayerCount: 2
Fore
SplineSet
695 63 m 2xa0
 699 57 702 49 702 42 c 0
 702 30 696 17 685 10 c 0
 679 6 671 4 664 4 c 0
 652 4 639 10 632 21 c 2
 436 315 l 1
 240 21 l 2
 233 10 220 4 208 4 c 0
 201 4 193 6 187 10 c 0
 176 17 171 30 171 42 c 0
 171 49 173 57 177 63 c 2
 390 383 l 1
 177 703 l 2
 173 709 171 717 171 724 c 0
 171 736 176 749 187 756 c 0
 193 760 201 762 208 762 c 0
 220 762 233 756 240 745 c 2
 436 451 l 1
 632 745 l 2
 639 756 652 762 664 762 c 0
 671 762 679 760 685 756 c 0
 696 749 702 736 702 724 c 0
 702 717 699 709 695 703 c 2
 482 383 l 1
 695 63 l 2xa0
EndSplineSet
Validated: 1
MultipleSubs2: "cc01-1" X tiki.cartouchebody
EndChar

StartChar: Y
Encoding: 89 89 131
Width: 872
VWidth: 1100
Flags: W
HStem: 4 21G<425.5 448> 4 21G<425.5 448> 742 20G<204.5 214 657.5 667> 742 20G<204.5 214 657.5 667>
VStem: 398 76<7.74496 372>
LayerCount: 2
Fore
SplineSet
474 372 m 1xa8
 474 42 l 2
 474 23 458 5 438 4 c 0
 437 4 437 4 436 4 c 0
 415 4 398 21 398 42 c 2
 398 371 l 0
 398 372 l 1
 177 703 l 2
 173 710 170 717 170 724 c 0
 170 736 176 749 187 756 c 0
 193 760 201 762 208 762 c 0
 220 762 233 756 240 745 c 2
 436 451 l 1
 632 745 l 2
 639 756 651 762 664 762 c 0
 670 762 677 760 683 757 c 0
 695 750 701 737 701 724 c 0
 701 717 699 709 695 703 c 2
 474 372 l 1xa8
EndSplineSet
Validated: 1
MultipleSubs2: "cc01-1" Y tiki.cartouchebody
EndChar

StartChar: Z
Encoding: 90 90 132
Width: 872
VWidth: 1100
Flags: W
HStem: 4 76<279 698.645> 686 76<174.355 593>
LayerCount: 2
Fore
SplineSet
702 723 m 0
 702 723 701 722 701 720 c 0
 701 720 701 712 695 703 c 2
 279 80 l 1
 664 80 l 2
 685 80 702 63 702 42 c 0
 702 21 685 4 664 4 c 2
 209 4 l 2
 208 4 l 0
 205 4 204 4 204 4 c 0
 185 6 171 23 171 42 c 0
 171 43 l 0
 171 52 175 61 177 63 c 2
 593 686 l 1
 209 686 l 2
 188 686 171 703 171 724 c 0
 171 745 188 762 209 762 c 2
 664 762 l 2
 665 762 l 0
 665 762 667 762 668 762 c 0
 678 762 702 750 702 724 c 0
 702 723 l 0
EndSplineSet
Validated: 1
MultipleSubs2: "cc01-1" Z tiki.cartouchebody
EndChar

StartChar: a
Encoding: 97 97 139
Width: 872
VWidth: 1100
Flags: W
HStem: 4 21G<198.5 219.5 653.5 674.5> 4 21G<198.5 219.5 653.5 674.5> 345 76<246 626> 686 76<350.358 521.695>
VStem: 171 75<7.35475 345 421 582.749> 626 76<7.35475 345 421 582.749>
LayerCount: 2
Fore
SplineSet
702 498 m 0xbc
 702 497 l 2
 702 42 l 2
 702 21 685 4 664 4 c 0
 643 4 626 21 626 42 c 2
 626 345 l 1
 246 345 l 1
 246 42 l 2
 246 21 230 4 209 4 c 0
 188 4 171 21 171 42 c 2
 171 497 l 2
 171 498 l 0
 172 644 290 762 436 762 c 0
 582 762 701 644 702 498 c 0xbc
246 421 m 2
 626 421 l 1
 626 497 l 2
 626 602 541 686 436 686 c 0
 331 686 246 602 246 497 c 2
 246 421 l 2
EndSplineSet
Validated: 1
EndChar

StartChar: b
Encoding: 98 98 140
Width: 872
VWidth: 1100
Flags: W
HStem: 4 76<246 565.567> 345 76<246 479.19> 686 76<246 480.445>
VStem: 171 75<80 345 421 686> 540 76<480.815 626.65> 626 76<140.677 284.493>
CounterMasks: 1 e0
LayerCount: 2
Fore
SplineSet
559 410 m 1
 642 382 702 304 702 212 c 0
 702 97 609 5 494 4 c 0
 493 4 l 2
 209 4 l 2
 188 4 171 21 171 42 c 2
 171 724 l 2
 171 745 188 762 209 762 c 2
 408 762 l 2
 409 762 l 0
 524 761 616 669 616 554 c 0
 616 498 594 447 559 410 c 1
540 554 m 0
 540 627 481 686 408 686 c 2
 246 686 l 1
 246 421 l 1
 408 421 l 2
 481 421 540 481 540 554 c 0
493 80 m 2
 566 80 626 139 626 212 c 0
 626 285 566 345 493 345 c 2
 246 345 l 1
 246 80 l 1
 493 80 l 2
EndSplineSet
Validated: 1
EndChar

StartChar: c
Encoding: 99 99 141
Width: 872
VWidth: 1100
Flags: W
HStem: 4 76<372.102 540.171> 686 76<372.102 540.171>
VStem: 152 75<255.478 510.522>
LayerCount: 2
Fore
SplineSet
675 118 m 0
 618 44 540 4 457 4 c 0
 456 4 l 0
 455 4 l 0
 372 4 295 44 238 118 c 0
 182 189 152 283 152 383 c 0
 152 483 182 577 238 648 c 0
 295 722 372 762 455 762 c 0
 456 762 l 0
 457 762 l 0
 540 762 618 722 675 648 c 0
 680 641 683 632 683 624 c 0
 683 613 678 601 668 594 c 0
 661 589 653 586 645 586 c 0
 634 586 622 591 615 601 c 0
 572 656 515 686 456 686 c 0
 397 686 341 656 298 601 c 0
 253 543 227 466 227 383 c 0
 227 300 253 223 298 165 c 0
 341 110 397 80 456 80 c 0
 515 80 572 110 615 165 c 0
 622 175 634 180 645 180 c 0
 653 180 661 177 668 172 c 0
 678 165 683 153 683 142 c 0
 683 134 680 125 675 118 c 0
EndSplineSet
Validated: 1
EndChar

StartChar: d
Encoding: 100 100 142
Width: 872
VWidth: 1100
Flags: W
HStem: 4 76<246 433.1> 686 76<246 433.1>
VStem: 171 75<80 686> 626 76<271.226 494.774>
LayerCount: 2
Fore
SplineSet
322 762 m 2
 531 762 702 592 702 383 c 0
 702 174 531 4 322 4 c 2
 209 4 l 2
 188 4 171 21 171 42 c 2
 171 724 l 2
 171 745 188 762 209 762 c 2
 322 762 l 2
322 80 m 2
 489 80 626 216 626 383 c 0
 626 550 489 686 322 686 c 2
 246 686 l 1
 246 80 l 1
 322 80 l 2
EndSplineSet
Validated: 1
EndChar

StartChar: e
Encoding: 101 101 143
Width: 872
VWidth: 1100
Flags: W
HStem: 4 76<246 698.645> 345 76<246 584.645> 686 76<246 698.645>
VStem: 171 75<80 345 421 686>
CounterMasks: 1 e0
LayerCount: 2
Fore
SplineSet
702 42 m 0
 702 21 685 4 664 4 c 2
 209 4 l 2
 188 4 171 21 171 42 c 2
 171 724 l 2
 171 745 188 762 209 762 c 2
 664 762 l 2
 685 762 702 745 702 724 c 0
 702 703 685 686 664 686 c 2
 246 686 l 1
 246 421 l 1
 550 421 l 2
 571 421 588 404 588 383 c 0
 588 362 571 345 550 345 c 2
 246 345 l 1
 246 80 l 1
 664 80 l 2
 685 80 702 63 702 42 c 0
EndSplineSet
Validated: 1
EndChar

StartChar: f
Encoding: 102 102 144
Width: 872
VWidth: 1100
Flags: W
HStem: 4 21G<198.5 219.5> 4 21G<198.5 219.5> 345 76<246 584.645> 686 76<246 698.645>
VStem: 171 75<7.35475 345 421 686>
LayerCount: 2
Fore
SplineSet
702 724 m 0xb8
 702 703 685 686 664 686 c 2
 246 686 l 1
 246 421 l 1
 550 421 l 2
 571 421 588 404 588 383 c 0
 588 362 571 345 550 345 c 2
 246 345 l 1
 246 42 l 2
 246 21 230 4 209 4 c 0
 188 4 171 21 171 42 c 2
 171 724 l 2
 171 745 188 762 209 762 c 2
 664 762 l 2
 685 762 702 745 702 724 c 0xb8
EndSplineSet
Validated: 1
EndChar

StartChar: g
Encoding: 103 103 145
Width: 872
VWidth: 1100
Flags: W
HStem: 4 76<391.102 560.51> 345 76<440.355 626> 686 76<391.102 559.171>
VStem: 171 75<253.339 512.661> 626 76<133.727 345>
CounterMasks: 1 e0
LayerCount: 2
Fore
SplineSet
702 383 m 2
 702 142 l 1
 702 140 l 2
 702 139 701 138 701 137 c 2
 701 136 l 2
 701 135 700 133 700 132 c 0
 700 131 700 132 700 131 c 2
 700 130 l 1
 699 128 l 1
 698 127 l 1
 698 125 l 1
 697 124 l 1
 696 122 l 1
 695 121 l 1
 695 120 l 1
 694 120 l 1
 694 118 l 1
 693 118 l 1
 636 45 558 4 476 4 c 2
 475 4 l 1
 474 4 l 2
 391 4 314 44 257 118 c 0
 201 189 171 283 171 383 c 0
 171 483 201 577 257 648 c 0
 314 722 391 762 474 762 c 2
 475 762 l 1
 476 762 l 2
 559 762 637 722 694 648 c 0
 699 641 702 632 702 624 c 0
 702 613 697 601 687 594 c 0
 680 589 672 586 664 586 c 0
 653 586 641 591 634 601 c 0
 591 656 534 686 475 686 c 0
 416 686 359 656 316 601 c 0
 271 543 246 466 246 383 c 0
 246 300 271 223 316 165 c 0
 359 110 416 80 475 80 c 0
 531 80 584 106 626 155 c 1
 626 345 l 1
 475 345 l 2
 454 345 437 362 437 383 c 0
 437 404 454 421 475 421 c 2
 664 421 l 2
 685 421 702 404 702 383 c 2
EndSplineSet
Validated: 1
EndChar

StartChar: h
Encoding: 104 104 146
Width: 872
VWidth: 1100
Flags: W
HStem: 4 21G<198.5 219.5 653.5 674.5> 4 21G<198.5 219.5 653.5 674.5> 345 76<246 626> 742 20G<198.5 219.5 653.5 674.5> 742 20G<198.5 219.5 653.5 674.5>
VStem: 171 75<7.35475 345 421 758.645> 626 76<7.35475 345 421 758.645>
LayerCount: 2
Fore
SplineSet
702 724 m 2xb6
 702 42 l 2
 702 21 685 4 664 4 c 0
 643 4 626 21 626 42 c 2
 626 345 l 1
 246 345 l 1
 246 42 l 2
 246 21 230 4 209 4 c 0
 188 4 171 21 171 42 c 2
 171 724 l 2
 171 745 188 762 209 762 c 0
 230 762 246 745 246 724 c 2
 246 421 l 1
 626 421 l 1
 626 724 l 2
 626 745 643 762 664 762 c 0
 685 762 702 745 702 724 c 2xb6
EndSplineSet
Validated: 1
EndChar

StartChar: i
Encoding: 105 105 147
Width: 872
VWidth: 1100
Flags: W
HStem: 4 76<174.355 398 474 698.645> 686 76<174.355 398 474 698.645>
VStem: 398 76<80 686>
LayerCount: 2
Fore
SplineSet
702 42 m 0
 702 21 685 4 664 4 c 2
 209 4 l 2
 188 4 171 21 171 42 c 0
 171 63 188 80 209 80 c 2
 398 80 l 1
 398 686 l 1
 209 686 l 2
 188 686 171 703 171 724 c 0
 171 745 188 762 209 762 c 2
 664 762 l 2
 685 762 702 745 702 724 c 0
 702 703 685 686 664 686 c 2
 474 686 l 1
 474 80 l 1
 664 80 l 2
 685 80 702 63 702 42 c 0
EndSplineSet
Validated: 1
EndChar

StartChar: j
Encoding: 106 106 148
Width: 872
VWidth: 1100
Flags: W
HStem: 4 76<350.309 521.695> 742 20G<653.5 674.5> 742 20G<653.5 674.5>
VStem: 171 75<184.144 303.645> 626 76<183.251 758.645>
LayerCount: 2
Fore
SplineSet
702 724 m 2xd8
 702 269 l 2
 702 268 l 0
 701 122 582 4 436 4 c 0
 290 4 171 123 171 269 c 0
 171 290 188 307 209 307 c 0
 230 307 246 290 246 269 c 0
 246 164 331 80 436 80 c 0
 541 80 626 164 626 269 c 2
 626 724 l 2
 626 745 643 762 664 762 c 0
 685 762 702 745 702 724 c 2xd8
EndSplineSet
Validated: 1
EndChar

StartChar: k
Encoding: 107 107 149
Width: 872
VWidth: 1100
Flags: W
HStem: 4 21G<198.5 219.5 660 670> 4 21G<198.5 219.5 660 670> 742 20G<198.5 219.5 660 670> 742 20G<198.5 219.5 660 670>
VStem: 171 75<7.35475 307 459 758.645>
LayerCount: 2
Fore
SplineSet
686 72 m 2xa8
 696 65 702 54 702 42 c 0
 702 34 699 26 694 19 c 0
 687 9 676 4 664 4 c 0
 656 4 648 6 641 11 c 2
 246 307 l 1
 246 42 l 2
 246 21 230 4 209 4 c 0
 188 4 171 21 171 42 c 2
 171 724 l 2
 171 745 188 762 209 762 c 0
 230 762 246 745 246 724 c 2
 246 459 l 1
 641 755 l 2
 648 760 656 762 664 762 c 0
 676 762 687 757 694 747 c 0
 699 740 702 732 702 724 c 0
 702 712 696 701 686 694 c 2
 272 383 l 1
 686 72 l 2xa8
EndSplineSet
Validated: 1
EndChar

StartChar: l
Encoding: 108 108 150
Width: 872
VWidth: 1100
Flags: W
HStem: 4 76<246 698.645> 742 20G<198.5 219.5> 742 20G<198.5 219.5>
VStem: 171 75<80 758.645>
LayerCount: 2
Fore
SplineSet
702 42 m 0xd0
 702 21 685 4 664 4 c 2
 209 4 l 2
 188 4 171 21 171 42 c 2
 171 724 l 2
 171 745 188 762 209 762 c 0
 230 762 246 745 246 724 c 2
 246 80 l 1
 664 80 l 2
 685 80 702 63 702 42 c 0xd0
EndSplineSet
Validated: 1
EndChar

StartChar: m
Encoding: 109 109 151
Width: 872
VWidth: 1100
Flags: W
HStem: 4 21G<198.5 219.5 653.5 674.5> 4 21G<198.5 219.5 653.5 674.5> 742 20G<197.5 214> 742 20G<197.5 214>
VStem: 171 75<7.35475 633> 626 76<7.35475 633>
LayerCount: 2
Fore
SplineSet
171 724 m 2x9c
 171 745 187 762 208 762 c 0
 209 762 211 762 212 762 c 0xac
 216 762 226 760 236 750 c 2
 436 550 l 1
 554 668 637 751 639 753 c 0
 645 758 656 764 668 762 c 0
 671 762 689 759 698 740 c 0
 700 736 702 731 702 724 c 2
 702 42 l 2
 702 21 685 4 664 4 c 0
 643 4 626 21 626 42 c 2
 626 633 l 1
 463 470 l 2
 456 463 446 459 436 459 c 0
 426 459 416 463 409 470 c 2
 246 633 l 1
 246 42 l 2
 246 21 230 4 209 4 c 0
 188 4 171 21 171 42 c 2
 171 724 l 2x9c
EndSplineSet
Validated: 1
EndChar

StartChar: n
Encoding: 110 110 152
Width: 872
VWidth: 1100
Flags: W
HStem: 4 21G<198.5 219.5 661 673.5> 4 21G<198.5 219.5 661 673.5> 742 20G<198 212.5 653.5 674.5> 742 20G<198 212.5 653.5 674.5>
VStem: 171 75<7.35475 599> 626 76<167 758.645>
LayerCount: 2
Fore
SplineSet
171 724 m 2xac
 171 746 188 762 208 762 c 0
 217 762 231 760 241 745 c 2
 626 167 l 1
 626 724 l 2
 626 745 643 762 664 762 c 0
 685 762 702 745 702 724 c 2
 702 42 l 2
 702 41 l 2
 701 20 684 4 663 4 c 0
 659 4 643 4 632 21 c 2
 246 599 l 1
 246 42 l 2
 246 21 230 4 209 4 c 0
 188 4 171 21 171 42 c 2
 171 724 l 2xac
EndSplineSet
Validated: 1
EndChar

StartChar: o
Encoding: 111 111 153
Width: 872
VWidth: 1100
Flags: W
HStem: 4 76<368.343 503.69> 686 76<368.343 503.69>
VStem: 171 75<245.345 520.655> 626 76<245.345 520.655>
LayerCount: 2
Fore
SplineSet
436 762 m 0
 583 762 702 592 702 383 c 0
 702 174 583 4 436 4 c 0
 289 4 171 174 171 383 c 0
 171 592 289 762 436 762 c 0
436 686 m 0
 333 686 246 547 246 383 c 0
 246 219 333 80 436 80 c 0
 539 80 626 219 626 383 c 0
 626 547 539 686 436 686 c 0
EndSplineSet
Validated: 1
EndChar

StartChar: p
Encoding: 112 112 154
Width: 872
VWidth: 1100
Flags: W
HStem: 4 21G<198.5 219.5> 4 21G<198.5 219.5> 345 76<246 564.485> 686 76<246 565.567>
VStem: 171 75<7.35475 345 421 686> 626 76<482.469 625.323>
LayerCount: 2
Fore
SplineSet
494 762 m 0xbc
 609 761 702 669 702 554 c 0
 702 439 609 346 494 345 c 0
 493 345 l 2
 246 345 l 1
 246 42 l 2
 246 21 230 4 209 4 c 0
 188 4 171 21 171 42 c 2
 171 724 l 2
 171 745 188 762 209 762 c 2
 493 762 l 2
 494 762 l 0xbc
493 421 m 2
 566 421 626 481 626 554 c 0
 626 627 566 686 493 686 c 2
 246 686 l 1
 246 421 l 1
 493 421 l 2
EndSplineSet
Validated: 1
EndChar

StartChar: q
Encoding: 113 113 155
Width: 872
VWidth: 1100
Flags: W
HStem: 4 76<368.343 505.471> 4 21G<659 669> 686 76<368.343 503.69>
VStem: 171 75<245.345 520.655> 626 76<243.113 520.655>
LayerCount: 2
Fore
SplineSet
632 127 m 1xb8
 690 68 l 2
 697 61 702 52 702 42 c 0
 702 32 697 22 690 15 c 0
 683 8 674 4 664 4 c 0x78
 654 4 644 8 637 15 c 2
 584 68 l 1
 542 28 491 4 436 4 c 0
 289 4 171 174 171 383 c 0
 171 592 289 762 436 762 c 0
 583 762 702 592 702 383 c 0
 702 284 675 194 632 127 c 1xb8
436 80 m 0xb8
 470 80 502 95 530 121 c 1
 409 242 l 2
 402 249 398 259 398 269 c 0
 398 279 402 289 409 296 c 0
 416 303 426 307 436 307 c 0
 446 307 456 303 463 296 c 2
 577 182 l 1
 607 236 626 307 626 383 c 0
 626 547 539 686 436 686 c 0
 333 686 246 547 246 383 c 0
 246 219 333 80 436 80 c 0xb8
EndSplineSet
Validated: 1
EndChar

StartChar: r
Encoding: 114 114 156
Width: 872
VWidth: 1100
Flags: W
HStem: 4 21G<198.5 219.5 659.5 669> 4 21G<198.5 219.5 659.5 669> 345 76<246 270 383 564.485> 686 76<246 565.567>
VStem: 171 75<7.35475 345 421 686> 626 76<482.469 625.323>
LayerCount: 2
Fore
SplineSet
689 70 m 2xbc
 697 63 702 52 702 42 c 0
 702 33 699 23 692 16 c 0
 685 8 674 4 664 4 c 0
 655 4 645 6 638 13 c 2
 270 345 l 1
 246 345 l 1
 246 42 l 2
 246 21 230 4 209 4 c 0
 188 4 171 21 171 42 c 2
 171 724 l 2
 171 745 188 762 209 762 c 2
 493 762 l 2
 494 762 l 0
 609 761 702 669 702 554 c 0
 702 439 609 346 494 345 c 0
 493 345 l 2
 383 345 l 1
 689 70 l 2xbc
626 554 m 0
 626 627 566 686 493 686 c 2
 246 686 l 1
 246 421 l 1
 493 421 l 2
 566 421 626 481 626 554 c 0
EndSplineSet
Validated: 1
EndChar

StartChar: s
Encoding: 115 115 157
Width: 872
VWidth: 1100
Flags: W
HStem: 4 76<297.988 412.999 413 553.188> 686 76<316.683 576.449>
VStem: 172 76<543.089 634.792> 624 76<130.499 223.118>
LayerCount: 2
Fore
SplineSet
416 4 m 0
 415 4 413 4 409 4 c 0
 377 4 263 9 184 86 c 0
 176 93 172 103 172 113 c 0
 172 123 176 133 183 140 c 0
 190 148 200 151 210 151 c 0
 220 151 230 147 237 140 c 0
 296 82 392 79 410 79 c 0
 412 79 413 80 413 80 c 1
 414 80 l 1
 623 84 624 160 624 188 c 0
 624 201 606 241 441 336 c 0
 429 343 420 347 415 351 c 0
 412 353 403 359 394 364 c 0
 279 430 172 502 172 578 c 2
 172 579 l 2
 173 697 269 758 456 762 c 0
 457 762 459 762 463 762 c 0
 494 762 609 757 688 680 c 0
 696 673 700 663 700 653 c 0
 700 643 696 633 689 626 c 0
 682 618 672 615 662 615 c 0
 652 615 642 619 635 626 c 0
 576 684 484 686 463 686 c 0
 460 686 459 686 459 686 c 1
 458 686 l 1
 249 682 248 606 248 578 c 0
 248 565 266 525 431 430 c 0
 443 423 452 419 457 415 c 0
 460 413 470 407 479 402 c 0
 594 336 700 264 700 188 c 0
 700 92 636 9 416 4 c 0
EndSplineSet
Validated: 1
EndChar

StartChar: t
Encoding: 116 116 158
Width: 872
VWidth: 1100
Flags: W
HStem: 4 21G<425.5 446.5> 4 21G<425.5 446.5> 686 76<174.355 398 474 698.645>
VStem: 398 76<7.35475 686>
LayerCount: 2
Fore
SplineSet
702 724 m 0xb0
 702 703 685 686 664 686 c 2
 474 686 l 1
 474 42 l 2
 474 21 457 4 436 4 c 0
 415 4 398 21 398 42 c 2
 398 686 l 1
 209 686 l 2
 188 686 171 703 171 724 c 0
 171 745 188 762 209 762 c 2
 664 762 l 2
 685 762 702 745 702 724 c 0xb0
EndSplineSet
Validated: 1
EndChar

StartChar: u
Encoding: 117 117 159
Width: 872
VWidth: 1100
Flags: W
HStem: 4 76<350.358 521.695> 742 20G<198.5 219.5 653.5 674.5> 742 20G<198.5 219.5 653.5 674.5>
VStem: 171 75<183.251 758.645> 626 76<183.251 758.645>
LayerCount: 2
Fore
SplineSet
702 724 m 2xd8
 702 269 l 2
 702 268 l 0
 701 122 582 4 436 4 c 0
 290 4 172 122 171 268 c 0
 171 269 l 2
 171 724 l 2
 171 745 188 762 209 762 c 0
 230 762 246 745 246 724 c 2
 246 269 l 2
 246 164 331 80 436 80 c 0
 541 80 626 164 626 269 c 2
 626 724 l 2
 626 745 643 762 664 762 c 0
 685 762 702 745 702 724 c 2xd8
EndSplineSet
Validated: 1
EndChar

StartChar: v
Encoding: 118 118 160
Width: 872
VWidth: 1100
Flags: W
HStem: 4 21G<436 442.5> 4 21G<436 442.5> 742 20G<207 217 656 666> 742 20G<207 217 656 666>
VStem: 171 73<736 758.618> 628 74<736 758.618>
LayerCount: 2
Fore
SplineSet
472 30 m 2xac
 466 11 449 4 436 4 c 0
 436 4 425 4 419 8 c 0
 410 12 406 19 403 24 c 0
 403 24 401 27 400 30 c 2
 173 712 l 2
 172 716 171 720 171 724 c 0
 171 740 181 755 197 760 c 0
 201 761 205 762 209 762 c 0
 225 762 239 752 244 736 c 2
 436 162 l 1
 628 736 l 2
 633 752 648 762 664 762 c 0
 668 762 672 761 676 760 c 0
 692 755 702 740 702 724 c 0
 702 720 701 716 700 712 c 2
 472 30 l 2xac
EndSplineSet
Validated: 1
EndChar

StartChar: w
Encoding: 119 119 161
Width: 872
VWidth: 1100
Flags: W
HStem: 4 21G<316.5 329.5 548.5 555> 4 21G<316.5 329.5 548.5 555> 742 20G<192.5 218 655 679.5> 742 20G<192.5 218 655 679.5>
VStem: 171 75<687.829 758.922>
LayerCount: 2
Fore
SplineSet
322 4 m 2xa8
 322 4 322 4 321 4 c 2
 320 4 l 2
 313 4 289 10 285 36 c 2
 171 718 l 2
 171 720 171 722 171 724 c 0
 171 742 183 759 202 762 c 0
 204 762 207 762 209 762 c 0
 227 762 243 750 246 731 c 2
 334 201 l 1
 397 395 l 2
 397 396 399 398 401 402 c 0
 405 411 417 418 422 419 c 0
 435 423 444 419 445 419 c 0
 454 416 464 409 469 394 c 2
 537 196 l 1
 626 731 l 2
 629 750 646 762 664 762 c 0
 666 762 668 762 670 762 c 0
 689 759 702 742 702 724 c 0
 702 722 701 720 701 718 c 0
 587 32 587 32 586 30 c 0
 584 25 580 15 569 9 c 0
 567 8 560 4 550 4 c 0
 547 4 523 4 514 30 c 2
 434 263 l 1
 425 233 366 55 358 30 c 0
 357 28 357 27 357 27 c 0
 351 13 337 4 322 4 c 2xa8
EndSplineSet
Validated: 1
EndChar

StartChar: x
Encoding: 120 120 162
Width: 872
VWidth: 1100
Flags: W
HStem: 4 21G<204.5 214 658 667.5> 4 21G<204.5 214 658 667.5> 742 20G<204.5 214 658 667.5> 742 20G<204.5 214 658 667.5>
LayerCount: 2
Fore
SplineSet
695 63 m 2xa0
 699 57 702 49 702 42 c 0
 702 30 696 17 685 10 c 0
 679 6 671 4 664 4 c 0
 652 4 639 10 632 21 c 2
 436 315 l 1
 240 21 l 2
 233 10 220 4 208 4 c 0
 201 4 193 6 187 10 c 0
 176 17 171 30 171 42 c 0
 171 49 173 57 177 63 c 2
 390 383 l 1
 177 703 l 2
 173 709 171 717 171 724 c 0
 171 736 176 749 187 756 c 0
 193 760 201 762 208 762 c 0
 220 762 233 756 240 745 c 2
 436 451 l 1
 632 745 l 2
 639 756 652 762 664 762 c 0
 671 762 679 760 685 756 c 0
 696 749 702 736 702 724 c 0
 702 717 699 709 695 703 c 2
 482 383 l 1
 695 63 l 2xa0
EndSplineSet
Validated: 1
EndChar

StartChar: y
Encoding: 121 121 163
Width: 872
VWidth: 1100
Flags: W
HStem: 4 21G<425.5 448> 4 21G<425.5 448> 742 20G<204.5 214 657.5 667> 742 20G<204.5 214 657.5 667>
VStem: 398 76<7.74496 372>
LayerCount: 2
Fore
SplineSet
474 372 m 1xa8
 474 42 l 2
 474 23 458 5 438 4 c 0
 437 4 437 4 436 4 c 0
 415 4 398 21 398 42 c 2
 398 371 l 0
 398 372 l 1
 177 703 l 2
 173 710 170 717 170 724 c 0
 170 736 176 749 187 756 c 0
 193 760 201 762 208 762 c 0
 220 762 233 756 240 745 c 2
 436 451 l 1
 632 745 l 2
 639 756 651 762 664 762 c 0
 670 762 677 760 683 757 c 0
 695 750 701 737 701 724 c 0
 701 717 699 709 695 703 c 2
 474 372 l 1xa8
EndSplineSet
Validated: 1
EndChar

StartChar: z
Encoding: 122 122 164
Width: 872
VWidth: 1100
Flags: W
HStem: 4 76<279 698.645> 686 76<174.355 593>
LayerCount: 2
Fore
SplineSet
702 723 m 0
 702 723 701 722 701 720 c 0
 701 720 701 712 695 703 c 2
 279 80 l 1
 664 80 l 2
 685 80 702 63 702 42 c 0
 702 21 685 4 664 4 c 2
 209 4 l 2
 208 4 l 0
 205 4 204 4 204 4 c 0
 185 6 171 23 171 42 c 0
 171 43 l 0
 171 52 175 61 177 63 c 2
 593 686 l 1
 209 686 l 2
 188 686 171 703 171 724 c 0
 171 745 188 762 209 762 c 2
 664 762 l 2
 665 762 l 0
 665 762 667 762 668 762 c 0
 678 762 702 750 702 724 c 0
 702 723 l 0
EndSplineSet
Validated: 1
EndChar

StartChar: tiki.cartouchebody
Encoding: 299 989586 299
Width: 0
Flags: W
HStem: -129 76<-906.645 34.6453> 819 76<-906.645 34.6453>
LayerCount: 2
Fore
SplineSet
0 819 m 2
 -872 819 l 2
 -893 819 -910 836 -910 857 c 0
 -910 878 -893 895 -872 895 c 2
 0 895 l 2
 21 895 38 878 38 857 c 0
 38 836 21 819 0 819 c 2
0 -129 m 2
 -872 -129 l 2
 -893 -129 -910 -112 -910 -91 c 0
 -910 -70 -893 -53 -872 -53 c 2
 0 -53 l 2
 21 -53 38 -70 38 -91 c 0
 38 -112 21 -129 0 -129 c 2
EndSplineSet
Validated: 1
EndChar

StartChar: te
Encoding: 301 12300 301
Width: 872
Flags: W
HStem: 686 76<474 811.645>
VStem: 398 76<177.355 686>
LayerCount: 2
Fore
SplineSet
815 724 m 0
 815 703 798 686 777 686 c 2
 474 686 l 1
 474 212 l 2
 474 191 457 174 436 174 c 0
 415 174 398 191 398 212 c 2
 398 724 l 2
 398 745 415 762 436 762 c 2
 777 762 l 2
 798 762 815 745 815 724 c 0
EndSplineSet
Validated: 1
Ligature2: "liga-2" t e space
Ligature2: "liga-1" t e
EndChar

StartChar: to
Encoding: 302 12301 302
Width: 872
Flags: W
HStem: 4 76<60.3547 398>
VStem: 398 76<80 588.645>
LayerCount: 2
Fore
SplineSet
474 554 m 2
 474 42 l 2
 474 21 457 4 436 4 c 2
 95 4 l 2
 74 4 57 21 57 42 c 0
 57 63 74 80 95 80 c 2
 398 80 l 1
 398 554 l 2
 398 575 415 592 436 592 c 0
 457 592 474 575 474 554 c 2
EndSplineSet
Validated: 1
Ligature2: "liga-2" t o space
Ligature2: "liga-1" t o
EndChar

StartChar: tiki.aa
Encoding: 303 -1 303
Width: 872
VWidth: 1100
Flags: HMW
LayerCount: 2
Fore
SplineSet
607 4 m 0
 586 4 569 21 569 42 c 0
 569 63 586 80 607 80 c 0
 628 80 645 63 645 42 c 0
 645 21 628 4 607 4 c 0
265 4 m 0
 244 4 227 21 227 42 c 0
 227 63 244 80 265 80 c 0
 286 80 303 63 303 42 c 0
 303 21 286 4 265 4 c 0
607 186 m 0
 586 186 569 203 569 224 c 2
 569 724 l 2
 569 745 586 762 607 762 c 0
 628 762 645 745 645 724 c 2
 645 224 l 2
 645 203 628 186 607 186 c 0
265 186 m 0
 244 186 227 203 227 224 c 2
 227 724 l 2
 227 745 244 762 265 762 c 0
 286 762 303 745 303 724 c 2
 303 224 l 2
 303 203 286 186 265 186 c 0
EndSplineSet
Validated: 1
Ligature2: "variation-1" tiki.a one
Ligature2: "variation-1" tiki.a var1
LCarets2: 1 0
Ligature2: "compound-1" tiki.a tiki.a
EndChar

StartChar: tiki.aaa
Encoding: 304 -1 304
Width: 872
VWidth: 1100
Flags: W
HStem: 4 76<60.3547 129.645 401.355 470.645 742.355 811.645> 742 20G<84.5 105.5 425.5 446.5 766.5 787.5> 742 20G<84.5 105.5 425.5 446.5 766.5 787.5>
VStem: 57 76<7.35475 76.6453 189.355 758.645> 398 76<7.35475 76.6453 189.355 758.645> 739 76<7.35475 76.6453 189.355 758.645>
CounterMasks: 1 1c
LayerCount: 2
Fore
SplineSet
815 42 m 0x9c
 815 21 798 4 777 4 c 0
 756 4 739 21 739 42 c 0
 739 63 756 80 777 80 c 0
 798 80 815 63 815 42 c 0x9c
815 724 m 2
 815 224 l 2
 815 203 798 186 777 186 c 0
 756 186 739 203 739 224 c 2
 739 724 l 2
 739 745 756 762 777 762 c 0xdc
 798 762 815 745 815 724 c 2
133 42 m 0
 133 21 116 4 95 4 c 0
 74 4 57 21 57 42 c 0
 57 63 74 80 95 80 c 0
 116 80 133 63 133 42 c 0
133 724 m 2
 133 224 l 2
 133 203 116 186 95 186 c 0
 74 186 57 203 57 224 c 2
 57 724 l 2
 57 745 74 762 95 762 c 0
 116 762 133 745 133 724 c 2
474 42 m 0
 474 21 457 4 436 4 c 0
 415 4 398 21 398 42 c 0
 398 63 415 80 436 80 c 0
 457 80 474 63 474 42 c 0
474 724 m 2
 474 224 l 2
 474 203 457 186 436 186 c 0
 415 186 398 203 398 224 c 2
 398 724 l 2
 398 745 415 762 436 762 c 0
 457 762 474 745 474 724 c 2
EndSplineSet
Validated: 1
Ligature2: "variation-1" tiki.a two
Ligature2: "variation-1" tiki.a var2
LCarets2: 2 0 0
Ligature2: "compound-1" tiki.a tiki.a tiki.a
EndChar

StartChar: c.ala
Encoding: 305 -1 305
Width: 0
Flags: W
HStem: 4 21G<-782 -772 -100 -90> 4 21G<-782 -772 -100 -90> 742 20G<-782 -772 -99 -89> 742 20G<-782 -772 -99 -89>
LayerCount: 2
Fore
SplineSet
-68 68 m 0xa0
 -60 60 -57 52 -57 42 c 0
 -57 32 -60 23 -68 15 c 0
 -75 8 -85 4 -95 4 c 0
 -105 4 -114 8 -121 15 c 2
 -436 329 l 1
 -750 15 l 2
 -757 8 -767 4 -777 4 c 0
 -787 4 -797 8 -804 15 c 0
 -812 23 -815 32 -815 42 c 0
 -815 52 -812 60 -804 68 c 2
 -490 383 l 1
 -804 698 l 2
 -812 706 -815 714 -815 724 c 0
 -815 734 -812 743 -804 751 c 0
 -796 759 -787 762 -777 762 c 0
 -767 762 -758 759 -750 751 c 2
 -436 437 l 1
 -121 751 l 2
 -113 759 -104 762 -94 762 c 0
 -84 762 -76 759 -68 751 c 0
 -60 743 -57 734 -57 724 c 0
 -57 714 -60 706 -68 698 c 2
 -382 383 l 1
 -68 68 l 0xa0
EndSplineSet
Validated: 1
LCarets2: 1 -3562
Ligature2: "compound-1" ZWJ tiki.ala
EndChar

StartChar: c.iku.iku
Encoding: 306 -1 306
Width: 872
VWidth: 1100
Flags: W
HStem: 4 76<324.226 547.774> 193 76<370.317 501.683> 497 76<370.317 501.683> 686 76<324.226 547.774>
VStem: 57 76<271.226 494.774> 246 76<317.317 448.683> 550 76<317.317 448.683> 739 76<271.226 494.774>
LayerCount: 2
Fore
SplineSet
436 686 m 0
 269 686 133 550 133 383 c 0
 133 216 269 80 436 80 c 0
 603 80 739 216 739 383 c 0
 739 550 603 686 436 686 c 0
436 762 m 0
 645 762 815 592 815 383 c 0
 815 174 645 4 436 4 c 0
 227 4 57 174 57 383 c 0
 57 592 227 762 436 762 c 0
436 497 m 0
 373 497 322 446 322 383 c 0
 322 320 373 269 436 269 c 0
 499 269 550 320 550 383 c 0
 550 446 499 497 436 497 c 0
436 573 m 0
 541 573 626 488 626 383 c 0
 626 278 541 193 436 193 c 0
 331 193 246 278 246 383 c 0
 246 488 331 573 436 573 c 0
EndSplineSet
Validated: 1
Ligature2: "compound-1" tiki.iku ZWJ tiki.iku
EndChar

StartChar: c.iku.ilu
Encoding: 307 -1 307
Width: 872
VWidth: 1100
Flags: W
HStem: 4 76<324.226 547.774> 497 76<230.355 398 474 641.645> 686 76<324.226 547.774>
VStem: 57 76<271.226 494.774> 398 76<158.355 497> 739 76<271.226 494.774>
CounterMasks: 1 1c
LayerCount: 2
Fore
SplineSet
436 762 m 0
 645 762 815 592 815 383 c 0
 815 174 645 4 436 4 c 0
 227 4 57 174 57 383 c 0
 57 592 227 762 436 762 c 0
436 80 m 0
 603 80 739 216 739 383 c 0
 739 550 603 686 436 686 c 0
 269 686 133 550 133 383 c 0
 133 216 269 80 436 80 c 0
645 535 m 0
 645 514 628 497 607 497 c 2
 474 497 l 1
 474 193 l 2
 474 172 457 155 436 155 c 0
 415 155 398 172 398 193 c 2
 398 497 l 1
 265 497 l 2
 244 497 227 514 227 535 c 0
 227 556 244 573 265 573 c 2
 607 573 l 2
 628 573 645 556 645 535 c 0
EndSplineSet
Validated: 1
Ligature2: "compound-1" tiki.iku ZWJ tiki.ilu
EndChar

StartChar: c.iku.ka
Encoding: 308 -1 308
Width: 872
VWidth: 1100
Flags: W
HStem: 4 76<324.226 547.774> 193 76<370.317 501.683> 345 76<344.355 413.645 458.355 527.645> 497 76<370.317 501.683> 686 76<324.226 547.774>
VStem: 57 76<271.226 494.774> 246 76<317.317 448.683> 341 76<348.355 417.645> 455 76<348.355 417.645> 550 76<317.317 448.683> 739 76<271.226 494.774>
LayerCount: 2
Fore
SplineSet
436 686 m 0
 269 686 133 550 133 383 c 0
 133 216 269 80 436 80 c 0
 603 80 739 216 739 383 c 0
 739 550 603 686 436 686 c 0
436 762 m 0
 645 762 815 592 815 383 c 0
 815 174 645 4 436 4 c 0
 227 4 57 174 57 383 c 0
 57 592 227 762 436 762 c 0
436 497 m 0
 373 497 322 446 322 383 c 0
 322 320 373 269 436 269 c 0
 499 269 550 320 550 383 c 0
 550 446 499 497 436 497 c 0
436 573 m 0
 541 573 626 488 626 383 c 0
 626 278 541 193 436 193 c 0
 331 193 246 278 246 383 c 0
 246 488 331 573 436 573 c 0
341 383 m 0
 341 404 358 421 379 421 c 0
 400 421 417 404 417 383 c 0
 417 362 400 345 379 345 c 0
 358 345 341 362 341 383 c 0
455 383 m 0
 455 404 472 421 493 421 c 0
 514 421 531 404 531 383 c 0
 531 362 514 345 493 345 c 0
 472 345 455 362 455 383 c 0
EndSplineSet
Validated: 1
Ligature2: "compound-1" tiki.iku ZWJ tiki.ka
EndChar

StartChar: c.iku.kati
Encoding: 309 -1 309
Width: 872
VWidth: 1100
Flags: W
HStem: 4 76<330.111 553.774> 686 76<330.111 553.774>
VStem: 62 76<271.226 494.774> 404 76<158.355 348 456 569.645> 745 76<271.226 494.774>
LayerCount: 2
Fore
SplineSet
442 762 m 0
 651 762 821 592 821 383 c 0
 821 174 651 4 442 4 c 0
 233 4 62 174 62 383 c 0
 62 592 233 762 442 762 c 0
442 80 m 0
 609 80 745 216 745 383 c 0
 745 550 609 686 442 686 c 0
 275 686 138 550 138 383 c 0
 138 216 275 80 442 80 c 0
639 508 m 2
 480 348 l 1
 480 193 l 2
 480 172 463 155 442 155 c 0
 421 155 404 172 404 193 c 2
 404 348 l 1
 244 508 l 2
 237 515 233 525 233 535 c 0
 233 545 237 555 244 562 c 0
 251 569 261 573 271 573 c 0
 281 573 291 569 298 562 c 2
 404 456 l 1
 404 535 l 2
 404 556 421 573 442 573 c 0
 463 573 480 556 480 535 c 2
 480 456 l 1
 586 562 l 2
 593 569 602 573 612 573 c 0
 622 573 632 569 639 562 c 0
 646 555 650 545 650 535 c 0
 650 525 646 515 639 508 c 2
EndSplineSet
Validated: 1
Ligature2: "compound-1" tiki.iku ZWJ tiki.kati
EndChar

StartChar: c.iku.ki
Encoding: 310 -1 310
Width: 872
VWidth: 1100
Flags: W
HStem: 4 76<324.226 547.774> 550 76<340.043 519.131> 686 76<324.226 547.774>
VStem: 57 76<271.226 494.774> 396 76<269 345.999> 534 76<501 530.676> 739 76<271.226 494.774>
LayerCount: 2
Fore
SplineSet
436 762 m 0
 645 762 815 592 815 383 c 0
 815 174 645 4 436 4 c 0
 227 4 57 174 57 383 c 0
 57 592 227 762 436 762 c 0
436 80 m 0
 603 80 739 216 739 383 c 0
 739 550 603 686 436 686 c 0
 269 686 133 550 133 383 c 0
 133 216 269 80 436 80 c 0
584 289 m 2
 489 167 l 2
 476 150 456 140 435 140 c 2
 434 140 l 1
 433 140 l 2
 412 140 393 150 380 167 c 2
 284 289 l 2
 279 296 276 304 276 312 c 0
 276 323 281 335 291 342 c 0
 298 347 306 350 314 350 c 0
 325 350 337 346 344 336 c 2
 396 269 l 1
 396 330 l 2
 396 331 396 334 396 335 c 0
 396 337 396 339 396 341 c 0
 396 349 396 359 400 369 c 0
 405 385 417 399 432 409 c 2
 435 411 l 2
 529 473 534 501 534 501 c 1
 534 512 534 548 423 550 c 2
 422 550 l 1
 422 550 421 550 420 550 c 0
 410 550 358 549 327 518 c 0
 320 511 311 507 301 507 c 0
 291 507 280 510 273 518 c 0
 266 525 263 535 263 545 c 0
 263 555 266 565 274 572 c 0
 325 622 400 626 420 626 c 0
 422 626 424 626 425 626 c 0
 506 624 610 602 610 500 c 0
 610 456 567 407 476 347 c 1
 474 346 l 2
 473 346 473 345 472 344 c 0
 472 342 472 338 472 336 c 0
 472 334 472 332 472 330 c 2
 472 269 l 1
 524 336 l 2
 531 346 543 350 554 350 c 0
 562 350 571 347 578 342 c 0
 588 335 592 323 592 312 c 0
 592 304 589 296 584 289 c 2
EndSplineSet
Validated: 1
Ligature2: "compound-1" tiki.iku ZWJ tiki.ki
EndChar

StartChar: c.iku.kiku
Encoding: 311 -1 311
Width: 872
VWidth: 1100
Flags: W
HStem: 4 76<324.226 547.774> 686 76<324.226 547.774>
VStem: 57 76<271.226 494.774> 739 76<271.226 494.774>
LayerCount: 2
Fore
SplineSet
436 686 m 0
 269 686 133 550 133 383 c 0
 133 216 269 80 436 80 c 0
 603 80 739 216 739 383 c 0
 739 550 603 686 436 686 c 0
436 762 m 0
 645 762 815 592 815 383 c 0
 815 174 645 4 436 4 c 0
 227 4 57 174 57 383 c 0
 57 592 227 762 436 762 c 0
436 541 m 1
 278 383 l 1
 436 225 l 1
 594 383 l 1
 436 541 l 1
436 627 m 0
 449 627 463 622 473 612 c 2
 665 420 l 2
 675 410 680 396 680 383 c 0
 680 370 675 356 665 346 c 2
 473 154 l 2
 463 144 449 139 436 139 c 0
 423 139 409 144 399 154 c 2
 208 346 l 2
 198 356 192 370 192 383 c 0
 192 396 198 410 208 420 c 2
 399 612 l 2
 409 622 423 627 436 627 c 0
EndSplineSet
Validated: 1
LCarets2: 2 0 0
Ligature2: "compound-1" tiki.iku ZWJ tiki.kiku
EndChar

StartChar: c.iku.ku
Encoding: 312 -1 312
Width: 872
VWidth: 1100
Flags: W
HStem: 4 76<324.226 547.774> 180 76<288.324 349.272 452.608 513.446> 511 75<358.705 418.674 523.705 583.631> 686 76<324.226 547.774>
VStem: 57 76<271.226 494.774> 274 76<425.013 500.153> 358 76<263.625 346.562> 439 75<426.496 500.153> 522 76<263.549 347.833> 739 76<271.226 494.774>
LayerCount: 2
Fore
SplineSet
522 302 m 1025
358 302 m 1025
449 213 m 0
 449 215 449 216 449 218 c 0
 449 236 462 253 481 256 c 0
 488 257 519 265 522 301 c 0
 522 303 521 313 512 329 c 0
 504 342 489 364 469 388 c 0
 453 408 442 432 439 457 c 0
 439 461 439 465 439 470 c 0
 439 503 453 559 539 584 c 0
 543 585 545 586 549 586 c 0
 565 586 581 574 586 558 c 0
 587 554 587 552 587 548 c 0
 587 532 576 516 560 511 c 0
 520 499 514 482 514 471 c 0
 514 469 515 467 515 465 c 0
 516 455 521 445 528 436 c 0
 544 417 564 389 577 368 c 0
 595 338 598 313 598 301 c 0
 598 298 598 295 598 294 c 0
 591 205 507 180 486 180 c 0
 467 180 452 194 449 213 c 0
285 213 m 0
 285 215 284 216 284 218 c 0
 284 236 297 253 316 256 c 0
 323 257 355 265 358 301 c 0
 358 303 357 313 348 329 c 0
 340 342 324 364 304 388 c 0
 288 408 278 432 275 457 c 0
 275 461 274 465 274 470 c 0
 274 503 288 559 374 584 c 0
 378 585 381 586 385 586 c 0
 401 586 416 574 421 558 c 0
 422 554 423 552 423 548 c 0
 423 532 412 516 396 511 c 0
 356 499 350 482 350 471 c 0
 350 469 350 467 350 465 c 0
 351 455 356 445 363 436 c 0
 379 417 400 389 413 368 c 0
 431 338 434 313 434 301 c 0
 434 298 433 295 433 294 c 0
 426 205 343 180 322 180 c 0
 303 180 288 194 285 213 c 0
436 762 m 0
 645 762 815 592 815 383 c 0
 815 174 645 4 436 4 c 0
 227 4 57 174 57 383 c 0
 57 592 227 762 436 762 c 0
436 686 m 0
 269 686 133 550 133 383 c 0
 133 216 269 80 436 80 c 0
 603 80 739 216 739 383 c 0
 739 550 603 686 436 686 c 0
EndSplineSet
Validated: 1
Ligature2: "compound-1" tiki.iku ZWJ tiki.ku
EndChar

StartChar: c.iku.lapi
Encoding: 313 -1 313
Width: 872
VWidth: 1100
Flags: W
HStem: 4 76<330.111 553.774> 254 76<513.299 598.159> 345 76<202.355 440.695> 436 76<513.299 598.159> 686 76<330.111 553.774>
VStem: 62 76<271.226 494.774> 609 75<340.787 425.213> 745 76<271.226 494.774>
LayerCount: 2
Fore
SplineSet
442 762 m 0
 651 762 821 592 821 383 c 0
 821 174 651 4 442 4 c 0
 233 4 62 174 62 383 c 0
 62 592 233 762 442 762 c 0
442 80 m 0
 609 80 745 216 745 383 c 0
 745 550 609 686 442 686 c 0
 275 686 138 550 138 383 c 0
 138 216 275 80 442 80 c 0
556 512 m 0
 627 512 684 454 684 383 c 0
 684 312 627 254 556 254 c 0
 498 254 448 292 432 345 c 1
 237 345 l 2
 216 345 199 362 199 383 c 0
 199 404 216 421 237 421 c 2
 432 421 l 1
 448 474 498 512 556 512 c 0
556 330 m 0
 585 330 609 354 609 383 c 0
 609 412 585 436 556 436 c 0
 527 436 502 412 502 383 c 0
 502 354 527 330 556 330 c 0
EndSplineSet
Validated: 1
Ligature2: "compound-1" tiki.iku ZWJ tiki.lapi
EndChar

StartChar: c.iku.li
Encoding: 314 -1 314
Width: 872
VWidth: 1100
Flags: W
HStem: 4 76<330.111 553.774> 263 240<328.953 405.875> 355 56<409 683.453> 686 76<330.111 553.774>
VStem: 62 76<271.226 494.774> 745 76<271.226 494.774>
LayerCount: 2
Fore
SplineSet
442 762 m 0x9c
 651 762 821 592 821 383 c 0
 821 174 651 4 442 4 c 0
 233 4 62 174 62 383 c 0
 62 592 233 762 442 762 c 0x9c
442 80 m 0
 609 80 745 216 745 383 c 0
 745 550 609 686 442 686 c 0
 275 686 138 550 138 383 c 0
 138 216 275 80 442 80 c 0
684 383 m 0
 684 367 672 355 656 355 c 2
 409 355 l 1xbc
 409 301 l 2
 409 278 391 263 371 263 c 0
 363 263 354 265 347 271 c 2
 242 353 l 2
 232 361 228 372 228 383 c 0
 228 394 232 405 242 413 c 2
 347 495 l 2
 354 501 363 503 371 503 c 0xdc
 391 503 409 488 409 465 c 2
 409 411 l 1
 656 411 l 2xbc
 672 411 684 399 684 383 c 0
EndSplineSet
Validated: 1
Ligature2: "compound-1" tiki.iku ZWJ tiki.li
EndChar

StartChar: c.iku.lika
Encoding: 315 -1 315
Width: 872
VWidth: 1100
Flags: W
HStem: 4 76<324.226 547.774> 303 76<472.438 555.123> 387 76<318.847 394.531> 686 76<324.226 547.774>
VStem: 57 76<271.226 494.774> 563 76<409.094 448.676> 739 76<271.226 494.774>
LayerCount: 2
Fore
SplineSet
436 686 m 0
 269 686 133 550 133 383 c 0
 133 216 269 80 436 80 c 0
 603 80 739 216 739 383 c 0
 739 550 603 686 436 686 c 0
436 762 m 0
 645 762 815 592 815 383 c 0
 815 174 645 4 436 4 c 0
 227 4 57 174 57 383 c 0
 57 592 227 762 436 762 c 0
518 303 m 0
 506 303 481 306 451 324 c 0
 430 337 402 358 383 374 c 0
 374 381 364 385 354 386 c 0
 352 386 350 387 348 387 c 0
 337 387 320 381 308 341 c 0
 303 325 287 314 271 314 c 0
 267 314 265 315 261 316 c 0
 245 321 233 336 233 352 c 0
 233 356 234 359 235 363 c 0
 260 449 316 463 349 463 c 0
 354 463 359 462 363 462 c 0
 388 459 411 449 431 433 c 0
 455 413 477 397 490 389 c 0
 504 380 515 379 518 379 c 0
 554 382 562 415 563 421 c 0
 566 440 582 453 601 453 c 0
 603 453 604 452 606 452 c 0
 625 449 639 434 639 415 c 0
 639 413 638 411 638 409 c 0
 633 375 603 311 525 304 c 0
 524 304 521 303 518 303 c 0
EndSplineSet
Validated: 1
LCarets2: 2 0 0
Ligature2: "compound-1" tiki.iku ZWJ tiki.lika
EndChar

StartChar: c.iku.lili
Encoding: 316 -1 316
Width: 872
VWidth: 1100
Flags: W
HStem: 4 76<324.226 547.774> 241 76<471.949 570.386> 340 86<213.907 288.861> 449 76<471.949 570.386> 686 76<324.226 547.774>
VStem: 57 76<271.226 494.774> 209 85<345.139 420.861> 379 76<333.949 432.051> 588 76<333.949 432.051> 739 76<271.226 494.774>
LayerCount: 2
Fore
SplineSet
436 686 m 0
 269 686 133 550 133 383 c 0
 133 216 269 80 436 80 c 0
 603 80 739 216 739 383 c 0
 739 550 603 686 436 686 c 0
436 762 m 0
 645 762 815 592 815 383 c 0
 815 174 645 4 436 4 c 0
 227 4 57 174 57 383 c 0
 57 592 227 762 436 762 c 0
521 449 m 0
 484 449 455 420 455 383 c 0
 455 346 484 317 521 317 c 0
 558 317 588 346 588 383 c 0
 588 420 558 449 521 449 c 0
521 525 m 0
 600 525 664 462 664 383 c 0
 664 304 600 241 521 241 c 0
 442 241 379 304 379 383 c 0
 379 462 442 525 521 525 c 0
209 383 m 0
 209 407 227 426 251 426 c 0
 275 426 294 407 294 383 c 0
 294 359 275 340 251 340 c 0
 227 340 209 359 209 383 c 0
EndSplineSet
Validated: 1
Ligature2: "compound-1" tiki.iku ZWJ tiki.lili
EndChar

StartChar: c.iku.lupa
Encoding: 317 -1 317
Width: 872
VWidth: 1100
Flags: W
HStem: 4 76<324.226 547.774> 193 76<322 550> 686 76<324.226 547.774>
VStem: 57 76<271.226 494.774> 246 76<269 569.645> 550 76<269 569.645> 739 76<271.226 494.774>
LayerCount: 2
Fore
SplineSet
436 686 m 0
 269 686 133 550 133 383 c 0
 133 216 269 80 436 80 c 0
 603 80 739 216 739 383 c 0
 739 550 603 686 436 686 c 0
436 762 m 0
 645 762 815 592 815 383 c 0
 815 174 645 4 436 4 c 0
 227 4 57 174 57 383 c 0
 57 592 227 762 436 762 c 0
565 193 m 2
 308 193 l 2
 274 193 246 220 246 254 c 2
 246 535 l 2
 246 556 263 573 284 573 c 0
 305 573 322 556 322 535 c 2
 322 269 l 1
 550 269 l 1
 550 535 l 2
 550 556 567 573 588 573 c 0
 609 573 626 556 626 535 c 2
 626 254 l 2
 626 220 599 193 565 193 c 2
EndSplineSet
Validated: 1
Ligature2: "compound-1" tiki.iku ZWJ tiki.lupa
EndChar

StartChar: c.iku.mi
Encoding: 318 -1 318
Width: 872
VWidth: 1100
Flags: W
HStem: 4 76<330.111 553.774> 686 76<330.111 553.774>
VStem: 62 76<271.226 494.774> 322 239<270.953 346.875> 413 57<350 625.257> 745 76<271.226 494.774>
LayerCount: 2
Fore
SplineSet
442 762 m 0xe4
 651 762 821 592 821 383 c 0
 821 174 651 4 442 4 c 0
 233 4 62 174 62 383 c 0
 62 592 233 762 442 762 c 0xe4
442 80 m 0
 609 80 745 216 745 383 c 0
 745 550 609 686 442 686 c 0
 275 686 138 550 138 383 c 0
 138 216 275 80 442 80 c 0
553 289 m 2
 472 184 l 2
 464 174 453 169 442 169 c 0
 431 169 420 174 412 184 c 2
 330 289 l 2
 324 296 322 304 322 312 c 0xf4
 322 332 337 350 360 350 c 2
 413 350 l 1
 413 597 l 2
 413 613 426 626 442 626 c 0
 458 626 470 613 470 597 c 2
 470 350 l 1xec
 523 350 l 2
 546 350 561 332 561 312 c 0xf4
 561 304 559 296 553 289 c 2
EndSplineSet
Validated: 1
LCarets2: 2 0 0
Ligature2: "compound-1" tiki.iku ZWJ tiki.mi
EndChar

StartChar: c.iku.muku
Encoding: 319 -1 319
Width: 872
VWidth: 1100
Flags: W
HStem: 4 76<324.226 547.774> 214 76<363.81 508.19> 408 76<296 576> 686 76<324.226 547.774>
VStem: 57 76<271.226 494.774> 739 76<271.226 494.774>
LayerCount: 2
Fore
SplineSet
436 686 m 0
 269 686 133 550 133 383 c 0
 133 216 269 80 436 80 c 0
 603 80 739 216 739 383 c 0
 739 550 603 686 436 686 c 0
436 762 m 0
 645 762 815 592 815 383 c 0
 815 174 645 4 436 4 c 0
 227 4 57 174 57 383 c 0
 57 592 227 762 436 762 c 0
436 214 m 0
 296 214 216 345 216 432 c 0
 216 445 221 459 230 468 c 0
 239 478 253 484 267 484 c 2
 606 484 l 2
 620 484 633 478 642 468 c 0
 651 459 656 445 656 432 c 0
 656 345 576 214 436 214 c 0
296 408 m 1
 312 340 369 290 436 290 c 0
 503 290 560 340 576 408 c 1
 296 408 l 1
EndSplineSet
Validated: 1
Ligature2: "compound-1" tiki.iku ZWJ tiki.muku
EndChar

StartChar: c.iku.muti
Encoding: 320 -1 320
Width: 872
VWidth: 1100
Flags: W
HStem: 4 76<324.226 547.774> 189 57<363.278 510.211> 413 37<306.375 326.22 545.78 565.625> 511 38<272.685 327.315 544.685 599.315> 686 76<324.226 547.774>
VStem: 57 76<271.226 494.774> 232 38<452.494 508.315> 248 57<304.188 415.074> 330 38<452.352 508.315> 504 38<452.352 508.315> 567 57<303.528 415.074> 602 38<452.494 508.315> 739 76<271.226 494.774>
LayerCount: 2
Fore
SplineSet
436 762 m 0xfcc8
 645 762 815 592 815 383 c 0
 815 174 645 4 436 4 c 0
 227 4 57 174 57 383 c 0
 57 592 227 762 436 762 c 0xfcc8
436 80 m 0
 603 80 739 216 739 383 c 0
 739 550 603 686 436 686 c 0
 269 686 133 550 133 383 c 0
 133 216 269 80 436 80 c 0
640 481 m 0xfcd8
 640 460 631 442 616 429 c 1
 621 412 624 394 624 376 c 0
 624 326 604 279 569 244 c 0
 534 209 486 189 436 189 c 0
 386 189 338 209 303 244 c 0
 268 279 248 326 248 376 c 0xfde8
 248 394 251 412 256 429 c 1
 241 442 232 460 232 481 c 0xfec8
 232 519 262 549 300 549 c 0
 338 549 368 519 368 481 c 0
 368 447 343 418 310 413 c 1
 307 401 305 389 305 376 c 0
 305 341 319 309 344 284 c 0
 369 259 401 246 436 246 c 0
 471 246 504 259 529 284 c 0
 554 309 567 341 567 376 c 0xfde8
 567 389 565 401 562 413 c 1
 529 418 504 447 504 481 c 0
 504 519 534 549 572 549 c 0
 610 549 640 519 640 481 c 0xfcd8
300 511 m 0
 283 511 270 498 270 481 c 0xfec8
 270 464 283 450 300 450 c 0
 317 450 330 464 330 481 c 0
 330 498 317 511 300 511 c 0
542 481 m 0
 542 464 555 450 572 450 c 0
 589 450 602 464 602 481 c 0xfcd8
 602 498 589 511 572 511 c 0
 555 511 542 498 542 481 c 0
EndSplineSet
Validated: 1
Ligature2: "compound-1" tiki.iku ZWJ tiki.muti
EndChar

StartChar: c.iku.paka
Encoding: 321 -1 321
Width: 872
VWidth: 1100
Flags: W
HStem: 4 76<324.226 547.774> 289 76<376.635 495.427> 686 76<324.226 547.774>
VStem: 57 76<271.226 494.774> 262 75<147.355 248.02> 535 76<147.355 248.02> 739 76<271.226 494.774>
LayerCount: 2
Fore
SplineSet
436 762 m 0
 645 762 815 592 815 383 c 0
 815 174 645 4 436 4 c 0
 227 4 57 174 57 383 c 0
 57 592 227 762 436 762 c 0
436 80 m 0
 603 80 739 216 739 383 c 0
 739 550 603 686 436 686 c 0
 269 686 133 550 133 383 c 0
 133 216 269 80 436 80 c 0
573 144 m 0
 552 144 535 161 535 182 c 0
 535 241 490 289 436 289 c 0
 382 289 337 241 337 182 c 0
 337 161 321 144 300 144 c 0
 279 144 262 161 262 182 c 0
 262 283 340 365 436 365 c 0
 532 365 611 283 611 182 c 0
 611 161 594 144 573 144 c 0
555 447 m 2
 562 440 566 430 566 420 c 0
 566 410 562 400 555 393 c 0
 548 386 538 382 528 382 c 0
 518 382 508 386 501 393 c 2
 436 458 l 1
 371 393 l 2
 364 386 354 382 344 382 c 0
 334 382 325 386 318 393 c 0
 311 400 306 410 306 420 c 0
 306 430 311 440 318 447 c 2
 382 512 l 1
 318 577 l 2
 311 584 306 593 306 603 c 0
 306 613 311 623 318 630 c 0
 325 637 334 641 344 641 c 0
 354 641 364 637 371 630 c 2
 436 565 l 1
 501 630 l 2
 508 637 518 641 528 641 c 0
 538 641 548 637 555 630 c 0
 562 623 566 613 566 603 c 0
 566 593 562 584 555 577 c 2
 490 512 l 1
 555 447 l 2
EndSplineSet
Validated: 1
LCarets2: 2 0 0
Ligature2: "compound-1" tiki.iku ZWJ tiki.paka
EndChar

StartChar: c.iku.pali
Encoding: 322 -1 322
Width: 872
VWidth: 1100
Flags: W
HStem: 4 76<330.157 553.774> 289 76<382.573 501.185> 398 76<407.72 476.28> 550 75<407.72 476.28> 686 76<330.157 553.774>
VStem: 63 75<271.226 494.774> 267 76<147.355 248.02> 328 76<477.72 546.234> 480 76<477.72 546.234> 540 76<147.355 249.073> 745 76<271.226 494.774>
LayerCount: 2
Fore
SplineSet
442 686 m 0xfc20
 275 686 138 550 138 383 c 0
 138 216 275 80 442 80 c 0
 609 80 745 216 745 383 c 0
 745 550 609 686 442 686 c 0xfc20
442 762 m 0
 651 762 821 592 821 383 c 0
 821 174 651 4 442 4 c 0
 233 4 63 174 63 383 c 0
 63 592 233 762 442 762 c 0
578 144 m 0
 557 144 540 161 540 182 c 0
 540 241 496 289 442 289 c 0
 388 289 343 241 343 182 c 0
 343 161 326 144 305 144 c 0
 284 144 267 161 267 182 c 0
 267 283 346 365 442 365 c 0
 538 365 616 283 616 182 c 0xfe60
 616 161 599 144 578 144 c 0
442 550 m 0
 421 550 404 533 404 512 c 0
 404 491 421 474 442 474 c 0
 463 474 480 491 480 512 c 0xfda0
 480 533 463 550 442 550 c 0
442 625 m 0
 505 625 556 575 556 512 c 0
 556 449 505 398 442 398 c 0
 379 398 328 449 328 512 c 0
 328 575 379 625 442 625 c 0
EndSplineSet
Validated: 1
Ligature2: "compound-1" tiki.iku ZWJ tiki.pali
EndChar

StartChar: c.iku.puka
Encoding: 323 -1 323
Width: 872
VWidth: 1100
Flags: W
HStem: 4 76<324.226 547.774> 345 76<303 569> 686 76<324.226 547.774>
VStem: 57 76<271.226 494.774> 227 76<227.355 345 421 538.645> 569 76<227.355 345 421 538.645> 739 76<271.226 494.774>
CounterMasks: 1 e0
LayerCount: 2
Fore
SplineSet
436 762 m 0
 645 762 815 592 815 383 c 0
 815 174 645 4 436 4 c 0
 227 4 57 174 57 383 c 0
 57 592 227 762 436 762 c 0
436 80 m 0
 603 80 739 216 739 383 c 0
 739 550 603 686 436 686 c 0
 269 686 133 550 133 383 c 0
 133 216 269 80 436 80 c 0
645 504 m 2
 645 262 l 2
 645 241 628 224 607 224 c 0
 586 224 569 241 569 262 c 2
 569 345 l 1
 303 345 l 1
 303 262 l 2
 303 241 286 224 265 224 c 0
 244 224 227 241 227 262 c 2
 227 504 l 2
 227 525 244 542 265 542 c 0
 286 542 303 525 303 504 c 2
 303 421 l 1
 569 421 l 1
 569 504 l 2
 569 525 586 542 607 542 c 0
 628 542 645 525 645 504 c 2
EndSplineSet
Validated: 1
LCarets2: 2 0 0
Ligature2: "compound-1" tiki.iku ZWJ tiki.puka
EndChar

StartChar: c.iku.pula
Encoding: 324 -1 324
Width: 872
VWidth: 1100
Flags: W
HStem: 4 76<324.226 547.774> 238 76<376.635 495.427> 686 76<324.226 547.774>
VStem: 57 76<271.226 494.774> 262 75<354.98 455.645> 535 76<354.98 455.645> 739 76<271.226 494.774>
LayerCount: 2
Fore
SplineSet
436 686 m 0
 269 686 133 550 133 383 c 0
 133 216 269 80 436 80 c 0
 603 80 739 216 739 383 c 0
 739 550 603 686 436 686 c 0
436 762 m 0
 645 762 815 592 815 383 c 0
 815 174 645 4 436 4 c 0
 227 4 57 174 57 383 c 0
 57 592 227 762 436 762 c 0
436 238 m 0
 340 238 262 320 262 421 c 0
 262 442 279 459 300 459 c 0
 321 459 337 442 337 421 c 0
 337 362 382 314 436 314 c 0
 490 314 535 362 535 421 c 0
 535 442 552 459 573 459 c 0
 594 459 611 442 611 421 c 0
 611 320 532 238 436 238 c 0
EndSplineSet
Validated: 1
Ligature2: "compound-1" tiki.iku ZWJ tiki.pula
EndChar

StartChar: c.iku.taka
Encoding: 325 -1 325
Width: 872
VWidth: 1100
Flags: W
HStem: 4 76<324.226 550.025> 686 76<324.226 547.774>
VStem: 57 76<271.226 494.774> 739 76<269.967 494.774>
LayerCount: 2
Fore
SplineSet
371 180 m 0
 366 180 362 181 357 183 c 2
 251 227 l 1
 250 228 l 1
 235 234 227 248 227 263 c 0
 227 268 228 272 230 277 c 2
 348 562 l 1
 348 563 l 2
 349 566 351 569 353 571 c 0
 357 576 362 580 368 583 c 0
 373 585 379 585 384 585 c 0
 388 585 393 585 397 583 c 0
 402 581 407 577 411 573 c 0
 414 570 416 566 418 562 c 2
 521 312 l 1
 593 342 l 2
 598 344 602 345 607 345 c 0
 622 345 637 336 643 321 c 0
 645 316 645 312 645 307 c 0
 645 292 637 278 622 272 c 2
 515 228 l 2
 510 226 506 225 501 225 c 0
 486 225 472 233 466 248 c 2
 383 448 l 1
 314 283 l 1
 386 253 l 2
 401 247 409 233 409 218 c 0
 409 213 409 209 407 204 c 0
 401 189 386 180 371 180 c 0
436 762 m 0
 645 762 815 592 815 383 c 0
 815 174 645 4 436 4 c 0
 227 4 57 174 57 383 c 0
 57 592 227 762 436 762 c 0
436 686 m 0
 269 686 133 550 133 383 c 0
 133 216 269 80 436 80 c 0
 468 80 500 85 529 94 c 0
 651 133 739 248 739 383 c 0
 739 550 603 686 436 686 c 0
EndSplineSet
Validated: 1
Ligature2: "compound-1" tiki.iku ZWJ tiki.taka
EndChar

StartChar: c.iku.tama
Encoding: 326 -1 326
Width: 872
VWidth: 1100
Flags: W
HStem: 4 76<330.157 553.774> 254 76<202.355 680.819> 436 76<202.355 680.819> 686 76<330.157 553.774>
VStem: 63 75<271.226 494.774> 745 76<271.226 494.774>
LayerCount: 2
Fore
SplineSet
442 686 m 0
 275 686 138 550 138 383 c 0
 138 216 275 80 442 80 c 0
 609 80 745 216 745 383 c 0
 745 550 609 686 442 686 c 0
442 762 m 0
 651 762 821 592 821 383 c 0
 821 174 651 4 442 4 c 0
 233 4 63 174 63 383 c 0
 63 592 233 762 442 762 c 0
647 436 m 2
 237 436 l 2
 216 436 199 453 199 474 c 0
 199 495 216 512 237 512 c 2
 647 512 l 2
 668 512 684 495 684 474 c 0
 684 453 668 436 647 436 c 2
647 254 m 2
 237 254 l 2
 216 254 199 271 199 292 c 0
 199 313 216 330 237 330 c 2
 647 330 l 2
 668 330 684 313 684 292 c 0
 684 271 668 254 647 254 c 2
EndSplineSet
Validated: 1
Ligature2: "compound-1" tiki.iku ZWJ tiki.tama
EndChar

StartChar: c.iku.tiki
Encoding: 327 -1 327
Width: 872
VWidth: 1100
Flags: W
HStem: 4 76<324.226 547.774> 175 75<380.307 516.333> 370 221<246.317 313.845> 385 75<363 445.534> 491 76<380.291 517.32> 686 76<324.226 547.774>
VStem: 57 76<271.226 494.774> 243 75<513 587.819> 569 76<302.511 439.32> 739 76<271.226 494.774>
LayerCount: 2
Fore
SplineSet
436 762 m 0xc7c0
 645 762 815 592 815 383 c 0
 815 174 645 4 436 4 c 0
 227 4 57 174 57 383 c 0
 57 592 227 762 436 762 c 0xc7c0
436 80 m 0
 603 80 739 216 739 383 c 0
 739 550 603 686 436 686 c 0
 269 686 133 550 133 383 c 0
 133 216 269 80 436 80 c 0
449 567 m 0xcfc0
 557 567 645 479 645 371 c 0
 645 263 558 175 449 175 c 0
 397 175 347 195 310 232 c 0
 303 239 299 249 299 259 c 0
 299 280 316 297 337 297 c 0
 347 297 357 293 364 286 c 0
 387 263 417 250 449 250 c 0
 515 250 569 305 569 371 c 0
 569 437 515 491 449 491 c 0
 417 491 387 478 364 456 c 2
 363 455 l 1
 407 460 l 2
 409 460 409 460 411 460 c 0
 432 460 449 443 449 422 c 0
 449 403 435 387 416 385 c 2xdfc0
 297 370 l 2
 294 370 292 370 289 370 c 0
 255 370 227 398 227 432 c 0
 227 435 228 436 228 439 c 2
 243 558 l 2
 245 577 261 591 280 591 c 0xe7c0
 301 591 318 575 318 554 c 0
 318 552 318 551 318 549 c 2
 314 513 l 1
 351 548 398 567 449 567 c 0xcfc0
EndSplineSet
Validated: 1
Ligature2: "compound-1" tiki.iku ZWJ tiki.tiki
EndChar

StartChar: c.iku.tiku
Encoding: 328 -1 328
Width: 872
VWidth: 1100
Flags: W
HStem: 4 76<324.226 547.774> 497 76<322 550> 686 76<324.226 547.774>
VStem: 57 76<271.226 494.774> 246 76<196.355 497> 550 76<196.355 497> 739 76<271.226 494.774>
LayerCount: 2
Fore
SplineSet
436 686 m 0
 269 686 133 550 133 383 c 0
 133 216 269 80 436 80 c 0
 603 80 739 216 739 383 c 0
 739 550 603 686 436 686 c 0
436 762 m 0
 645 762 815 592 815 383 c 0
 815 174 645 4 436 4 c 0
 227 4 57 174 57 383 c 0
 57 592 227 762 436 762 c 0
588 193 m 0
 567 193 550 210 550 231 c 2
 550 497 l 1
 322 497 l 1
 322 231 l 2
 322 210 305 193 284 193 c 0
 263 193 246 210 246 231 c 2
 246 512 l 2
 246 546 274 573 308 573 c 2
 565 573 l 2
 599 573 626 546 626 512 c 2
 626 231 l 2
 626 210 609 193 588 193 c 0
EndSplineSet
Validated: 1
Ligature2: "compound-1" tiki.iku ZWJ tiki.tiku
EndChar

StartChar: c.iku.tila
Encoding: 329 -1 329
Width: 872
VWidth: 1100
Flags: W
HStem: 4 76<324.226 547.774> 686 76<324.226 547.774>
VStem: 57 76<271.226 494.774> 316 240<419.125 495.047> 408 57<140.743 416> 739 76<271.226 494.774>
LayerCount: 2
Fore
SplineSet
436 762 m 0xe4
 645 762 815 592 815 383 c 0
 815 174 645 4 436 4 c 0
 227 4 57 174 57 383 c 0
 57 592 227 762 436 762 c 0xe4
436 80 m 0
 603 80 739 216 739 383 c 0
 739 550 603 686 436 686 c 0
 269 686 133 550 133 383 c 0
 133 216 269 80 436 80 c 0
518 416 m 2
 465 416 l 1
 465 169 l 2
 465 153 452 140 436 140 c 0
 420 140 408 153 408 169 c 2
 408 416 l 1xec
 354 416 l 2
 331 416 316 434 316 454 c 0
 316 462 318 470 324 477 c 2
 406 582 l 2
 414 592 425 597 436 597 c 0
 447 597 458 592 466 582 c 2
 548 477 l 2
 554 470 556 462 556 454 c 0xf4
 556 434 541 416 518 416 c 2
EndSplineSet
Validated: 1
Ligature2: "compound-1" tiki.iku ZWJ tiki.tila
EndChar

StartChar: c.iku.tilu
Encoding: 330 -1 330
Width: 872
VWidth: 1100
Flags: W
HStem: 4 76<324.226 547.774> 221 76<471.167 555.123> 305 75<318.847 394.531> 385 76<472.438 555.123> 469 76<318.847 394.531> 686 76<324.226 547.774>
VStem: 57 76<271.226 494.774> 234 74<235.021 296.284 399.988 460.295> 563 76<305.192 366.676 469.284 530.754> 739 76<271.226 494.774>
LayerCount: 2
Fore
SplineSet
436 686 m 0
 269 686 133 550 133 383 c 0
 133 216 269 80 436 80 c 0
 603 80 739 216 739 383 c 0
 739 550 603 686 436 686 c 0
436 762 m 0
 645 762 815 592 815 383 c 0
 815 174 645 4 436 4 c 0
 227 4 57 174 57 383 c 0
 57 592 227 762 436 762 c 0
518 385 m 0
 506 385 481 388 451 406 c 0
 430 419 402 440 383 456 c 0
 374 463 364 468 354 469 c 0
 352 469 350 469 348 469 c 0
 337 469 320 463 308 423 c 0
 303 407 287 396 271 396 c 0
 267 396 265 397 261 398 c 0
 245 403 234 418 234 434 c 0
 234 438 234 441 235 445 c 0
 260 531 316 545 349 545 c 0
 354 545 359 544 363 544 c 0
 388 541 411 531 431 515 c 0
 455 495 477 479 490 471 c 0
 504 462 515 461 518 461 c 0
 557 464 563 500 563 502 c 0
 566 521 582 535 601 535 c 0
 603 535 604 534 606 534 c 0
 625 531 639 516 639 497 c 0
 639 495 638 493 638 491 c 0
 633 457 603 393 525 386 c 0
 524 386 521 385 518 385 c 0
518 221 m 0
 506 221 481 224 451 242 c 0
 430 255 402 276 383 292 c 0
 374 299 364 303 354 304 c 0
 352 304 350 305 348 305 c 0
 337 305 320 299 308 259 c 0
 303 242 287 232 271 232 c 0
 267 232 265 232 261 233 c 0
 245 238 234 254 234 270 c 0
 234 274 234 277 235 281 c 0
 260 367 316 380 349 380 c 0
 354 380 359 380 363 380 c 0
 388 377 411 366 431 350 c 0
 455 330 477 315 490 307 c 0
 504 298 515 297 518 297 c 0
 554 300 562 333 563 339 c 0
 566 358 583 371 601 371 c 0
 603 371 604 370 606 370 c 0
 625 367 639 352 639 333 c 0
 639 331 638 329 638 327 c 0
 633 293 603 228 525 221 c 0
 524 221 521 221 518 221 c 0
EndSplineSet
Validated: 1
Ligature2: "compound-1" tiki.iku ZWJ tiki.tilu
EndChar

StartChar: c.iku.timi
Encoding: 331 -1 331
Width: 872
VWidth: 1100
Flags: W
HStem: 4 76<324.226 547.774> 140 76<401.355 470.645> 550 76<340.043 519.131> 686 76<324.226 547.774>
VStem: 57 76<271.226 494.774> 396 76<144.584 211.416 243.355 345.999> 534 76<501 530.676> 739 76<271.226 494.774>
LayerCount: 2
Fore
SplineSet
436 140 m 0
 415 140 398 157 398 178 c 0
 398 199 415 216 436 216 c 0
 457 216 474 199 474 178 c 0
 474 157 457 140 436 140 c 0
436 686 m 0
 269 686 133 550 133 383 c 0
 133 216 269 80 436 80 c 0
 603 80 739 216 739 383 c 0
 739 550 603 686 436 686 c 0
436 762 m 0
 645 762 815 592 815 383 c 0
 815 174 645 4 436 4 c 0
 227 4 57 174 57 383 c 0
 57 592 227 762 436 762 c 0
434 240 m 0
 413 240 396 257 396 278 c 2
 396 330 l 2
 396 331 396 334 396 335 c 0
 396 337 396 339 396 341 c 0
 396 349 396 359 400 369 c 0
 405 385 417 399 432 409 c 1
 435 410 l 1
 529 472 534 501 534 501 c 1
 534 512 534 548 423 550 c 2
 422 550 l 1
 422 550 421 550 420 550 c 0
 409 550 358 548 327 518 c 0
 320 511 311 507 301 507 c 0
 291 507 280 510 273 518 c 0
 266 525 263 535 263 545 c 0
 263 555 266 565 274 572 c 0
 325 622 400 626 420 626 c 0
 422 626 424 626 425 626 c 0
 506 624 610 602 610 500 c 0
 610 456 567 407 476 347 c 1
 474 346 l 2
 473 346 473 345 472 344 c 0
 472 342 472 338 472 336 c 0
 472 334 472 332 472 330 c 2
 472 278 l 2
 472 257 455 240 434 240 c 0
EndSplineSet
Validated: 1
Ligature2: "compound-1" tiki.iku ZWJ tiki.timi
EndChar

StartChar: c.iku.tipi
Encoding: 332 -1 332
Width: 872
VWidth: 1100
Flags: W
HStem: 4 76<324.226 547.774> 193 76<249.355 550> 497 76<249.355 550> 686 76<324.226 547.774>
VStem: 57 76<271.226 494.774> 550 76<269 497> 739 76<271.226 494.774>
LayerCount: 2
Fore
SplineSet
436 686 m 0
 269 686 133 550 133 383 c 0
 133 216 269 80 436 80 c 0
 603 80 739 216 739 383 c 0
 739 550 603 686 436 686 c 0
436 762 m 0
 645 762 815 592 815 383 c 0
 815 174 645 4 436 4 c 0
 227 4 57 174 57 383 c 0
 57 592 227 762 436 762 c 0
565 193 m 2
 284 193 l 2
 263 193 246 210 246 231 c 0
 246 252 263 269 284 269 c 2
 550 269 l 1
 550 497 l 1
 284 497 l 2
 263 497 246 514 246 535 c 0
 246 556 263 573 284 573 c 2
 565 573 l 2
 599 573 626 546 626 512 c 2
 626 254 l 2
 626 220 599 193 565 193 c 2
EndSplineSet
Validated: 1
LCarets2: 2 0 0
Ligature2: "compound-1" tiki.iku ZWJ tiki.tipi
EndChar

StartChar: c.iku.titi
Encoding: 333 -1 333
Width: 872
VWidth: 1100
Flags: W
HStem: 4 76<324.226 547.774> 193 76<230.355 641.645> 345 76<268.355 337.645 401.355 470.645 534.355 603.645> 497 76<230.355 641.645> 686 76<324.226 547.774>
VStem: 57 76<271.226 494.774> 265 76<348.355 417.645> 398 76<348.355 417.645> 531 76<348.355 417.645> 739 76<271.226 494.774>
LayerCount: 2
Fore
SplineSet
436 686 m 0
 269 686 133 550 133 383 c 0
 133 216 269 80 436 80 c 0
 603 80 739 216 739 383 c 0
 739 550 603 686 436 686 c 0
436 762 m 0
 645 762 815 592 815 383 c 0
 815 174 645 4 436 4 c 0
 227 4 57 174 57 383 c 0
 57 592 227 762 436 762 c 0
398 383 m 0
 398 404 415 421 436 421 c 0
 457 421 474 404 474 383 c 0
 474 362 457 345 436 345 c 0
 415 345 398 362 398 383 c 0
607 497 m 2
 265 497 l 2
 244 497 227 514 227 535 c 0
 227 556 244 573 265 573 c 2
 607 573 l 2
 628 573 645 556 645 535 c 0
 645 514 628 497 607 497 c 2
607 193 m 2
 265 193 l 2
 244 193 227 210 227 231 c 0
 227 252 244 269 265 269 c 2
 607 269 l 2
 628 269 645 252 645 231 c 0
 645 210 628 193 607 193 c 2
265 383 m 0
 265 404 282 421 303 421 c 0
 324 421 341 404 341 383 c 0
 341 362 324 345 303 345 c 0
 282 345 265 362 265 383 c 0
531 383 m 0
 531 404 548 421 569 421 c 0
 590 421 607 404 607 383 c 0
 607 362 590 345 569 345 c 0
 548 345 531 362 531 383 c 0
EndSplineSet
Validated: 1
Ligature2: "compound-1" tiki.iku ZWJ tiki.titi
EndChar

StartChar: c.iku.tu
Encoding: 334 -1 334
Width: 872
VWidth: 1100
Flags: W
HStem: 4 76<330.157 553.774> 686 76<330.157 553.774>
VStem: 63 75<271.226 494.774> 313 76<143.355 622.645> 495 76<143.355 622.645> 745 76<271.226 494.774>
LayerCount: 2
Fore
SplineSet
442 686 m 0
 275 686 138 550 138 383 c 0
 138 216 275 80 442 80 c 0
 609 80 745 216 745 383 c 0
 745 550 609 686 442 686 c 0
442 762 m 0
 651 762 821 592 821 383 c 0
 821 174 651 4 442 4 c 0
 233 4 63 174 63 383 c 0
 63 592 233 762 442 762 c 0
533 140 m 0
 512 140 495 157 495 178 c 2
 495 588 l 2
 495 609 512 626 533 626 c 0
 554 626 571 609 571 588 c 2
 571 178 l 2
 571 157 554 140 533 140 c 0
351 140 m 0
 330 140 313 157 313 178 c 2
 313 588 l 2
 313 609 330 626 351 626 c 0
 372 626 389 609 389 588 c 2
 389 178 l 2
 389 157 372 140 351 140 c 0
EndSplineSet
Validated: 1
Ligature2: "compound-1" tiki.iku ZWJ tiki.tu
EndChar

StartChar: c.iku.tuki
Encoding: 335 -1 335
Width: 872
VWidth: 1100
Flags: W
HStem: 4 76<324.226 547.774> 155 76<380.692 491.534> 398 76<380.692 491.534> 474 139<296.309 339.104 532.896 575.713> 497 144<401.355 470.645> 686 76<324.226 547.774>
VStem: 57 76<271.226 494.774> 267 102<512.75 573.25> 277 76<259.404 370.308> 398 76<500.355 637.645> 503 102<512.75 573.25> 520 75<259.404 370.308> 739 76<271.226 494.774>
LayerCount: 2
Fore
SplineSet
436 686 m 0xc648
 269 686 133 550 133 383 c 0
 133 216 269 80 436 80 c 0
 603 80 739 216 739 383 c 0
 739 550 603 686 436 686 c 0xc648
436 762 m 0
 645 762 815 592 815 383 c 0
 815 174 645 4 436 4 c 0
 227 4 57 174 57 383 c 0
 57 592 227 762 436 762 c 0
436 398 m 0xe6d8
 390 398 353 361 353 315 c 0
 353 269 390 231 436 231 c 0
 482 231 520 269 520 315 c 0
 520 361 482 398 436 398 c 0xe6d8
436 474 m 0
 524 474 595 403 595 315 c 0
 595 227 524 155 436 155 c 0
 348 155 277 227 277 315 c 0
 277 403 348 474 436 474 c 0
436 497 m 0xce48
 415 497 398 514 398 535 c 2
 398 603 l 2
 398 624 415 641 436 641 c 0
 457 641 474 624 474 603 c 2
 474 535 l 2
 474 514 457 497 436 497 c 0xce48
331 474 m 0xd748
 316 474 302 482 296 497 c 2xcf48
 270 560 l 2
 268 565 267 570 267 575 c 0
 267 590 276 604 291 610 c 0
 296 612 300 613 305 613 c 0
 320 613 334 604 340 589 c 2
 366 526 l 2
 368 521 369 517 369 512 c 0
 369 497 361 483 346 477 c 0
 341 475 336 474 331 474 c 0xd748
541 474 m 0xd668
 536 474 531 475 526 477 c 0
 511 483 503 497 503 512 c 0
 503 517 504 521 506 526 c 2
 532 589 l 2
 538 604 552 613 567 613 c 0xd668
 572 613 577 612 582 610 c 0
 597 604 605 590 605 575 c 0
 605 570 604 565 602 560 c 2
 576 497 l 2xce68
 570 482 556 474 541 474 c 0xd668
EndSplineSet
Validated: 1
Ligature2: "compound-1" tiki.iku ZWJ tiki.tuki
EndChar

StartChar: c.iku.tula
Encoding: 336 -1 336
Width: 872
VWidth: 1100
Flags: W
HStem: 4 76<324.226 547.774> 153 61<378.683 493.317> 263 76<401.355 470.645> 388 72<379.085 492.915> 686 76<324.226 547.774>
VStem: 57 76<271.226 494.774> 269 61<506.252 603.688> 288 61<243.683 358.468> 398 76<266.355 335.645> 523 61<243.683 358.468> 542 61<506.252 603.688> 739 76<271.226 494.774>
LayerCount: 2
Fore
SplineSet
436 762 m 0xfc90
 645 762 815 592 815 383 c 0
 815 174 645 4 436 4 c 0
 227 4 57 174 57 383 c 0
 57 592 227 762 436 762 c 0xfc90
436 80 m 0
 603 80 739 216 739 383 c 0
 739 550 603 686 436 686 c 0
 269 686 133 550 133 383 c 0
 133 216 269 80 436 80 c 0
520 423 m 1
 559 396 584 352 584 301 c 0
 584 219 518 153 436 153 c 0
 354 153 288 219 288 301 c 0xfdd0
 288 352 313 396 352 423 c 1
 302 453 269 510 269 575 c 0
 269 592 283 605 300 605 c 0
 317 605 330 592 330 575 c 0
 330 512 377 460 436 460 c 0
 495 460 542 512 542 575 c 0
 542 592 556 605 573 605 c 0
 590 605 603 592 603 575 c 0xfeb0
 603 510 570 453 520 423 c 1
436 214 m 0
 484 214 523 253 523 301 c 0
 523 349 484 388 436 388 c 0
 388 388 349 349 349 301 c 0
 349 253 388 214 436 214 c 0
398 301 m 0
 398 322 415 339 436 339 c 0
 457 339 474 322 474 301 c 0
 474 280 457 263 436 263 c 0
 415 263 398 280 398 301 c 0
EndSplineSet
Validated: 1
Ligature2: "compound-1" tiki.iku ZWJ tiki.tula
EndChar

StartChar: c.iku.tulu
Encoding: 337 -1 337
Width: 872
VWidth: 1100
Flags: W
HStem: 4 76<324.226 547.774> 345 76<196.355 339.09 532.91 675.645> 686 76<324.226 547.774>
VStem: 57 76<271.226 494.774> 398 76<143.355 286.09 479.91 622.645> 739 76<271.226 494.774>
CounterMasks: 1 fc
LayerCount: 2
Fore
SplineSet
436 762 m 0
 645 762 815 592 815 383 c 0
 815 174 645 4 436 4 c 0
 227 4 57 174 57 383 c 0
 57 592 227 762 436 762 c 0
436 80 m 0
 603 80 739 216 739 383 c 0
 739 550 603 686 436 686 c 0
 269 686 133 550 133 383 c 0
 133 216 269 80 436 80 c 0
641 421 m 2
 662 421 679 404 679 383 c 0
 679 362 662 345 641 345 c 2
 543 345 l 1
 532 313 506 287 474 276 c 1
 474 178 l 2
 474 157 457 140 436 140 c 0
 415 140 398 157 398 178 c 2
 398 276 l 1
 366 287 340 313 329 345 c 1
 231 345 l 2
 210 345 193 362 193 383 c 0
 193 404 210 421 231 421 c 2
 329 421 l 1
 340 453 366 479 398 490 c 1
 398 588 l 2
 398 609 415 626 436 626 c 0
 457 626 474 609 474 588 c 2
 474 490 l 1
 506 479 532 453 543 421 c 1
 641 421 l 2
436 345 m 0
 457 345 474 362 474 383 c 0
 474 404 457 421 436 421 c 0
 415 421 398 404 398 383 c 0
 398 362 415 345 436 345 c 0
EndSplineSet
Validated: 1
Ligature2: "compound-1" tiki.iku ZWJ tiki.tulu
EndChar

StartChar: c.iku.uli
Encoding: 338 -1 338
Width: 872
VWidth: 1100
Flags: W
HStem: 4 76<324.226 547.774> 361 76<391 481> 686 76<324.226 547.774>
VStem: 57 76<271.226 494.774> 315 206<159.519 226.845> 329 75<281 343.534> 739 76<271.226 494.774>
LayerCount: 2
Fore
SplineSet
375 141 m 0xfa
 359 141 344 148 333 159 c 0
 322 170 315 185 315 201 c 0xfa
 315 203 316 205 316 208 c 2
 329 314 l 2
 331 333 348 347 367 347 c 0
 369 347 369 347 371 347 c 0
 390 344 404 328 404 309 c 0
 404 307 404 306 404 304 c 2xf6
 401 281 l 1
 481 361 l 1
 300 361 l 2
 294 361 288 362 283 364 c 0
 280 365 278 367 276 369 c 0
 274 371 273 372 271 374 c 0
 268 377 265 380 264 384 c 0
 262 388 262 392 262 397 c 0
 262 398 262 399 262 400 c 0
 262 405 263 409 265 413 c 0
 266 417 268 420 271 423 c 0
 272 424 272 425 273 426 c 2
 461 613 l 2
 468 620 478 625 488 625 c 0
 498 625 507 620 514 613 c 0
 521 606 525 597 525 587 c 0
 525 577 521 567 514 560 c 2
 391 437 l 1
 573 437 l 2
 579 437 585 435 590 432 c 0
 592 431 594 430 596 428 c 0
 598 427 599 425 601 423 c 0
 604 420 607 417 608 413 c 0
 610 409 611 405 611 400 c 0
 611 399 611 398 611 397 c 0
 611 392 609 387 607 383 c 0
 606 380 604 378 602 375 c 0
 601 374 600 373 599 372 c 2
 455 227 l 1
 478 230 l 2
 480 230 481 231 483 231 c 0
 504 231 521 214 521 193 c 0
 521 174 507 157 488 155 c 2
 382 142 l 2
 379 142 377 141 375 141 c 0xfa
436 762 m 0
 645 762 815 592 815 383 c 0
 815 174 645 4 436 4 c 0
 227 4 57 174 57 383 c 0
 57 592 227 762 436 762 c 0
436 686 m 0
 269 686 133 550 133 383 c 0
 133 216 269 80 436 80 c 0
 603 80 739 216 739 383 c 0
 739 550 603 686 436 686 c 0
EndSplineSet
Validated: 1
Ligature2: "compound-1" tiki.iku ZWJ tiki.uli
EndChar

StartChar: c.iku.upi
Encoding: 339 -1 339
Width: 872
VWidth: 1100
Flags: W
HStem: 4 76<324.226 547.774> 149 76<389.218 482.844> 686 76<324.226 547.774>
VStem: 57 76<271.226 494.774> 300 75<240.085 330.611> 398 76<408.32 488> 497 76<240.085 330.611> 739 76<271.226 494.774>
LayerCount: 2
Fore
SplineSet
436 762 m 0
 645 762 815 592 815 383 c 0
 815 174 645 4 436 4 c 0
 227 4 57 174 57 383 c 0
 57 592 227 762 436 762 c 0
436 80 m 0
 603 80 739 216 739 383 c 0
 739 550 603 686 436 686 c 0
 269 686 133 550 133 383 c 0
 133 216 269 80 436 80 c 0
586 468 m 2
 591 461 594 453 594 445 c 0
 594 434 589 422 579 415 c 0
 572 410 564 407 556 407 c 0
 545 407 533 412 526 422 c 2
 474 488 l 1
 474 416 l 1
 531 400 573 347 573 285 c 0
 573 210 511 149 436 149 c 0
 361 149 300 210 300 285 c 0
 300 347 341 400 398 416 c 1
 398 489 l 1
 346 422 l 2
 339 412 327 407 316 407 c 0
 308 407 300 410 293 415 c 0
 283 422 278 434 278 445 c 0
 278 453 281 461 286 468 c 2
 381 590 l 2
 394 607 414 617 435 617 c 0
 436 617 435 617 436 617 c 2
 437 617 l 1
 438 617 l 2
 459 617 478 607 491 590 c 2
 586 468 l 2
497 285 m 0
 497 318 469 346 436 346 c 0
 403 346 375 318 375 285 c 0
 375 252 403 225 436 225 c 0
 469 225 497 252 497 285 c 0
EndSplineSet
Validated: 1
Ligature2: "compound-1" tiki.iku ZWJ tiki.upi
EndChar

StartChar: c.ilu.ilu
Encoding: 340 -1 340
Width: 872
VWidth: 1100
Flags: W
HStem: 4 21G<425.5 446.5> 4 21G<425.5 446.5> 345 76<230.355 398 474 641.645> 686 76<230.355 398 474 641.645>
VStem: 398 76<7.35475 345 421 686>
LayerCount: 2
Fore
SplineSet
645 383 m 0xb8
 645 362 628 345 607 345 c 2
 474 345 l 1
 474 42 l 2
 474 21 457 4 436 4 c 0
 415 4 398 21 398 42 c 2
 398 345 l 1
 265 345 l 2
 244 345 227 362 227 383 c 0
 227 404 244 421 265 421 c 2
 398 421 l 1
 398 686 l 1
 265 686 l 2
 244 686 227 703 227 724 c 0
 227 745 244 762 265 762 c 2
 607 762 l 2
 628 762 645 745 645 724 c 0
 645 703 628 686 607 686 c 2
 474 686 l 1
 474 421 l 1
 607 421 l 2
 628 421 645 404 645 383 c 0xb8
EndSplineSet
Validated: 1
Ligature2: "compound-1" tiki.ilu ZWJ tiki.ilu
EndChar

StartChar: c.ilu.kati
Encoding: 341 -1 341
Width: 872
VWidth: 1100
Flags: W
HStem: 4 21G<431.5 452.5> 4 21G<431.5 452.5> 307 76<179.355 404 480 703.645>
VStem: 404 76<7.35475 307 410.355 557 664 735.645>
LayerCount: 2
Fore
SplineSet
597 674 m 2x30
 480 557 l 1
 480 445 l 2
 480 424 463 407 442 407 c 0
 421 407 404 424 404 445 c 2
 404 557 l 1
 287 674 l 2
 280 681 276 691 276 701 c 0
 276 711 280 720 287 727 c 0
 294 734 304 739 314 739 c 0
 324 739 334 734 341 727 c 2
 404 664 l 1
 404 701 l 2
 404 722 421 739 442 739 c 0
 463 739 480 722 480 701 c 2
 480 664 l 1
 543 727 l 2
 550 734 560 739 570 739 c 0
 580 739 590 734 597 727 c 0
 604 720 608 711 608 701 c 0
 608 691 604 681 597 674 c 2x30
707 345 m 0
 707 324 690 307 669 307 c 2
 480 307 l 1
 480 42 l 2
 480 21 463 4 442 4 c 0xb0
 421 4 404 21 404 42 c 2
 404 307 l 1
 214 307 l 2
 193 307 176 324 176 345 c 0
 176 366 193 383 214 383 c 2
 669 383 l 2
 690 383 707 366 707 345 c 0
EndSplineSet
Validated: 1
Ligature2: "compound-1" tiki.ilu ZWJ tiki.kati
EndChar

StartChar: c.ilu.lapi
Encoding: 342 -1 342
Width: 872
VWidth: 1100
Flags: W
HStem: 4 21G<425.5 446.5> 4 21G<425.5 446.5> 307 76<174.355 398 474 698.645> 443 76<507.708 592.213> 534 76<196.355 435.641> 625 76<507.708 592.213>
VStem: 398 76<7.35475 307> 603 76<529.787 614.213>
LayerCount: 2
Fore
SplineSet
702 345 m 0xbf
 702 324 685 307 664 307 c 2
 474 307 l 1
 474 42 l 2
 474 21 457 4 436 4 c 0
 415 4 398 21 398 42 c 2
 398 307 l 1
 209 307 l 2
 188 307 171 324 171 345 c 0
 171 366 188 383 209 383 c 2
 664 383 l 2
 685 383 702 366 702 345 c 0xbf
550 701 m 0
 621 701 679 643 679 572 c 0
 679 501 621 443 550 443 c 0
 492 443 443 481 427 534 c 1
 231 534 l 2
 210 534 193 551 193 572 c 0
 193 593 210 610 231 610 c 2
 427 610 l 1
 443 663 492 701 550 701 c 0
550 519 m 0
 579 519 603 543 603 572 c 0
 603 601 579 625 550 625 c 0
 521 625 497 601 497 572 c 0
 497 543 521 519 550 519 c 0
EndSplineSet
Validated: 1
Ligature2: "compound-1" tiki.ilu ZWJ tiki.lapi
EndChar

StartChar: c.ilu.muku
Encoding: 343 -1 343
Width: 872
VWidth: 1100
Flags: W
HStem: 4 21G<425.5 446.5> 4 21G<425.5 446.5> 307 76<174.355 398 474 698.645> 437 76<362.356 509.458> 630 76<296 576>
VStem: 398 76<7.35475 307>
LayerCount: 2
Fore
SplineSet
702 345 m 0xbc
 702 324 685 307 664 307 c 2
 474 307 l 1
 474 42 l 2
 474 21 457 4 436 4 c 0
 415 4 398 21 398 42 c 2
 398 307 l 1
 209 307 l 2
 188 307 171 324 171 345 c 0
 171 366 188 383 209 383 c 2
 664 383 l 2
 685 383 702 366 702 345 c 0xbc
436 437 m 0
 295 437 216 568 216 655 c 0
 216 668 221 681 230 690 c 0
 239 700 253 706 267 706 c 2
 606 706 l 2
 620 706 633 700 642 690 c 0
 651 681 656 668 656 655 c 0
 656 568 576 437 436 437 c 0
296 630 m 1
 312 562 369 513 436 513 c 0
 503 513 560 562 576 630 c 1
 296 630 l 1
EndSplineSet
Validated: 1
Ligature2: "compound-1" tiki.ilu ZWJ tiki.muku
EndChar

StartChar: c.ilu.muti
Encoding: 344 -1 344
Width: 872
VWidth: 1100
Flags: W
HStem: 4 21G<425.5 446.5> 4 21G<425.5 446.5> 307 76<174.355 398 474 698.645> 393 56<363.938 508.484> 617 37<306.375 327.607 544.393 565.625> 715 38<272.82 327.18 544.82 599.18>
VStem: 232 38<656.163 712.592> 248 57<508.188 619.074> 330 38<656.57 712.592> 398 76<7.35475 307> 504 38<656.57 712.592> 567 57<507.528 619.074> 602 38<656.163 712.592>
LayerCount: 2
Fore
SplineSet
702 345 m 0xbce0
 702 324 685 307 664 307 c 2
 474 307 l 1
 474 42 l 2
 474 21 457 4 436 4 c 0
 415 4 398 21 398 42 c 2
 398 307 l 1
 209 307 l 2
 188 307 171 324 171 345 c 0
 171 366 188 383 209 383 c 2
 664 383 l 2
 685 383 702 366 702 345 c 0xbce0
640 684 m 0x3ce8
 640 663 631 646 616 633 c 1
 621 616 624 598 624 580 c 0
 624 530 604 483 569 448 c 0
 534 413 486 393 436 393 c 0
 386 393 338 413 303 448 c 0
 268 483 248 530 248 580 c 0x3df0
 248 598 251 616 256 633 c 1
 241 646 232 663 232 684 c 0x3ee0
 232 722 262 753 300 753 c 0
 338 753 368 722 368 684 c 0
 368 650 343 622 310 617 c 1
 307 605 305 593 305 580 c 0
 305 545 319 513 344 488 c 0
 369 463 401 449 436 449 c 0
 471 449 504 463 529 488 c 0
 554 513 567 545 567 580 c 0x3df0
 567 593 565 605 562 617 c 1
 529 622 504 650 504 684 c 0
 504 722 534 753 572 753 c 0
 610 753 640 722 640 684 c 0x3ce8
300 715 m 0
 283 715 270 701 270 684 c 0x3ee0
 270 667 283 654 300 654 c 0
 317 654 330 667 330 684 c 0
 330 701 317 715 300 715 c 0
542 684 m 0
 542 667 555 654 572 654 c 0
 589 654 602 667 602 684 c 0x3ce8
 602 701 589 715 572 715 c 0
 555 715 542 701 542 684 c 0
EndSplineSet
Validated: 1
Ligature2: "compound-1" tiki.ilu ZWJ tiki.muti
EndChar

StartChar: c.ilu.paka
Encoding: 345 -1 345
Width: 872
VWidth: 1100
Flags: W
HStem: 4 21G<431.5 452.5> 4 21G<431.5 452.5> 181 76<179.355 404 480 703.645> 408 76<386.322 497.678>
VStem: 279 76<278.355 374.981> 404 76<7.35475 181> 529 76<278.355 374.981>
CounterMasks: 1 0e
LayerCount: 2
Fore
SplineSet
567 275 m 0x3e
 546 275 529 292 529 313 c 0
 529 365 490 408 442 408 c 0
 394 408 355 365 355 313 c 0
 355 292 338 275 317 275 c 0
 296 275 279 292 279 313 c 0
 279 407 352 484 442 484 c 0
 532 484 605 407 605 313 c 0
 605 292 588 275 567 275 c 0x3e
553 566 m 2
 560 559 564 549 564 539 c 0
 564 529 560 519 553 512 c 0
 546 505 536 501 526 501 c 0
 516 501 506 505 499 512 c 2
 442 570 l 1
 384 512 l 2
 377 505 368 501 358 501 c 0
 348 501 338 505 331 512 c 0
 324 519 320 529 320 539 c 0
 320 549 324 559 331 566 c 2
 388 623 l 1
 331 681 l 2
 324 688 320 697 320 707 c 0
 320 717 324 727 331 734 c 0
 338 741 348 745 358 745 c 0
 368 745 377 741 384 734 c 2
 442 677 l 1
 499 734 l 2
 506 741 516 745 526 745 c 0
 536 745 546 741 553 734 c 0
 560 727 564 717 564 707 c 0
 564 697 560 688 553 681 c 2
 495 623 l 1
 553 566 l 2
707 219 m 0
 707 198 690 181 669 181 c 2
 480 181 l 1
 480 42 l 2
 480 21 463 4 442 4 c 0xbe
 421 4 404 21 404 42 c 2
 404 181 l 1
 214 181 l 2
 193 181 176 198 176 219 c 0
 176 240 193 257 214 257 c 2
 669 257 l 2
 690 257 707 240 707 219 c 0
EndSplineSet
Validated: 1
Ligature2: "compound-1" tiki.ilu ZWJ tiki.paka
EndChar

StartChar: c.ilu.pali
Encoding: 346 -1 346
Width: 872
VWidth: 1100
Flags: W
HStem: 4 21G<425.5 446.5> 4 21G<425.5 446.5> 181 76<174.355 398 474 698.645> 408 76<380.322 491.678> 509 76<401.72 470.28> 661 76<401.72 470.28>
VStem: 273 76<278.355 374.981> 322 76<588.72 657.28> 398 76<7.35475 181> 474 76<588.72 657.28> 523 76<278.355 374.981>
LayerCount: 2
Fore
SplineSet
702 219 m 0xbc80
 702 198 685 181 664 181 c 2
 474 181 l 1
 474 42 l 2
 474 21 457 4 436 4 c 0
 415 4 398 21 398 42 c 2
 398 181 l 1
 209 181 l 2
 188 181 171 198 171 219 c 0
 171 240 188 257 209 257 c 2
 664 257 l 2
 685 257 702 240 702 219 c 0xbc80
561 275 m 0
 540 275 523 292 523 313 c 0
 523 365 484 408 436 408 c 0
 388 408 349 365 349 313 c 0
 349 292 332 275 311 275 c 0
 290 275 273 292 273 313 c 0
 273 407 346 484 436 484 c 0
 526 484 599 407 599 313 c 0x3e20
 599 292 582 275 561 275 c 0
436 661 m 0
 415 661 398 644 398 623 c 0
 398 602 415 585 436 585 c 0
 457 585 474 602 474 623 c 0x3d40
 474 644 457 661 436 661 c 0
436 737 m 0
 499 737 550 686 550 623 c 0
 550 560 499 509 436 509 c 0
 373 509 322 560 322 623 c 0
 322 686 373 737 436 737 c 0
EndSplineSet
Validated: 1
Ligature2: "compound-1" tiki.ilu ZWJ tiki.pali
EndChar

StartChar: c.ilu.taka
Encoding: 347 -1 347
Width: 872
VWidth: 1100
Flags: W
HStem: 4 21G<425.5 446.5> 4 21G<425.5 446.5> 307 76<174.355 398 474 698.645>
VStem: 398 76<7.35475 307>
LayerCount: 2
Fore
SplineSet
388 410 m 0x30
 383 410 378 411 373 413 c 2
 293 446 l 2
 278 452 270 466 270 481 c 0
 270 486 270 491 272 496 c 2
 361 710 l 2
 362 713 364 716 366 719 c 0
 370 724 375 727 381 730 c 0
 387 732 393 734 399 733 c 0
 403 733 407 732 411 730 c 0
 416 728 420 725 423 722 c 0
 426 719 429 715 431 710 c 2
 505 531 l 1
 550 550 l 2
 555 552 560 553 565 553 c 0
 580 553 594 544 600 529 c 0
 602 524 603 520 603 515 c 0
 603 500 594 486 579 480 c 2
 500 447 l 1
 499 446 l 2
 494 444 490 444 485 444 c 0
 470 444 455 452 449 467 c 2
 396 596 l 1
 357 502 l 1
 402 483 l 2
 417 477 426 463 426 448 c 0
 426 443 425 439 423 434 c 0
 417 419 403 410 388 410 c 0x30
702 345 m 0
 702 324 685 307 664 307 c 2
 474 307 l 1
 474 42 l 2
 474 21 457 4 436 4 c 0xb0
 415 4 398 21 398 42 c 2
 398 307 l 1
 209 307 l 2
 188 307 171 324 171 345 c 0
 171 366 188 383 209 383 c 2
 664 383 l 2
 685 383 702 366 702 345 c 0
EndSplineSet
Validated: 1
Ligature2: "compound-1" tiki.ilu ZWJ tiki.taka
EndChar

StartChar: c.ilu.tiki
Encoding: 348 -1 348
Width: 872
VWidth: 1100
Flags: W
HStem: 4 21G<425.5 446.5> 4 21G<425.5 446.5> 307 76<174.355 398 474 698.645> 406 76<389.033 501.967> 643 76<421.406 500.188>
VStem: 270 185<569.518 635.828> 282 75<691 733.754> 398 76<7.35475 307> 526 76<505.707 617.188>
LayerCount: 2
Fore
SplineSet
602 562 m 1x3a80
 602 561 l 2
 602 520 585 481 556 452 c 0
 527 423 487 406 446 406 c 2
 445 406 l 2
 404 406 364 423 335 452 c 0
 328 459 324 469 324 479 c 0
 324 489 328 498 335 505 c 0
 342 512 352 516 362 516 c 0
 372 516 381 512 388 505 c 0
 403 490 423 482 445 482 c 0
 467 482 488 490 503 505 c 0
 518 520 526 540 526 562 c 0
 526 584 518 604 503 619 c 0
 488 634 467 643 445 643 c 0
 436 643 428 642 420 639 c 1
 439 638 455 621 455 601 c 0
 455 582 441 566 422 564 c 2
 333 553 l 2
 331 553 328 552 326 552 c 0
 312 552 298 558 288 568 c 2
 287 569 l 1
 286 569 l 1
 276 580 270 594 270 608 c 0x3c80
 270 610 271 613 271 615 c 2
 282 704 l 2
 284 723 300 737 319 737 c 0
 321 737 322 737 324 737 c 0
 343 734 357 719 357 700 c 0
 357 698 357 697 357 695 c 2
 357 691 l 1
 383 709 413 719 445 719 c 2
 446 719 l 2
 487 719 527 702 556 673 c 0
 585 644 602 604 602 563 c 2
 602 562 l 1x3a80
702 345 m 0
 702 324 685 307 664 307 c 2
 474 307 l 1
 474 42 l 2
 474 21 457 4 436 4 c 0
 415 4 398 21 398 42 c 2
 398 307 l 1xb980
 209 307 l 2
 188 307 171 324 171 345 c 0
 171 366 188 383 209 383 c 2
 664 383 l 2
 685 383 702 366 702 345 c 0
EndSplineSet
Validated: 1
Ligature2: "compound-1" tiki.ilu ZWJ tiki.tiki
EndChar

StartChar: c.ilu.titi
Encoding: 349 -1 349
Width: 872
VWidth: 1100
Flags: W
HStem: 4 21G<431.5 452.5> 4 21G<431.5 452.5> 307 76<179.355 404 480 703.645> 487 95<235.688 315.606 401.688 481.606 567.688 647.606> 686 76<179.355 703.645>
VStem: 228 95<494.688 574.606> 394 95<494.688 574.606> 404 76<7.35475 307> 560 95<494.688 574.606>
LayerCount: 2
Fore
SplineSet
707 345 m 0xbd80
 707 324 690 307 669 307 c 2
 480 307 l 1
 480 42 l 2
 480 21 463 4 442 4 c 0
 421 4 404 21 404 42 c 2
 404 307 l 1
 214 307 l 2
 193 307 176 324 176 345 c 0
 176 366 193 383 214 383 c 2
 669 383 l 2
 690 383 707 366 707 345 c 0xbd80
394 535 m 0x3e80
 394 561 416 582 442 582 c 0
 468 582 489 561 489 535 c 0
 489 509 468 487 442 487 c 0
 416 487 394 509 394 535 c 0x3e80
669 686 m 2
 214 686 l 2
 193 686 176 703 176 724 c 0
 176 745 193 762 214 762 c 2
 669 762 l 2
 690 762 707 745 707 724 c 0
 707 703 690 686 669 686 c 2
228 535 m 0
 228 561 250 582 276 582 c 0
 302 582 323 561 323 535 c 0
 323 509 302 487 276 487 c 0
 250 487 228 509 228 535 c 0
560 535 m 0
 560 561 582 582 608 582 c 0
 634 582 655 561 655 535 c 0
 655 509 634 487 608 487 c 0
 582 487 560 509 560 535 c 0
EndSplineSet
Validated: 1
Ligature2: "compound-1" tiki.ilu ZWJ tiki.titi
EndChar

StartChar: c.ilu.tuki
Encoding: 350 -1 350
Width: 872
VWidth: 1100
Flags: W
HStem: 4 21G<425.5 446.5> 4 21G<425.5 446.5> 181 76<174.355 398 474 698.645> 277 76<380.692 491.534> 520 75<380.692 491.534> 595 139<296.896 339.713 532.287 575.104> 618 144<401.355 470.645>
VStem: 267 102<634.75 695.25> 277 76<380.692 491.534> 398 76<7.35475 181 621.355 758.645> 503 102<634.75 695.25> 520 75<380.692 491.534>
LayerCount: 2
Fore
SplineSet
702 219 m 0xb040
 702 198 685 181 664 181 c 2
 474 181 l 1
 474 42 l 2
 474 21 457 4 436 4 c 0
 415 4 398 21 398 42 c 2
 398 181 l 1
 209 181 l 2
 188 181 171 198 171 219 c 0
 171 240 188 257 209 257 c 2
 664 257 l 2
 685 257 702 240 702 219 c 0xb040
436 520 m 0x38d0
 390 520 353 482 353 436 c 0
 353 390 390 353 436 353 c 0
 482 353 520 390 520 436 c 0
 520 482 482 520 436 520 c 0x38d0
436 595 m 0
 524 595 595 524 595 436 c 0
 595 348 524 277 436 277 c 0
 348 277 277 348 277 436 c 0
 277 524 348 595 436 595 c 0
436 618 m 0x3240
 415 618 398 635 398 656 c 2
 398 724 l 2
 398 745 415 762 436 762 c 0
 457 762 474 745 474 724 c 2
 474 656 l 2
 474 635 457 618 436 618 c 0x3240
331 595 m 0x3540
 316 595 302 604 296 619 c 2
 270 682 l 2
 268 687 267 691 267 696 c 0
 267 711 276 725 291 731 c 0
 296 733 300 734 305 734 c 0
 320 734 334 726 340 711 c 2
 366 648 l 2
 368 643 369 638 369 633 c 0
 369 618 361 604 346 598 c 0
 341 596 336 595 331 595 c 0x3540
541 595 m 0
 536 595 531 596 526 598 c 0
 511 604 503 618 503 633 c 0
 503 638 504 643 506 648 c 2
 532 711 l 2
 538 726 552 734 567 734 c 0
 572 734 577 733 582 731 c 0
 597 725 605 711 605 696 c 0x3460
 605 691 604 687 602 682 c 2
 576 619 l 2
 570 604 556 595 541 595 c 0
EndSplineSet
Validated: 1
Ligature2: "compound-1" tiki.ilu ZWJ tiki.tuki
EndChar

StartChar: c.ilu.tulu
Encoding: 351 -1 351
Width: 872
VWidth: 1100
Flags: W
HStem: 4 21G<425.5 446.5> 4 21G<425.5 446.5> 181 76<174.355 398 474 698.645> 482 75<196.355 339.09 532.91 675.645> 742 20G<425.5 446.5> 742 20G<425.5 446.5>
VStem: 398 76<7.35475 181 280.355 422.229 616.771 758.645>
LayerCount: 2
Fore
SplineSet
702 219 m 0xb2
 702 198 685 181 664 181 c 2
 474 181 l 1
 474 42 l 2
 474 21 457 4 436 4 c 0
 415 4 398 21 398 42 c 2
 398 181 l 1
 209 181 l 2
 188 181 171 198 171 219 c 0
 171 240 188 257 209 257 c 2
 664 257 l 2
 685 257 702 240 702 219 c 0xb2
641 557 m 2
 662 557 679 541 679 520 c 0
 679 499 662 482 641 482 c 2
 543 482 l 1
 532 450 506 423 474 412 c 1
 474 315 l 2
 474 294 457 277 436 277 c 0
 415 277 398 294 398 315 c 2
 398 412 l 1
 366 423 340 450 329 482 c 1
 231 482 l 2
 210 482 193 499 193 520 c 0
 193 541 210 557 231 557 c 2
 329 557 l 1
 340 589 366 616 398 627 c 1
 398 724 l 2
 398 745 415 762 436 762 c 0x3a
 457 762 474 745 474 724 c 2
 474 627 l 1
 506 616 532 589 543 557 c 1
 641 557 l 2
436 482 m 0
 457 482 474 499 474 520 c 0
 474 541 457 557 436 557 c 0
 415 557 398 541 398 520 c 0
 398 499 415 482 436 482 c 0
EndSplineSet
Validated: 1
Ligature2: "compound-1" tiki.ilu ZWJ tiki.tulu
EndChar

StartChar: c.ilu.uli
Encoding: 352 -1 352
Width: 872
VWidth: 1100
Flags: W
HStem: 4 21G<424.5 447.5> 4 21G<424.5 447.5> 356 76<300 398 474 698.645>
VStem: 398 76<130 356>
LayerCount: 2
Fore
SplineSet
702 394 m 0xb0
 702 373 685 356 664 356 c 2
 474 356 l 1
 474 130 l 1
 543 219 l 2
 550 229 562 233 573 233 c 0
 581 233 589 230 596 225 c 0
 606 218 611 206 611 195 c 0
 611 187 608 179 603 172 c 2
 494 32 l 2
 480 14 459 4 436 4 c 0
 413 4 392 14 378 32 c 2
 269 172 l 2
 264 179 261 187 261 195 c 0
 261 206 266 218 276 225 c 0
 283 230 291 233 299 233 c 0
 310 233 322 229 329 219 c 2
 398 130 l 1
 398 356 l 1
 209 356 l 2
 208 356 205 356 204 356 c 0
 202 356 200 356 198 357 c 0
 197 357 196 358 195 358 c 1
 195 359 l 1
 194 359 l 2
 191 360 187 362 184 365 c 0
 183 366 183 366 182 367 c 2
 181 368 l 1
 179 370 l 2
 178 371 178 371 178 372 c 1
 177 372 l 2
 176 373 176 374 175 375 c 2
 175 376 l 1
 175 377 l 1
 174 378 l 1
 174 379 l 1
 173 380 l 2
 173 381 173 380 173 381 c 2
 172 382 l 1
 172 384 l 1
 172 385 l 1
 171 386 l 2
 171 387 171 386 171 387 c 2
 171 388 l 1
 171 389 l 1
 171 390 l 1
 171 391 l 2
 171 392 171 393 171 394 c 0
 171 395 171 396 171 397 c 2
 171 398 l 1
 171 399 l 2
 171 400 171 399 171 400 c 2
 171 401 l 1
 171 402 l 1
 172 403 l 1
 172 404 l 1
 172 405 l 1
 172 406 l 1
 173 406 l 1
 173 407 l 2
 173 408 174 408 174 409 c 2
 174 411 l 2
 175 412 175 413 176 414 c 2
 177 415 l 2
 178 416 178 417 179 418 c 2
 180 418 l 1
 180 419 l 1
 181 420 l 1
 182 421 l 1
 495 734 l 2
 502 741 512 745 522 745 c 0
 532 745 542 741 549 734 c 0
 556 727 560 717 560 707 c 0
 560 697 556 687 549 680 c 2
 303 435 l 1
 300 432 l 1
 436 432 l 1
 664 432 l 2
 685 432 702 415 702 394 c 0xb0
EndSplineSet
Validated: 1
Ligature2: "compound-1" tiki.ilu ZWJ tiki.uli
EndChar

StartChar: c.ka.ilu
Encoding: 353 -1 353
Width: 872
VWidth: 1100
Flags: W
HStem: 4 76<350.115 521.938> 229 80<321.181 391.607 480.393 551.607> 459 73<351.209 398 474 520.834> 688 76<174.355 398 474 698.645>
VStem: 171 75<183.221 357.027> 317 79<233.393 304.607> 398 76<528.863 688> 476 80<233.393 304.607> 626 76<183.221 357.027>
LayerCount: 2
Fore
SplineSet
317 269 m 0
 317 291 334 309 356 309 c 0
 378 309 396 291 396 269 c 0
 396 247 378 229 356 229 c 0
 334 229 317 247 317 269 c 0
476 269 m 0
 476 291 494 309 516 309 c 0
 538 309 556 291 556 269 c 0
 556 247 538 229 516 229 c 0
 494 229 476 247 476 269 c 0
474 532 m 1
 603 514 702 403 702 269 c 0
 702 122 583 4 436 4 c 0
 289 4 171 122 171 269 c 0
 171 403 269 514 398 532 c 1
 398 688 l 1
 209 688 l 2
 188 688 171 705 171 726 c 0
 171 747 188 764 209 764 c 2
 664 764 l 2
 685 764 702 747 702 726 c 0
 702 705 685 688 664 688 c 2
 474 688 l 1
 474 532 l 1
436 80 m 0
 541 80 626 164 626 269 c 0
 626 374 541 459 436 459 c 0
 331 459 246 374 246 269 c 0
 246 164 331 80 436 80 c 0
EndSplineSet
Validated: 1
Ligature2: "compound-1" tiki.ka ZWJ tiki.ilu
EndChar

StartChar: c.ka.lapi
Encoding: 354 -1 354
Width: 872
VWidth: 1100
Flags: W
HStem: 118 75<467.973 641.779> 345 76<65.3547 296.137 439.156 512.844 598.156 671.844> 573 75<467.973 641.779>
VStem: 293 73<298.209 345 421 467.791> 436 80<347.393 418.607> 595 80<347.393 418.607> 745 76<297.115 468.885>
CounterMasks: 1 e0
LayerCount: 2
Fore
SplineSet
556 648 m 0
 703 648 821 530 821 383 c 0
 821 236 703 118 556 118 c 0
 422 118 311 216 293 345 c 1
 100 345 l 2
 79 345 62 362 62 383 c 0
 62 404 79 421 100 421 c 2
 293 421 l 1
 311 550 422 648 556 648 c 0
556 193 m 0
 661 193 745 278 745 383 c 0
 745 488 661 573 556 573 c 0
 451 573 366 488 366 383 c 0
 366 278 451 193 556 193 c 0
436 383 m 0
 436 405 454 423 476 423 c 0
 498 423 516 405 516 383 c 0
 516 361 498 343 476 343 c 0
 454 343 436 361 436 383 c 0
595 383 m 0
 595 405 613 423 635 423 c 0
 657 423 675 405 675 383 c 0
 675 361 657 343 635 343 c 0
 613 343 595 361 595 383 c 0
EndSplineSet
Validated: 1
Ligature2: "compound-1" tiki.ka ZWJ tiki.lapi
EndChar

StartChar: c.ka.lili
Encoding: 355 -1 355
Width: 872
VWidth: 1100
Flags: W
HStem: 118 75<464.062 635.779> 326 114<69.3055 158.694> 343 80<434.393 505.607 594.181 664.607> 573 75<464.062 635.779>
VStem: 57 114<338.306 427.694> 284 76<297.115 468.885> 430 80<347.393 418.607> 590 79<347.393 418.607> 739 76<297.115 468.885>
LayerCount: 2
Fore
SplineSet
550 573 m 0x9f80
 445 573 360 488 360 383 c 0
 360 278 445 193 550 193 c 0
 655 193 739 278 739 383 c 0
 739 488 655 573 550 573 c 0x9f80
550 648 m 0
 697 648 815 530 815 383 c 0
 815 236 697 118 550 118 c 0
 403 118 284 236 284 383 c 0
 284 530 403 648 550 648 c 0
430 383 m 0
 430 405 448 423 470 423 c 0
 492 423 510 405 510 383 c 0
 510 361 492 343 470 343 c 0xbf80
 448 343 430 361 430 383 c 0
590 383 m 0
 590 405 607 423 629 423 c 0
 651 423 669 405 669 383 c 0
 669 361 651 343 629 343 c 0
 607 343 590 361 590 383 c 0
57 383 m 0
 57 414 83 440 114 440 c 0
 145 440 171 414 171 383 c 0
 171 352 145 326 114 326 c 0xdf80
 83 326 57 352 57 383 c 0
EndSplineSet
Validated: 1
Ligature2: "compound-1" tiki.ka ZWJ tiki.lili
EndChar

StartChar: c.ka.paka
Encoding: 356 -1 356
Width: 872
VWidth: 1100
Flags: W
HStem: 4 76<324.226 547.774> 315 76<376.635 495.427> 413 167<269.087 314.688 329.719 375.913 496.262 542.281 557.719 602.913> 686 76<324.226 547.774>
VStem: 57 76<271.226 494.774> 239 167<443.087 489.281 504.312 549.913> 262 75<173.355 274.02> 466 167<443.087 488.984 504.594 549.913> 535 76<173.355 274.02> 739 76<271.226 494.774>
LayerCount: 2
Fore
SplineSet
436 762 m 0xf840
 645 762 815 592 815 383 c 0
 815 174 645 4 436 4 c 0
 227 4 57 174 57 383 c 0
 57 592 227 762 436 762 c 0xf840
436 80 m 0
 603 80 739 216 739 383 c 0
 739 550 603 686 436 686 c 0
 269 686 133 550 133 383 c 0
 133 216 269 80 436 80 c 0
573 170 m 0
 552 170 535 187 535 208 c 0
 535 267 490 315 436 315 c 0
 382 315 337 267 337 208 c 0
 337 187 321 170 300 170 c 0
 279 170 262 187 262 208 c 0
 262 309 340 391 436 391 c 0
 532 391 611 309 611 208 c 0xfac0
 611 187 594 170 573 170 c 0
395 478 m 2
 402 471 406 461 406 451 c 0
 406 441 402 431 395 424 c 0
 388 417 378 413 368 413 c 0
 358 413 348 417 341 424 c 2
 322 443 l 1
 304 424 l 2
 297 417 287 413 277 413 c 0
 267 413 257 417 250 424 c 0
 243 431 239 441 239 451 c 0
 239 461 243 471 250 478 c 2
 269 497 l 1
 250 515 l 2
 243 522 239 532 239 542 c 0
 239 552 243 562 250 569 c 0
 257 576 267 580 277 580 c 0
 287 580 297 576 304 569 c 2
 322 550 l 1
 341 569 l 2
 348 576 358 580 368 580 c 0
 378 580 388 576 395 569 c 0
 402 562 406 552 406 542 c 0xfc40
 406 532 402 522 395 515 c 2
 376 497 l 1
 395 478 l 2
622 478 m 2
 629 471 633 461 633 451 c 0
 633 441 629 431 622 424 c 0
 615 417 605 413 595 413 c 0
 585 413 576 417 569 424 c 2
 550 443 l 1
 531 424 l 2
 524 417 514 413 504 413 c 0
 494 413 485 417 478 424 c 0
 471 431 466 441 466 451 c 0
 466 461 471 471 478 478 c 2
 496 497 l 1
 478 515 l 2
 471 522 466 532 466 542 c 0
 466 552 471 562 478 569 c 0
 485 576 494 580 504 580 c 0
 514 580 524 576 531 569 c 2
 550 550 l 1
 569 569 l 2
 576 576 585 580 595 580 c 0
 605 580 615 576 622 569 c 0
 629 562 633 552 633 542 c 0xf940
 633 532 629 522 622 515 c 2
 603 497 l 1
 622 478 l 2
EndSplineSet
Validated: 1
Ligature2: "compound-1" tiki.ka ZWJ tiki.paka
EndChar

StartChar: c.ka.pula
Encoding: 357 -1 357
Width: 872
VWidth: 1100
Flags: W
HStem: 4 76<324.226 547.774> 158 76<376.635 495.427> 421 114<277.306 366.694 505.306 594.694> 686 76<324.226 547.774>
VStem: 57 76<271.226 494.774> 262 75<274.98 375.645> 265 114<433.306 522.694> 493 114<433.306 522.694> 535 76<274.98 375.645> 739 76<271.226 494.774>
LayerCount: 2
Fore
SplineSet
436 686 m 0xf840
 269 686 133 550 133 383 c 0
 133 216 269 80 436 80 c 0
 603 80 739 216 739 383 c 0
 739 550 603 686 436 686 c 0xf840
436 762 m 0
 645 762 815 592 815 383 c 0
 815 174 645 4 436 4 c 0
 227 4 57 174 57 383 c 0
 57 592 227 762 436 762 c 0
265 478 m 0xfa40
 265 509 291 535 322 535 c 0
 353 535 379 509 379 478 c 0
 379 447 353 421 322 421 c 0
 291 421 265 447 265 478 c 0xfa40
493 478 m 0xf940
 493 509 519 535 550 535 c 0
 581 535 607 509 607 478 c 0
 607 447 581 421 550 421 c 0
 519 421 493 447 493 478 c 0xf940
436 158 m 0
 340 158 262 240 262 341 c 0
 262 362 279 379 300 379 c 0
 321 379 337 362 337 341 c 0
 337 282 382 234 436 234 c 0
 490 234 535 282 535 341 c 0
 535 362 552 379 573 379 c 0
 594 379 611 362 611 341 c 0xfcc0
 611 240 532 158 436 158 c 0
EndSplineSet
Validated: 1
Ligature2: "compound-1" tiki.ka ZWJ tiki.pula
EndChar

StartChar: c.kati.kiku
Encoding: 358 -1 358
Width: 872
VWidth: 1100
Flags: W
VStem: 398 76<9.35475 100 207 293>
LayerCount: 2
Fore
SplineSet
613 346 m 2
 620 353 630 357 640 357 c 0
 650 357 659 353 666 346 c 0
 673 339 677 329 677 319 c 0
 677 309 673 300 666 293 c 2
 474 100 l 1
 474 44 l 2
 474 23 457 6 436 6 c 0
 415 6 398 23 398 44 c 2
 398 100 l 1
 206 293 l 2
 199 300 195 309 195 319 c 0
 195 329 199 339 206 346 c 0
 213 353 223 357 233 357 c 0
 243 357 252 353 259 346 c 2
 398 207 l 1
 398 293 l 1
 208 483 l 2
 198 493 192 507 192 520 c 0
 192 533 198 547 208 557 c 2
 399 749 l 2
 409 759 423 764 436 764 c 0
 449 764 463 759 473 749 c 2
 665 557 l 2
 675 547 680 533 680 520 c 0
 680 507 675 493 665 483 c 2
 474 293 l 1
 474 207 l 1
 613 346 l 2
278 520 m 1
 436 362 l 1
 594 520 l 1
 436 679 l 1
 278 520 l 1
EndSplineSet
Validated: 1
Ligature2: "compound-1" tiki.kati ZWJ tiki.kiku
EndChar

StartChar: c.kati.muku
Encoding: 359 -1 359
Width: 872
VWidth: 1100
Flags: W
HStem: 349 72<370.397 404 480 513.372> 538 76<302 582>
VStem: 404 76<9.35475 100 207 352.865>
LayerCount: 2
Fore
SplineSet
672 346 m 0
 679 339 683 329 683 319 c 0
 683 309 679 300 672 293 c 2
 480 100 l 1
 480 44 l 2
 480 23 463 6 442 6 c 0
 421 6 404 23 404 44 c 2
 404 100 l 1
 212 293 l 2
 205 300 200 309 200 319 c 0
 200 329 205 339 212 346 c 0
 219 353 228 357 238 357 c 0
 248 357 258 353 265 346 c 2
 404 207 l 1
 404 349 l 1
 278 372 222 493 222 563 c 0
 222 576 227 589 236 598 c 0
 246 608 258 614 272 614 c 2
 611 614 l 2
 625 614 639 608 648 598 c 0
 657 589 662 576 662 563 c 0
 662 493 605 372 480 349 c 1
 480 207 l 1
 618 346 l 2
 625 353 635 357 645 357 c 0
 655 357 665 353 672 346 c 0
302 538 m 1
 318 470 375 421 442 421 c 0
 509 421 566 470 582 538 c 1
 302 538 l 1
EndSplineSet
Validated: 1
Ligature2: "compound-1" tiki.kati ZWJ tiki.muku
EndChar

StartChar: c.kati.pula
Encoding: 360 -1 360
Width: 872
VWidth: 1100
Flags: W
HStem: 349 72<365.136 398 474 506.864>
VStem: 216 76<495.451 610.645> 398 76<9.35475 100 207 353.428> 580 76<495.451 610.645>
CounterMasks: 1 70
LayerCount: 2
Fore
SplineSet
666 293 m 2
 474 100 l 1
 474 44 l 2
 474 23 457 6 436 6 c 0
 415 6 398 23 398 44 c 2
 398 100 l 1
 206 293 l 2
 199 300 195 309 195 319 c 0
 195 329 199 339 206 346 c 0
 213 353 223 357 233 357 c 0
 243 357 252 353 259 346 c 2
 398 207 l 1
 398 349 l 1
 295 368 216 462 216 576 c 0
 216 597 233 614 254 614 c 0
 275 614 292 597 292 576 c 0
 292 490 357 421 436 421 c 0
 515 421 580 490 580 576 c 0
 580 597 597 614 618 614 c 0
 639 614 656 597 656 576 c 0
 656 462 577 368 474 349 c 1
 474 207 l 1
 613 346 l 2
 620 353 630 357 640 357 c 0
 650 357 659 353 666 346 c 0
 673 339 677 329 677 319 c 0
 677 309 673 300 666 293 c 2
EndSplineSet
Validated: 1
Ligature2: "compound-1" tiki.kati ZWJ tiki.pula
EndChar

StartChar: c.kati.tilu
Encoding: 361 -1 361
Width: 872
VWidth: 1100
Flags: W
HStem: 384 76<474.934 555.123> 467 76<318.847 394.58> 548 76<471.167 555.123> 632 75<318.847 392.411>
VStem: 234 74<398.03 458.295 562.04 622.295> 398 76<9.35475 100 207 393> 563 76<468.192 529.647 632.192 693.647>
LayerCount: 2
Fore
SplineSet
606 697 m 0
 625 694 639 678 639 659 c 0
 639 657 638 656 638 654 c 0
 633 620 603 555 525 548 c 0
 524 548 521 548 518 548 c 0
 506 548 481 550 451 568 c 0
 430 581 402 602 383 618 c 0
 374 625 364 630 354 631 c 0
 352 631 350 632 348 632 c 0
 337 632 320 626 308 586 c 0
 303 570 287 559 271 559 c 0
 267 559 265 559 261 560 c 0
 245 565 234 581 234 597 c 0
 234 601 234 603 235 607 c 0
 260 693 316 707 349 707 c 0
 354 707 359 706 363 706 c 0
 388 703 411 693 431 677 c 0
 455 657 477 642 490 634 c 0
 504 625 515 624 518 624 c 0
 557 627 563 663 563 665 c 0
 566 684 582 697 601 697 c 0
 603 697 604 697 606 697 c 0
666 293 m 2
 474 100 l 1
 474 44 l 2
 474 23 457 6 436 6 c 0
 415 6 398 23 398 44 c 2
 398 100 l 1
 206 293 l 2
 199 300 195 309 195 319 c 0
 195 329 199 339 206 346 c 0
 213 353 223 357 233 357 c 0
 243 357 252 353 259 346 c 2
 398 207 l 1
 398 442 l 1
 393 446 388 450 383 454 c 0
 374 461 364 466 354 467 c 0
 352 467 350 467 348 467 c 0
 337 467 320 462 308 422 c 0
 303 405 287 394 271 394 c 0
 267 394 265 395 261 396 c 0
 245 401 234 416 234 432 c 0
 234 436 234 439 235 443 c 0
 260 529 316 543 349 543 c 0
 354 543 359 542 363 542 c 0
 388 539 411 529 431 513 c 0
 437 508 443 503 448 499 c 0
 455 494 462 489 468 485 c 0
 477 479 484 473 490 469 c 0
 504 460 515 460 518 460 c 0
 557 463 563 499 563 501 c 0
 566 520 582 533 601 533 c 0
 603 533 604 533 606 533 c 0
 625 530 639 514 639 495 c 0
 639 493 638 492 638 490 c 0
 633 456 603 391 525 384 c 0
 524 384 521 384 518 384 c 0
 509 384 494 385 474 393 c 1
 474 207 l 1
 613 346 l 2
 620 353 630 357 640 357 c 0
 650 357 659 353 666 346 c 0
 673 339 677 329 677 319 c 0
 677 309 673 300 666 293 c 2
EndSplineSet
Validated: 1
Ligature2: "compound-1" tiki.kati ZWJ tiki.tilu
EndChar

StartChar: c.kati.tulu
Encoding: 362 -1 362
Width: 872
VWidth: 1100
Flags: W
HStem: 444 76<157.355 314.587 557.413 714.645> 542 222<401.341 470.659>
VStem: 154 222<447.341 516.659> 398 76<9.35475 100 207 360.587 603.413 760.645> 496 222<447.341 516.659>
CounterMasks: 1 38
LayerCount: 2
Fore
SplineSet
680 520 m 2
 701 520 718 503 718 482 c 0
 718 461 701 444 680 444 c 2
 566 444 l 1
 553 400 518 365 474 352 c 1
 474 207 l 1
 613 346 l 2
 620 353 630 357 640 357 c 0
 650 357 659 353 666 346 c 0
 673 339 677 329 677 319 c 0
 677 309 673 300 666 293 c 2
 474 100 l 1
 474 44 l 2
 474 23 457 6 436 6 c 0
 415 6 398 23 398 44 c 2
 398 100 l 1
 206 293 l 2
 199 300 195 309 195 319 c 0
 195 329 199 339 206 346 c 0
 213 353 223 357 233 357 c 0
 243 357 252 353 259 346 c 2
 398 207 l 1
 398 352 l 1
 354 365 319 400 306 444 c 1
 192 444 l 2
 171 444 154 461 154 482 c 0
 154 503 171 520 192 520 c 2
 306 520 l 1
 319 564 354 599 398 612 c 1
 398 726 l 2
 398 747 415 764 436 764 c 0
 457 764 474 747 474 726 c 2
 474 612 l 1
 518 599 553 564 566 520 c 1
 680 520 l 2
436 422 m 0
 469 422 496 449 496 482 c 0
 496 515 469 542 436 542 c 0
 403 542 376 515 376 482 c 0
 376 449 403 422 436 422 c 0
EndSplineSet
Validated: 1
Ligature2: "compound-1" tiki.kati ZWJ tiki.tulu
EndChar

StartChar: c.kiku.kati
Encoding: 363 -1 363
Width: 872
VWidth: 1100
Flags: W
VStem: 398 76<163.355 310 418 488.645>
LayerCount: 2
Fore
SplineSet
778 420 m 2
 788 410 794 396 794 383 c 0
 794 370 788 356 778 346 c 2
 473 41 l 2
 463 31 449 25 436 25 c 0
 423 25 409 31 399 41 c 2
 94 346 l 2
 84 356 78 370 78 383 c 0
 78 396 84 410 94 420 c 2
 399 725 l 2
 409 735 423 741 436 741 c 0
 449 741 463 735 473 725 c 2
 778 420 l 2
436 111 m 1
 708 383 l 1
 436 655 l 1
 164 383 l 1
 436 111 l 1
591 427 m 2
 474 310 l 1
 474 198 l 2
 474 177 457 160 436 160 c 0
 415 160 398 177 398 198 c 2
 398 310 l 1
 281 427 l 2
 274 434 270 444 270 454 c 0
 270 464 274 474 281 481 c 0
 288 488 298 492 308 492 c 0
 318 492 328 488 335 481 c 2
 398 418 l 1
 398 454 l 2
 398 475 415 492 436 492 c 0
 457 492 474 475 474 454 c 2
 474 418 l 1
 537 481 l 2
 544 488 554 492 564 492 c 0
 574 492 584 488 591 481 c 0
 598 474 602 464 602 454 c 0
 602 444 598 434 591 427 c 2
EndSplineSet
Validated: 1
Ligature2: "compound-1" tiki.kiku ZWJ tiki.kati
EndChar

StartChar: c.kiku.lili
Encoding: 364 -1 364
Width: 872
VWidth: 1100
Flags: W
HStem: 276 57<465.753 546.178> 351 64<272.411 333.589> 433 57<465.753 546.178>
VStem: 271 64<352.411 413.589> 399 57<342.753 423.247> 556 56<342.753 423.247>
CounterMasks: 1 e0
LayerCount: 2
Fore
SplineSet
442 655 m 1
 170 383 l 1
 442 111 l 1
 714 383 l 1
 442 655 l 1
442 741 m 0
 455 741 469 735 479 725 c 2
 784 420 l 2
 794 410 799 396 799 383 c 0
 799 370 794 356 784 346 c 2
 479 41 l 2
 469 31 455 25 442 25 c 0
 429 25 415 31 405 41 c 2
 99 346 l 2
 89 356 84 370 84 383 c 0
 84 396 89 410 99 420 c 2
 405 725 l 2
 415 735 429 741 442 741 c 0
506 433 m 0
 479 433 456 410 456 383 c 0
 456 356 479 333 506 333 c 0
 533 333 556 356 556 383 c 0
 556 410 533 433 506 433 c 0
506 490 m 0
 565 490 612 442 612 383 c 0
 612 324 565 276 506 276 c 0
 447 276 399 324 399 383 c 0
 399 442 447 490 506 490 c 0
271 383 m 0
 271 401 285 415 303 415 c 0
 321 415 335 401 335 383 c 0
 335 365 321 351 303 351 c 0
 285 351 271 365 271 383 c 0
EndSplineSet
Validated: 1
Ligature2: "compound-1" tiki.kiku ZWJ tiki.lili
EndChar

StartChar: c.kiku.pula
Encoding: 365 -1 365
Width: 872
VWidth: 1100
Flags: W
HStem: 238 76<376.635 495.427>
VStem: 262 75<354.98 455.645> 535 76<354.98 455.645>
LayerCount: 2
Fore
SplineSet
436 655 m 1
 164 383 l 1
 436 111 l 1
 708 383 l 1
 436 655 l 1
436 741 m 0
 449 741 463 735 473 725 c 2
 778 420 l 2
 788 410 794 396 794 383 c 0
 794 370 788 356 778 346 c 2
 473 41 l 2
 463 31 449 25 436 25 c 0
 423 25 409 31 399 41 c 2
 94 346 l 2
 84 356 78 370 78 383 c 0
 78 396 84 410 94 420 c 2
 399 725 l 2
 409 735 423 741 436 741 c 0
436 238 m 0
 340 238 262 320 262 421 c 0
 262 442 279 459 300 459 c 0
 321 459 337 442 337 421 c 0
 337 362 382 314 436 314 c 0
 490 314 535 362 535 421 c 0
 535 442 552 459 573 459 c 0
 594 459 611 442 611 421 c 0
 611 320 532 238 436 238 c 0
EndSplineSet
Validated: 1
Ligature2: "compound-1" tiki.kiku ZWJ tiki.pula
EndChar

StartChar: c.kiku.tiki
Encoding: 366 -1 366
Width: 872
VWidth: 1100
Flags: W
VStem: 319 76<250.864 339.534>
LayerCount: 2
Fore
SplineSet
769 323 m 2
 531 85 l 2
 524 78 514 74 504 74 c 0
 494 74 484 78 477 85 c 0
 470 92 466 102 466 112 c 0
 466 122 470 132 477 139 c 2
 715 377 l 2
 718 380 718 386 715 389 c 2
 442 662 l 2
 439 665 433 665 430 662 c 2
 157 389 l 2
 154 386 154 380 157 377 c 2
 332 202 l 1
 319 300 l 2
 319 302 319 303 319 305 c 0
 319 324 333 340 352 343 c 0
 354 343 355 343 357 343 c 0
 376 343 393 329 395 310 c 2
 415 145 l 2
 415 142 416 138 416 135 c 0
 416 116 409 99 396 86 c 2
 395 85 l 2
 381 71 363 64 344 64 c 0
 341 64 338 65 335 65 c 2
 170 85 l 2
 151 87 137 104 137 123 c 0
 137 144 154 161 175 161 c 0
 177 161 178 160 180 160 c 2
 278 148 l 1
 103 323 l 2
 87 339 78 361 78 383 c 0
 78 405 87 427 103 443 c 2
 376 716 l 2
 392 732 414 741 436 741 c 0
 458 741 480 732 496 716 c 2
 769 443 l 2
 785 427 794 405 794 383 c 0
 794 361 785 339 769 323 c 2
EndSplineSet
Validated: 1
LCarets2: 2 0 0
Ligature2: "compound-1" tiki.kiku ZWJ tiki.tiki
EndChar

StartChar: c.kiku.tuki
Encoding: 367 -1 367
Width: 872
VWidth: 1100
Flags: W
HStem: 571 189<401.355 470.645>
VStem: 398 76<574.355 756.645>
LayerCount: 2
Fore
SplineSet
436 533 m 4
 449 533 463 527 473 517 c 6
 686 304 l 6
 696 294 702 280 702 267 c 4
 702 254 696 240 686 230 c 6
 473 17 l 6
 463 7 449 2 436 2 c 4
 423 2 409 7 399 17 c 6
 186 230 l 6
 176 240 171 254 171 267 c 4
 171 280 176 294 186 304 c 6
 399 517 l 6
 409 527 423 533 436 533 c 4
436 447 m 5
 256 267 l 5
 436 87 l 5
 616 267 l 5
 436 447 l 5
611 532 m 4
 606 532 601 533 596 535 c 4
 581 541 573 555 573 570 c 4
 573 575 574 580 576 585 c 6
 619 690 l 6
 625 705 639 713 654 713 c 4
 659 713 664 712 669 710 c 4
 684 704 692 690 692 675 c 4
 692 670 691 666 689 661 c 6
 646 556 l 6
 640 541 626 532 611 532 c 4
261 532 m 4
 246 532 232 541 226 556 c 6
 183 661 l 6
 181 666 180 670 180 675 c 4
 180 690 188 704 203 710 c 4
 208 712 213 713 218 713 c 4
 233 713 247 705 253 690 c 6
 296 585 l 6
 298 580 299 575 299 570 c 4
 299 555 291 541 276 535 c 4
 271 533 266 532 261 532 c 4
436 571 m 4
 415 571 398 588 398 609 c 6
 398 722 l 6
 398 743 415 760 436 760 c 4
 457 760 474 743 474 722 c 6
 474 609 l 6
 474 588 457 571 436 571 c 4
EndSplineSet
Validated: 1
LCarets2: 2 0 0
Ligature2: "compound-1" tiki.kiku ZWJ tiki.tuki
EndChar

StartChar: c.kiku.tuki.tiki
Encoding: 368 -1 368
Width: 872
VWidth: 1176
Flags: W
HStem: 571 189<395.355 464.645>
VStem: 195 212<20.9665 86.6719> 333 75<142 227.941> 392 76<574.355 756.645>
LayerCount: 2
Fore
SplineSet
711 253 m 0xc0
 711 233 703 215 689 201 c 2
 509 20 l 2
 502 13 492 9 482 9 c 0
 472 9 462 13 455 20 c 0
 448 27 444 37 444 47 c 0
 444 57 448 67 455 74 c 2
 634 253 l 1
 430 456 l 1
 227 253 l 1
 339 141 l 1
 333 189 l 2
 333 191 333 192 333 194 c 0
 333 213 347 229 366 231 c 0
 368 231 368 232 370 232 c 0
 389 232 406 217 408 198 c 2xa0
 424 73 l 2
 424 70 424 68 424 65 c 0
 424 49 418 34 407 22 c 0
 407 21 407 21 406 20 c 0
 394 8 378 2 361 2 c 0
 358 2 356 2 353 2 c 2
 228 18 l 2
 209 20 195 37 195 56 c 0
 195 77 211 94 232 94 c 0
 234 94 235 93 237 93 c 2
 285 87 l 1
 172 201 l 2
 158 215 150 233 150 253 c 0
 150 273 158 291 172 305 c 2
 379 511 l 2
 393 525 411 533 430 533 c 0
 449 533 468 525 482 511 c 2
 689 305 l 2
 703 291 711 273 711 253 c 0xc0
605 532 m 0
 600 532 596 533 591 535 c 0
 576 541 567 555 567 570 c 0
 567 575 568 580 570 585 c 2
 614 690 l 2
 620 705 634 713 649 713 c 0
 654 713 658 712 663 710 c 0
 678 704 687 690 687 675 c 0
 687 670 686 666 684 661 c 2
 640 556 l 2
 634 541 620 532 605 532 c 0
256 532 m 0
 241 532 227 541 221 556 c 2
 177 661 l 2
 175 666 174 670 174 675 c 0
 174 690 182 704 197 710 c 0
 202 712 207 713 212 713 c 0
 227 713 241 705 247 690 c 2
 291 585 l 2
 293 580 293 575 293 570 c 0
 293 555 285 541 270 535 c 0
 265 533 261 532 256 532 c 0
430 571 m 0
 409 571 392 588 392 609 c 2
 392 722 l 2
 392 743 409 760 430 760 c 0
 451 760 468 743 468 722 c 2
 468 609 l 2x90
 468 588 451 571 430 571 c 0
EndSplineSet
Validated: 1
LCarets2: 4 0 0 0 0
Ligature2: "compound-1" tiki.kiku ZWJ tiki.tuki ZWJ tiki.tiki
EndChar

StartChar: c.kiku.tulu
Encoding: 369 -1 369
Width: 872
VWidth: 1100
Flags: W
HStem: 353 60<216.918 343.898 528.102 655.082>
VStem: 406 60<163.918 290.898 475.102 602.082>
LayerCount: 2
Fore
SplineSet
778 420 m 2
 788 410 794 396 794 383 c 0
 794 370 788 356 778 346 c 2
 473 41 l 2
 463 31 449 25 436 25 c 0
 423 25 409 31 399 41 c 2
 94 346 l 2
 84 356 78 370 78 383 c 0
 78 396 84 410 94 420 c 2
 399 725 l 2
 409 735 423 741 436 741 c 0
 449 741 463 735 473 725 c 2
 778 420 l 2
436 111 m 1
 708 383 l 1
 436 655 l 1
 164 383 l 1
 436 111 l 1
626 413 m 2
 643 413 656 400 656 383 c 0
 656 366 643 353 626 353 c 2
 537 353 l 1
 527 319 500 292 466 282 c 1
 466 193 l 2
 466 176 453 163 436 163 c 0
 419 163 406 176 406 193 c 2
 406 282 l 1
 372 292 345 319 335 353 c 1
 246 353 l 2
 229 353 216 366 216 383 c 0
 216 400 229 413 246 413 c 2
 335 413 l 1
 345 447 372 474 406 484 c 1
 406 573 l 2
 406 590 419 603 436 603 c 0
 453 603 466 590 466 573 c 2
 466 484 l 1
 500 474 527 447 537 413 c 1
 626 413 l 2
436 338 m 0
 461 338 481 358 481 383 c 0
 481 408 461 428 436 428 c 0
 411 428 391 408 391 383 c 0
 391 358 411 338 436 338 c 0
EndSplineSet
Validated: 1
Ligature2: "compound-1" tiki.kiku ZWJ tiki.tulu
EndChar

StartChar: c.li.li
Encoding: 370 -1 370
Width: 872
VWidth: 1100
Flags: W
HStem: 4 21G<252.5 268> 4 21G<252.5 268> 133 76<169 242 299 805.645> 554 76<169 241 298 804.645> 742 20G<251.5 267> 742 20G<251.5 267>
VStem: 242 57<76 133 209 269 497 554 630 690>
LayerCount: 2
Fore
SplineSet
771 209 m 2xb2
 792 209 809 192 809 171 c 0
 809 150 792 133 771 133 c 2
 299 133 l 1
 299 46 l 2
 299 21 279 4 257 4 c 0
 248 4 239 7 231 13 c 2
 68 140 l 2
 57 148 52 161 52 173 c 0
 52 185 57 198 68 206 c 2
 231 332 l 2
 239 338 248 341 257 341 c 0
 279 341 299 324 299 299 c 2
 299 209 l 1
 771 209 l 2xb2
242 269 m 1
 165 209 l 1
 242 209 l 1
 242 269 l 1
242 76 m 1
 242 133 l 1
 169 133 l 1
 242 76 l 1
770 630 m 2
 791 630 808 613 808 592 c 0
 808 571 791 554 770 554 c 2
 298 554 l 1
 298 467 l 2
 298 442 278 425 256 425 c 0
 247 425 238 428 230 434 c 2
 67 560 l 2
 56 568 51 581 51 593 c 0
 51 605 56 618 67 626 c 2
 230 753 l 2
 238 759 247 762 256 762 c 0x3a
 278 762 298 745 298 720 c 2
 298 630 l 1
 770 630 l 2
241 690 m 1
 164 630 l 1
 241 630 l 1
 241 690 l 1
241 497 m 1
 241 554 l 1
 169 554 l 1
 241 497 l 1
EndSplineSet
Validated: 1
Ligature2: "compound-1" tiki.li ZWJ tiki.li
EndChar

StartChar: c.lika.ka
Encoding: 371 -1 371
Width: 872
VWidth: 1100
Flags: W
HStem: 4 76<528.536 666.552> 171 75<198.884 335.451> 307 76<357.428 514.633> 501 68<336.038 399.962 472.038 535.962> 686 76<357.428 514.633>
VStem: 69 74<28.9877 105.867> 209 75<456.367 613.435> 334 68<503.038 566.962> 470 68<503.038 566.962> 588 76<456.367 613.435> 728 75<139.454 222.746>
LayerCount: 2
Fore
SplineSet
601 4 m 0
 582 4 538 8 486 39 c 0
 443 65 385 111 354 136 c 0
 331 155 303 167 276 170 c 0
 271 171 266 171 261 171 c 0
 205 171 167 132 143 52 c 0
 138 36 123 25 107 25 c 0
 103 25 100 26 96 27 c 0
 80 32 69 47 69 63 c 0
 69 67 69 70 70 74 c 0
 113 219 200 246 261 246 c 0
 269 246 278 246 285 245 c 0
 327 240 367 223 402 195 c 0
 431 171 486 127 525 104 c 0
 563 81 592 80 601 80 c 0
 603 80 603 80 603 80 c 1
 708 89 726 183 728 194 c 0
 731 213 747 226 765 226 c 0
 767 226 769 226 771 226 c 0
 790 223 803 207 803 189 c 0
 803 187 803 185 803 183 c 0
 795 126 743 15 610 4 c 0
 608 4 606 4 601 4 c 0
436 686 m 0
 352 686 284 619 284 535 c 0
 284 451 352 383 436 383 c 0
 520 383 588 451 588 535 c 0
 588 619 520 686 436 686 c 0
436 762 m 0
 562 762 664 661 664 535 c 0
 664 409 562 307 436 307 c 0
 310 307 209 409 209 535 c 0
 209 661 310 762 436 762 c 0
334 535 m 0
 334 554 349 569 368 569 c 0
 387 569 402 554 402 535 c 0
 402 516 387 501 368 501 c 0
 349 501 334 516 334 535 c 0
470 535 m 0
 470 554 485 569 504 569 c 0
 523 569 538 554 538 535 c 0
 538 516 523 501 504 501 c 0
 485 501 470 516 470 535 c 0
EndSplineSet
Validated: 1
Ligature2: "compound-1" tiki.lika ZWJ tiki.ka
EndChar

StartChar: c.lika.kati
Encoding: 372 -1 372
Width: 872
VWidth: 1100
Flags: W
HStem: 4 76<534.533 672.552> 171 75<204.884 341.885>
VStem: 75 74<28.9877 105.867> 404 76<329.355 519 626 739.645> 734 75<139.454 222.746>
LayerCount: 2
Fore
SplineSet
607 4 m 0
 588 4 544 8 492 39 c 0
 449 65 391 111 360 136 c 0
 337 155 309 167 282 170 c 0
 277 171 272 171 267 171 c 0
 211 171 173 132 149 52 c 0
 144 36 129 25 113 25 c 0
 109 25 106 26 102 27 c 0
 86 32 75 47 75 63 c 0
 75 67 75 70 76 74 c 0
 119 219 206 246 267 246 c 0
 275 246 283 246 290 245 c 0
 332 240 372 223 407 195 c 0
 436 171 492 127 531 104 c 0
 569 81 597 80 606 80 c 0
 608 80 609 80 609 80 c 1
 714 89 732 183 734 194 c 0
 737 213 753 226 771 226 c 0
 773 226 775 226 777 226 c 0
 796 223 809 207 809 189 c 0
 809 187 809 185 809 183 c 0
 801 126 749 15 616 4 c 0
 614 4 612 4 607 4 c 0
639 679 m 2
 480 519 l 1
 480 364 l 2
 480 343 463 326 442 326 c 0
 421 326 404 343 404 364 c 2
 404 519 l 1
 244 679 l 2
 237 686 233 695 233 705 c 0
 233 715 237 725 244 732 c 0
 251 739 261 743 271 743 c 0
 281 743 291 739 298 732 c 2
 404 626 l 1
 404 705 l 2
 404 726 421 743 442 743 c 0
 463 743 480 726 480 705 c 2
 480 626 l 1
 586 732 l 2
 593 739 602 743 612 743 c 0
 622 743 632 739 639 732 c 0
 646 725 650 715 650 705 c 0
 650 695 646 686 639 679 c 2
EndSplineSet
Validated: 1
Ligature2: "compound-1" tiki.lika ZWJ tiki.kati
EndChar

StartChar: c.lika.lili
Encoding: 373 -1 373
Width: 872
VWidth: 1100
Flags: W
HStem: 4 76<528.536 666.552> 171 75<198.884 335.451> 345 76<484.317 615.621> 478 114<145.306 234.078> 648 76<483.21 616.729>
VStem: 69 74<28.9877 105.867> 133 113<490.306 579.694> 360 76<469.317 600.452> 664 75<469.317 600.452> 728 75<139.454 222.746>
LayerCount: 2
Fore
SplineSet
601 4 m 0xfd40
 582 4 538 8 486 39 c 0
 443 65 385 111 354 136 c 0
 331 155 303 167 276 170 c 0
 271 171 266 171 261 171 c 0
 205 171 167 132 143 52 c 0
 138 36 123 25 107 25 c 0
 103 25 100 26 96 27 c 0
 80 32 69 47 69 63 c 0
 69 67 69 70 70 74 c 0
 113 219 200 246 261 246 c 0
 269 246 278 246 285 245 c 0
 327 240 367 223 402 195 c 0
 431 171 486 127 525 104 c 0
 563 81 592 80 601 80 c 0
 603 80 603 80 603 80 c 1
 708 89 726 183 728 194 c 0
 731 213 747 226 765 226 c 0
 767 226 769 226 771 226 c 0
 790 223 803 207 803 189 c 0
 803 187 803 185 803 183 c 0
 795 126 743 15 610 4 c 0
 608 4 606 4 601 4 c 0xfd40
550 648 m 0
 487 648 436 598 436 535 c 0
 436 472 487 421 550 421 c 0
 613 421 664 472 664 535 c 0xf980
 664 598 613 648 550 648 c 0
550 724 m 0
 655 724 739 640 739 535 c 0
 739 430 655 345 550 345 c 0
 445 345 360 430 360 535 c 0
 360 640 445 724 550 724 c 0
133 535 m 0xfb
 133 566 159 592 190 592 c 0
 221 592 246 566 246 535 c 0
 246 504 221 478 190 478 c 0
 159 478 133 504 133 535 c 0xfb
EndSplineSet
Validated: 1
Ligature2: "compound-1" tiki.lika ZWJ tiki.lili
EndChar

StartChar: c.lika.mi
Encoding: 374 -1 374
Width: 872
VWidth: 1100
Flags: W
HStem: 4 76<528.536 666.552> 171 75<198.884 335.451> 464 76<326 398 474 546> 742 20G<425.5 446.5> 742 20G<425.5 446.5>
VStem: 69 74<28.9877 105.867> 398 76<371 464 540 758.645> 728 75<139.454 223.071>
LayerCount: 2
Fore
SplineSet
601 4 m 0xe7
 582 4 538 8 486 39 c 0
 443 65 385 111 354 136 c 0
 331 155 303 167 276 170 c 0
 271 171 266 171 261 171 c 0
 205 171 167 132 143 52 c 0
 138 36 123 25 107 25 c 0
 103 25 100 26 96 27 c 0
 80 32 69 47 69 63 c 0
 69 67 69 70 70 74 c 0
 113 219 200 246 261 246 c 0
 269 246 278 246 285 245 c 0
 327 240 367 223 402 195 c 0
 431 171 486 127 525 104 c 0
 563 81 592 80 601 80 c 0
 603 80 603 80 603 80 c 1
 711 89 727 190 728 194 c 0
 731 213 746 226 765 226 c 0
 767 226 769 226 771 226 c 0
 790 223 803 208 803 189 c 0
 803 187 803 185 803 183 c 0
 795 126 743 15 610 4 c 0
 608 4 606 4 601 4 c 0xe7
595 540 m 2
 626 540 647 514 647 487 c 0
 647 476 644 465 636 455 c 2
 477 251 l 2
 467 238 452 231 437 231 c 2
 436 231 l 1
 435 231 l 2
 420 231 405 238 395 251 c 2
 236 455 l 2
 228 465 225 476 225 487 c 0
 225 514 246 540 277 540 c 2
 398 540 l 1
 398 724 l 2
 398 745 415 762 436 762 c 0xf7
 457 762 474 745 474 724 c 2
 474 540 l 1
 595 540 l 2
326 464 m 1
 398 371 l 1
 398 464 l 1
 326 464 l 1
474 371 m 1
 546 464 l 1
 474 464 l 1
 474 371 l 1
EndSplineSet
Validated: 1
Ligature2: "compound-1" tiki.lika ZWJ tiki.mi
EndChar

StartChar: c.lika.muku
Encoding: 375 -1 375
Width: 872
VWidth: 1100
Flags: W
HStem: 4 76<528.536 666.552> 171 76<198.884 335.451> 364 76<337.855 534.145> 686 76<172 700>
VStem: 69 74<28.9877 105.884> 728 75<139.454 222.746>
LayerCount: 2
Fore
SplineSet
601 4 m 0
 582 4 538 8 486 39 c 0
 443 65 385 111 354 136 c 0
 331 155 303 167 276 170 c 0
 271 171 266 171 261 171 c 0
 205 171 167 131 143 52 c 0
 138 36 123 25 107 25 c 0
 103 25 100 26 96 27 c 0
 80 32 69 47 69 63 c 0
 69 67 69 70 70 74 c 0
 113 219 200 247 261 247 c 0
 269 247 278 246 285 245 c 0
 327 240 367 223 402 195 c 0
 431 171 486 127 525 104 c 0
 563 81 592 80 601 80 c 0
 603 80 603 80 603 80 c 1
 708 89 726 183 728 194 c 0
 731 213 747 226 765 226 c 0
 767 226 769 226 771 226 c 0
 790 223 803 207 803 189 c 0
 803 187 803 185 803 183 c 0
 795 126 743 15 610 4 c 0
 608 4 606 4 601 4 c 0
436 364 m 0
 216 364 95 570 95 702 c 0
 95 717 101 733 111 744 c 0
 122 756 138 762 154 762 c 2
 719 762 l 2
 735 762 750 756 761 744 c 0
 771 733 777 717 777 702 c 0
 777 570 656 364 436 364 c 0
172 686 m 1
 189 546 303 440 436 440 c 0
 569 440 683 546 700 686 c 1
 172 686 l 1
EndSplineSet
Validated: 1
Ligature2: "compound-1" tiki.lika ZWJ tiki.muku
EndChar

StartChar: c.lika.pula
Encoding: 376 -1 376
Width: 872
VWidth: 1100
Flags: W
HStem: 4 76<534.533 672.552> 171 76<204.884 341.885> 376 76<356.255 527.585>
VStem: 75 74<28.9877 105.884> 176 76<563.422 690.645> 631 76<563.422 690.645> 734 75<139.454 222.746>
LayerCount: 2
Fore
SplineSet
607 4 m 0
 588 4 544 8 492 39 c 0
 449 65 391 111 360 136 c 0
 337 155 309 167 282 170 c 0
 277 171 272 171 267 171 c 0
 211 171 173 132 149 52 c 0
 144 36 129 25 113 25 c 0
 109 25 106 26 102 27 c 0
 86 32 75 47 75 63 c 0
 75 67 75 70 76 74 c 0
 119 219 206 247 267 247 c 0
 275 247 283 246 290 245 c 0
 332 240 372 223 407 195 c 0
 436 171 492 127 531 104 c 0
 569 81 597 80 606 80 c 0
 608 80 609 80 609 80 c 1
 714 89 732 183 734 194 c 0
 737 213 753 226 771 226 c 0
 773 226 775 226 777 226 c 0
 796 223 809 207 809 189 c 0
 809 187 809 185 809 183 c 0
 801 126 749 15 616 4 c 0
 614 4 612 4 607 4 c 0
442 376 m 0
 296 376 176 502 176 656 c 0
 176 677 193 694 214 694 c 0
 235 694 252 677 252 656 c 0
 252 544 337 452 442 452 c 0
 547 452 631 544 631 656 c 0
 631 677 648 694 669 694 c 0
 690 694 707 677 707 656 c 0
 707 502 588 376 442 376 c 0
EndSplineSet
Validated: 1
Ligature2: "compound-1" tiki.lika ZWJ tiki.pula
EndChar

StartChar: c.lika.tiki
Encoding: 377 -1 377
Width: 872
VWidth: 1100
Flags: W
HStem: 4 76<528.536 666.552> 171 76<198.884 335.451> 307 76<379.704 519.19> 518 75<363 445.534> 624 75<380.291 517.478>
VStem: 69 74<28.9877 105.884> 243 75<646 720.534> 569 76<432.81 572.296> 728 75<139.454 222.746>
LayerCount: 2
Fore
SplineSet
645 503 m 0
 645 451 625 402 588 365 c 1
 587 365 l 1
 550 328 501 307 449 307 c 0
 397 307 347 328 310 365 c 0
 303 372 299 382 299 392 c 0
 299 402 303 411 310 418 c 0
 317 425 327 430 337 430 c 0
 347 430 357 425 364 418 c 0
 387 395 417 383 449 383 c 0
 481 383 511 395 534 418 c 0
 557 441 569 471 569 503 c 0
 569 535 557 565 534 588 c 0
 511 611 481 624 449 624 c 0
 417 624 387 611 364 589 c 1
 363 587 l 1
 407 593 l 2
 409 593 409 593 411 593 c 0
 432 593 449 576 449 555 c 0
 449 536 435 520 416 518 c 2
 297 503 l 2
 294 503 292 502 289 502 c 0
 273 502 258 509 246 520 c 2
 245 521 l 2
 234 533 227 548 227 564 c 0
 227 567 228 569 228 572 c 2
 243 691 l 2
 245 710 261 724 280 724 c 0
 282 724 283 724 285 724 c 0
 304 721 318 705 318 686 c 0
 318 684 318 683 318 681 c 2
 314 646 l 1
 351 681 398 699 449 699 c 0
 501 699 550 680 587 643 c 1
 587 642 l 1
 624 605 645 555 645 503 c 0
601 4 m 0
 582 4 538 8 486 39 c 0
 443 65 385 111 354 136 c 0
 331 155 303 167 276 170 c 0
 271 171 266 171 261 171 c 0
 205 171 167 132 143 52 c 0
 138 36 123 25 107 25 c 0
 103 25 100 26 96 27 c 0
 80 32 69 47 69 63 c 0
 69 67 69 70 70 74 c 0
 113 219 200 247 261 247 c 0
 269 247 278 246 285 245 c 0
 327 240 367 223 402 195 c 0
 431 171 486 127 525 104 c 0
 563 81 592 80 601 80 c 0
 603 80 603 80 603 80 c 1
 708 89 726 183 728 194 c 0
 731 213 747 226 765 226 c 0
 767 226 769 226 771 226 c 0
 790 223 803 207 803 189 c 0
 803 187 803 185 803 183 c 0
 795 126 743 15 610 4 c 0
 608 4 606 4 601 4 c 0
EndSplineSet
Validated: 1
Ligature2: "compound-1" tiki.lika ZWJ tiki.tiki
EndChar

StartChar: c.lupa.ka
Encoding: 378 -1 378
Width: 872
VWidth: 1100
Flags: W
HStem: 42 76<172.587 701.524> 174 76<357.428 514.633> 368 68<336.038 399.962 472.038 535.962> 554 76<357.428 514.633>
VStem: 95 76<119.587 720.645> 209 75<323.367 480.633> 334 68<370.038 433.962> 470 68<370.038 433.962> 588 76<323.367 480.633> 702 75<119.587 720.645>
LayerCount: 2
Fore
SplineSet
693 42 m 2
 179 42 l 2
 133 42 95 80 95 126 c 2
 95 686 l 2
 95 707 112 724 133 724 c 0
 154 724 171 707 171 686 c 2
 171 126 l 2
 171 121 174 118 179 118 c 2
 693 118 l 2
 698 118 702 121 702 126 c 2
 702 686 l 2
 702 707 718 724 739 724 c 0
 760 724 777 707 777 686 c 2
 777 126 l 2
 777 80 739 42 693 42 c 2
436 554 m 0
 352 554 284 486 284 402 c 0
 284 318 352 250 436 250 c 0
 520 250 588 318 588 402 c 0
 588 486 520 554 436 554 c 0
436 630 m 0
 562 630 664 528 664 402 c 0
 664 276 562 174 436 174 c 0
 310 174 209 276 209 402 c 0
 209 528 310 630 436 630 c 0
334 402 m 0
 334 421 349 436 368 436 c 0
 387 436 402 421 402 402 c 0
 402 383 387 368 368 368 c 0
 349 368 334 383 334 402 c 0
470 402 m 0
 470 421 485 436 504 436 c 0
 523 436 538 421 538 402 c 0
 538 383 523 368 504 368 c 0
 485 368 470 383 470 402 c 0
EndSplineSet
Validated: 1
Ligature2: "compound-1" tiki.lupa ZWJ tiki.ka
EndChar

StartChar: c.lupa.kati
Encoding: 379 -1 379
Width: 872
VWidth: 1100
Flags: W
HStem: 42 76<176.465 705.413>
VStem: 100 76<119.587 720.645> 404 76<196.355 386 494 607.645> 707 76<119.587 720.645>
LayerCount: 2
Fore
SplineSet
699 42 m 2
 185 42 l 2
 139 42 100 80 100 126 c 2
 100 686 l 2
 100 707 117 724 138 724 c 0
 159 724 176 707 176 686 c 2
 176 126 l 2
 176 121 180 118 185 118 c 2
 699 118 l 2
 704 118 707 121 707 126 c 2
 707 686 l 2
 707 707 724 724 745 724 c 0
 766 724 783 707 783 686 c 2
 783 126 l 2
 783 80 745 42 699 42 c 2
639 546 m 2
 480 386 l 1
 480 231 l 2
 480 210 463 193 442 193 c 0
 421 193 404 210 404 231 c 2
 404 386 l 1
 244 546 l 2
 237 553 233 563 233 573 c 0
 233 583 237 592 244 599 c 0
 251 606 261 611 271 611 c 0
 281 611 291 606 298 599 c 2
 404 494 l 1
 404 573 l 2
 404 594 421 611 442 611 c 0
 463 611 480 594 480 573 c 2
 480 494 l 1
 586 599 l 2
 593 606 602 611 612 611 c 0
 622 611 632 606 639 599 c 0
 646 592 650 583 650 573 c 0
 650 563 646 553 639 546 c 2
EndSplineSet
Validated: 1
Ligature2: "compound-1" tiki.lupa ZWJ tiki.kati
EndChar

StartChar: c.lupa.kiku
Encoding: 380 -1 380
Width: 872
VWidth: 1100
Flags: W
HStem: 42 76<172.587 701.524>
VStem: 95 76<119.587 720.645> 702 75<119.587 720.645>
LayerCount: 2
Fore
SplineSet
693 42 m 2
 179 42 l 2
 133 42 95 80 95 126 c 2
 95 686 l 2
 95 707 112 724 133 724 c 0
 154 724 171 707 171 686 c 2
 171 126 l 2
 171 121 174 118 179 118 c 2
 693 118 l 2
 698 118 702 121 702 126 c 2
 702 686 l 2
 702 707 718 724 739 724 c 0
 760 724 777 707 777 686 c 2
 777 126 l 2
 777 80 739 42 693 42 c 2
436 560 m 1
 278 402 l 1
 436 244 l 1
 594 402 l 1
 436 560 l 1
436 646 m 0
 449 646 463 640 473 630 c 2
 665 439 l 2
 675 429 680 415 680 402 c 0
 680 389 675 375 665 365 c 2
 473 173 l 2
 463 163 449 158 436 158 c 0
 423 158 409 163 399 173 c 2
 208 365 l 2
 198 375 192 389 192 402 c 0
 192 415 198 429 208 439 c 2
 399 630 l 2
 409 640 423 646 436 646 c 0
EndSplineSet
Validated: 1
Ligature2: "compound-1" tiki.lupa ZWJ tiki.kiku
EndChar

StartChar: c.lupa.ku
Encoding: 381 -1 381
Width: 872
VWidth: 1100
Flags: W
HStem: 42 76<172.587 701.524> 199 76<288.324 349.716 452.608 513.808> 530 75<358.705 418.674 523.705 583.631>
VStem: 95 76<119.587 720.645> 274 76<443.469 519.153> 358 76<282.877 365.562> 439 75<445.589 519.153> 522 76<282.877 366.833> 702 75<119.587 720.645>
LayerCount: 2
Fore
SplineSet
693 42 m 2
 179 42 l 2
 133 42 95 80 95 126 c 2
 95 686 l 2
 95 707 112 724 133 724 c 0
 154 724 171 707 171 686 c 2
 171 126 l 2
 171 121 174 118 179 118 c 2
 693 118 l 2
 698 118 702 121 702 126 c 2
 702 686 l 2
 702 707 718 724 739 724 c 0
 760 724 777 707 777 686 c 2
 777 126 l 2
 777 80 739 42 693 42 c 2
322 199 m 0
 303 199 288 213 285 232 c 0
 285 234 284 235 284 237 c 0
 284 255 297 272 316 275 c 0
 323 276 355 284 358 320 c 0
 358 322 357 332 348 348 c 0
 340 361 324 383 304 407 c 0
 288 427 278 450 275 475 c 0
 275 479 274 484 274 489 c 0
 274 522 288 578 374 603 c 0
 378 604 381 605 385 605 c 0
 401 605 416 593 421 577 c 0
 422 573 423 571 423 567 c 0
 423 551 412 535 396 530 c 0
 356 518 350 501 350 490 c 0
 350 488 350 486 350 484 c 0
 351 474 356 464 363 455 c 0
 379 436 400 408 413 387 c 0
 431 357 434 332 434 320 c 0
 434 317 433 314 433 313 c 0
 426 235 362 205 328 200 c 0
 326 200 324 199 322 199 c 0
486 199 m 0
 467 199 452 213 449 232 c 0
 449 234 449 235 449 237 c 0
 449 255 462 272 481 275 c 0
 488 276 519 284 522 320 c 0
 522 322 521 332 512 348 c 0
 504 361 489 383 469 407 c 0
 453 427 442 450 439 475 c 0
 439 479 439 484 439 489 c 0
 439 522 453 578 539 603 c 0
 543 604 545 605 549 605 c 0
 565 605 581 593 586 577 c 0
 587 573 587 571 587 567 c 0
 587 551 576 535 560 530 c 0
 520 518 514 501 514 490 c 0
 514 488 515 486 515 484 c 0
 516 474 521 464 528 455 c 0
 544 436 564 408 577 387 c 0
 595 357 598 332 598 320 c 0
 598 317 598 314 598 313 c 0
 591 235 526 205 492 200 c 0
 490 200 488 199 486 199 c 0
EndSplineSet
Validated: 1
Ligature2: "compound-1" tiki.lupa ZWJ tiki.ku
EndChar

StartChar: c.lupa.lapi
Encoding: 382 -1 382
Width: 872
VWidth: 1100
Flags: W
HStem: 42 76<172.587 701.524> 273 76<507.708 592.213> 364 76<196.355 435.641> 455 76<507.708 592.213>
VStem: 95 76<119.587 720.645> 603 76<359.787 444.213> 702 75<119.587 720.645>
LayerCount: 2
Fore
SplineSet
693 42 m 2
 179 42 l 2
 133 42 95 80 95 126 c 2
 95 686 l 2
 95 707 112 724 133 724 c 0
 154 724 171 707 171 686 c 2
 171 126 l 2
 171 121 174 118 179 118 c 2
 693 118 l 2
 698 118 702 121 702 126 c 2
 702 686 l 2
 702 707 718 724 739 724 c 0
 760 724 777 707 777 686 c 2
 777 126 l 2
 777 80 739 42 693 42 c 2
550 531 m 0
 621 531 679 473 679 402 c 0
 679 331 621 273 550 273 c 0
 492 273 443 311 427 364 c 1
 231 364 l 2
 210 364 193 381 193 402 c 0
 193 423 210 440 231 440 c 2
 427 440 l 1
 443 493 492 531 550 531 c 0
550 349 m 0
 579 349 603 373 603 402 c 0
 603 431 579 455 550 455 c 0
 521 455 497 431 497 402 c 0
 497 373 521 349 550 349 c 0
EndSplineSet
Validated: 1
Ligature2: "compound-1" tiki.lupa ZWJ tiki.lapi
EndChar

StartChar: c.lupa.lili
Encoding: 383 -1 383
Width: 872
VWidth: 1100
Flags: W
HStem: 42 76<176.465 705.413> 260 76<477.949 576.051> 359 86<219.139 294.861> 468 76<477.949 576.051>
VStem: 100 76<119.587 720.645> 214 86<364.139 439.861> 385 76<352.949 451.051> 593 76<352.949 451.051> 707 76<119.587 720.645>
LayerCount: 2
Fore
SplineSet
699 42 m 2
 185 42 l 2
 139 42 100 80 100 126 c 2
 100 686 l 2
 100 707 117 724 138 724 c 0
 159 724 176 707 176 686 c 2
 176 126 l 2
 176 121 180 118 185 118 c 2
 699 118 l 2
 704 118 707 121 707 126 c 2
 707 686 l 2
 707 707 724 724 745 724 c 0
 766 724 783 707 783 686 c 2
 783 126 l 2
 783 80 745 42 699 42 c 2
527 468 m 0
 490 468 461 439 461 402 c 0
 461 365 490 336 527 336 c 0
 564 336 593 365 593 402 c 0
 593 439 564 468 527 468 c 0
527 544 m 0
 606 544 669 481 669 402 c 0
 669 323 606 260 527 260 c 0
 448 260 385 323 385 402 c 0
 385 481 448 544 527 544 c 0
214 402 m 0
 214 426 233 445 257 445 c 0
 281 445 300 426 300 402 c 0
 300 378 281 359 257 359 c 0
 233 359 214 378 214 402 c 0
EndSplineSet
Validated: 1
Ligature2: "compound-1" tiki.lupa ZWJ tiki.lili
EndChar

StartChar: c.lupa.mi
Encoding: 384 -1 384
Width: 872
VWidth: 1100
Flags: W
HStem: 42 76<172.587 701.524> 388 76<326 398 474 546>
VStem: 95 76<119.587 720.645> 398 76<295 388 464 720.645> 702 75<119.587 720.645>
LayerCount: 2
Fore
SplineSet
693 42 m 2
 179 42 l 2
 133 42 95 80 95 126 c 2
 95 686 l 2
 95 707 112 724 133 724 c 0
 154 724 171 707 171 686 c 2
 171 126 l 2
 171 121 174 118 179 118 c 2
 693 118 l 2
 698 118 702 121 702 126 c 2
 702 686 l 2
 702 707 718 724 739 724 c 0
 760 724 777 707 777 686 c 2
 777 126 l 2
 777 80 739 42 693 42 c 2
595 464 m 2
 626 464 647 438 647 411 c 0
 647 400 644 390 636 380 c 2
 477 176 l 2
 467 163 452 155 437 155 c 2
 436 155 l 1
 435 155 l 2
 420 155 405 163 395 176 c 2
 236 380 l 2
 228 390 225 400 225 411 c 0
 225 438 246 464 277 464 c 2
 398 464 l 1
 398 686 l 2
 398 707 415 724 436 724 c 0
 457 724 474 707 474 686 c 2
 474 464 l 1
 595 464 l 2
326 388 m 1
 398 295 l 1
 398 388 l 1
 326 388 l 1
474 295 m 1
 546 388 l 1
 474 388 l 1
 474 295 l 1
EndSplineSet
Validated: 1
Ligature2: "compound-1" tiki.lupa ZWJ tiki.mi
EndChar

StartChar: c.lupa.muku
Encoding: 385 -1 385
Width: 872
VWidth: 1100
Flags: W
HStem: 42 76<172.587 701.524> 267 76<363.624 508.19> 461 76<296 576>
VStem: 95 76<119.587 720.645> 702 75<119.587 720.645>
LayerCount: 2
Fore
SplineSet
693 42 m 2
 179 42 l 2
 133 42 95 80 95 126 c 2
 95 686 l 2
 95 707 112 724 133 724 c 0
 154 724 171 707 171 686 c 2
 171 126 l 2
 171 121 174 118 179 118 c 2
 693 118 l 2
 698 118 702 121 702 126 c 2
 702 686 l 2
 702 707 718 724 739 724 c 0
 760 724 777 707 777 686 c 2
 777 126 l 2
 777 80 739 42 693 42 c 2
436 267 m 0
 295 267 216 398 216 485 c 0
 216 498 221 512 230 521 c 0
 239 531 253 537 267 537 c 2
 606 537 l 2
 620 537 633 531 642 521 c 0
 651 512 656 498 656 485 c 0
 656 398 576 267 436 267 c 0
296 461 m 1
 312 393 369 343 436 343 c 0
 503 343 560 393 576 461 c 1
 296 461 l 1
EndSplineSet
Validated: 1
Ligature2: "compound-1" tiki.lupa ZWJ tiki.muku
EndChar

StartChar: c.lupa.muti
Encoding: 386 -1 386
Width: 872
VWidth: 1100
Flags: W
HStem: 42 76<172.587 701.524> 227 57<363.278 510.211> 451 37<306.375 327.607 544.393 565.625> 549 38<272.82 327.18 544.82 599.18>
VStem: 95 76<119.587 720.645> 232 38<490.163 546.592> 248 57<342.188 453.074> 330 38<490.57 546.592> 504 38<490.57 546.592> 567 57<341.528 453.074> 602 38<490.163 546.592> 702 75<119.587 720.645>
LayerCount: 2
Fore
SplineSet
693 42 m 2xf990
 179 42 l 2
 133 42 95 80 95 126 c 2
 95 686 l 2
 95 707 112 724 133 724 c 0
 154 724 171 707 171 686 c 2
 171 126 l 2
 171 121 174 118 179 118 c 2
 693 118 l 2
 698 118 702 121 702 126 c 2
 702 686 l 2
 702 707 718 724 739 724 c 0
 760 724 777 707 777 686 c 2
 777 126 l 2
 777 80 739 42 693 42 c 2xf990
640 518 m 0xf9b0
 640 497 631 480 616 467 c 1
 621 450 624 432 624 414 c 0
 624 364 604 317 569 282 c 0
 534 247 486 227 436 227 c 0
 386 227 338 247 303 282 c 0
 268 317 248 364 248 414 c 0xfbd0
 248 432 251 450 256 467 c 1
 241 480 232 497 232 518 c 0xfd90
 232 556 262 587 300 587 c 0
 338 587 368 556 368 518 c 0
 368 484 343 456 310 451 c 1
 307 439 305 427 305 414 c 0
 305 379 319 347 344 322 c 0
 369 297 401 284 436 284 c 0
 471 284 504 297 529 322 c 0
 554 347 567 379 567 414 c 0xfbd0
 567 427 565 439 562 451 c 1
 529 456 504 484 504 518 c 0
 504 556 534 587 572 587 c 0
 610 587 640 556 640 518 c 0xf9b0
300 549 m 0
 283 549 270 535 270 518 c 0xfd90
 270 501 283 488 300 488 c 0
 317 488 330 501 330 518 c 0
 330 535 317 549 300 549 c 0
542 518 m 0
 542 501 555 488 572 488 c 0
 589 488 602 501 602 518 c 0xf9b0
 602 535 589 549 572 549 c 0
 555 549 542 535 542 518 c 0
EndSplineSet
Validated: 1
Ligature2: "compound-1" tiki.lupa ZWJ tiki.muti
EndChar

StartChar: c.lupa.pali
Encoding: 387 -1 387
Width: 872
VWidth: 1100
Flags: W
HStem: 42 76<176.465 705.413> 306 76<382.573 501.185> 415 76<407.72 476.28> 567 76<407.72 476.28>
VStem: 100 76<119.587 720.645> 267 76<164.355 265.02> 328 76<494.72 563.28> 480 76<494.72 563.28> 540 76<164.355 266.073> 707 76<119.587 720.645>
LayerCount: 2
Fore
SplineSet
699 42 m 2xf840
 185 42 l 2
 139 42 100 80 100 126 c 2
 100 686 l 2
 100 707 117 724 138 724 c 0
 159 724 176 707 176 686 c 2
 176 126 l 2
 176 121 180 118 185 118 c 2
 699 118 l 2
 704 118 707 121 707 126 c 2
 707 686 l 2
 707 707 724 724 745 724 c 0
 766 724 783 707 783 686 c 2
 783 126 l 2
 783 80 745 42 699 42 c 2xf840
578 161 m 0
 557 161 540 178 540 199 c 0
 540 258 496 306 442 306 c 0
 388 306 343 258 343 199 c 0
 343 178 326 161 305 161 c 0
 284 161 267 178 267 199 c 0
 267 300 346 382 442 382 c 0
 538 382 616 300 616 199 c 0xfcc0
 616 178 599 161 578 161 c 0
442 567 m 0
 421 567 404 550 404 529 c 0
 404 508 421 491 442 491 c 0
 463 491 480 508 480 529 c 0xfb40
 480 550 463 567 442 567 c 0
442 643 m 0
 505 643 556 592 556 529 c 0
 556 466 505 415 442 415 c 0
 379 415 328 466 328 529 c 0
 328 592 379 643 442 643 c 0
EndSplineSet
Validated: 1
Ligature2: "compound-1" tiki.lupa ZWJ tiki.pali
EndChar

StartChar: c.lupa.taka
Encoding: 388 -1 388
Width: 872
VWidth: 1100
Flags: W
HStem: 42 76<172.587 701.524>
VStem: 95 76<119.587 720.645> 702 75<119.587 720.645>
LayerCount: 2
Fore
SplineSet
371 199 m 0
 366 199 362 200 357 202 c 2
 250 247 l 2
 235 253 227 267 227 282 c 0
 227 287 228 291 230 296 c 2
 347 581 l 2
 347 582 348 583 349 584 c 0
 351 587 353 590 355 592 c 0
 358 596 362 599 367 601 c 0
 368 601 368 602 369 602 c 0
 375 604 381 605 387 604 c 0
 389 604 390 603 392 603 c 0
 396 602 400 601 403 599 c 0
 405 598 407 596 408 595 c 0
 412 592 415 588 417 583 c 0
 417 582 418 582 418 581 c 2
 521 331 l 1
 593 361 l 2
 598 363 602 364 607 364 c 0
 622 364 637 355 643 340 c 0
 645 335 645 331 645 326 c 0
 645 311 637 297 622 291 c 2
 515 247 l 2
 510 245 506 244 501 244 c 0
 486 244 472 252 466 267 c 2
 383 467 l 1
 314 302 l 1
 386 272 l 2
 401 266 409 252 409 237 c 0
 409 232 409 228 407 223 c 0
 401 208 386 199 371 199 c 0
693 42 m 2
 179 42 l 2
 133 42 95 80 95 126 c 2
 95 686 l 2
 95 707 112 724 133 724 c 0
 154 724 171 707 171 686 c 2
 171 126 l 2
 171 121 174 118 179 118 c 2
 693 118 l 2
 698 118 702 121 702 126 c 2
 702 686 l 2
 702 707 718 724 739 724 c 0
 760 724 777 707 777 686 c 2
 777 126 l 2
 777 80 739 42 693 42 c 2
EndSplineSet
Validated: 1
Ligature2: "compound-1" tiki.lupa ZWJ tiki.taka
EndChar

StartChar: c.lupa.tiki
Encoding: 389 -1 389
Width: 872
VWidth: 1100
Flags: W
HStem: 42 76<172.587 701.524> 194 75<380.307 517.478> 404 75<363 445.534> 510 76<380.291 519.19>
VStem: 95 76<119.587 720.645> 243 75<532 606.754> 569 76<319.81 460.19> 702 75<119.587 720.645>
LayerCount: 2
Fore
SplineSet
693 42 m 2
 179 42 l 2
 133 42 95 80 95 126 c 2
 95 686 l 2
 95 707 112 724 133 724 c 0
 154 724 171 707 171 686 c 2
 171 126 l 2
 171 121 174 118 179 118 c 2
 693 118 l 2
 698 118 702 121 702 126 c 2
 702 686 l 2
 702 707 718 724 739 724 c 0
 760 724 777 707 777 686 c 2
 777 126 l 2
 777 80 739 42 693 42 c 2
645 390 m 0
 645 338 625 289 588 252 c 2
 587 251 l 2
 550 214 501 194 449 194 c 0
 397 194 347 214 310 251 c 0
 303 258 299 268 299 278 c 0
 299 288 303 298 310 305 c 0
 317 312 327 316 337 316 c 0
 347 316 357 312 364 305 c 0
 387 282 417 269 449 269 c 0
 481 269 511 282 534 305 c 0
 557 328 569 358 569 390 c 0
 569 422 557 452 534 475 c 0
 511 498 481 510 449 510 c 0
 417 510 387 497 364 475 c 2
 363 474 l 1
 407 479 l 2
 409 479 409 479 411 479 c 0
 432 479 449 462 449 441 c 0
 449 422 435 406 416 404 c 2
 297 389 l 2
 294 389 292 388 289 388 c 0
 273 388 258 395 246 406 c 1
 246 407 l 1
 245 407 l 1
 234 419 227 434 227 450 c 0
 227 453 228 455 228 458 c 2
 243 577 l 2
 245 596 261 610 280 610 c 0
 282 610 283 610 285 610 c 0
 304 607 318 592 318 573 c 0
 318 571 318 570 318 568 c 2
 314 532 l 1
 351 567 398 586 449 586 c 0
 501 586 550 566 587 529 c 1
 587 528 l 1
 588 528 l 1
 625 491 645 442 645 390 c 0
EndSplineSet
Validated: 1
Ligature2: "compound-1" tiki.lupa ZWJ tiki.tiki
EndChar

StartChar: c.lupa.tiku
Encoding: 390 -1 390
Width: 872
VWidth: 1100
Flags: W
HStem: 42 76<172.587 701.524> 516 76<322 550>
VStem: 95 76<119.587 720.645> 246 76<215.355 516> 550 76<215.355 516> 702 75<119.587 720.645>
LayerCount: 2
Fore
SplineSet
693 42 m 2
 179 42 l 2
 133 42 95 80 95 126 c 2
 95 686 l 2
 95 707 112 724 133 724 c 0
 154 724 171 707 171 686 c 2
 171 126 l 2
 171 121 174 118 179 118 c 2
 693 118 l 2
 698 118 702 121 702 126 c 2
 702 686 l 2
 702 707 718 724 739 724 c 0
 760 724 777 707 777 686 c 2
 777 126 l 2
 777 80 739 42 693 42 c 2
588 212 m 0
 567 212 550 229 550 250 c 2
 550 516 l 1
 322 516 l 1
 322 250 l 2
 322 229 305 212 284 212 c 0
 263 212 246 229 246 250 c 2
 246 530 l 2
 246 564 274 592 308 592 c 2
 565 592 l 2
 599 592 626 564 626 530 c 2
 626 250 l 2
 626 229 609 212 588 212 c 0
EndSplineSet
Validated: 1
Ligature2: "compound-1" tiki.lupa ZWJ tiki.tiku
EndChar

StartChar: c.lupa.tilu
Encoding: 391 -1 391
Width: 872
VWidth: 1100
Flags: W
HStem: 42 76<176.465 705.413> 240 76<477.167 561.123> 324 75<322.922 399.58> 404 76<477.631 561.123> 488 76<322.922 399.58>
VStem: 100 76<119.587 720.645> 239 74<254.021 315.284 418.988 479.295> 569 75<324.192 386.1 488.284 550.1> 707 76<119.587 720.645>
LayerCount: 2
Fore
SplineSet
699 42 m 2
 185 42 l 2
 139 42 100 80 100 126 c 2
 100 686 l 2
 100 707 117 724 138 724 c 0
 159 724 176 707 176 686 c 2
 176 126 l 2
 176 121 180 118 185 118 c 2
 699 118 l 2
 704 118 707 121 707 126 c 2
 707 686 l 2
 707 707 724 724 745 724 c 0
 766 724 783 707 783 686 c 2
 783 126 l 2
 783 80 745 42 699 42 c 2
524 404 m 0
 512 404 487 407 457 425 c 0
 436 438 408 459 389 475 c 0
 380 482 370 487 360 488 c 0
 358 488 356 488 354 488 c 0
 343 488 325 482 313 442 c 0
 308 426 293 415 277 415 c 0
 273 415 270 416 266 417 c 0
 250 422 239 437 239 453 c 0
 239 457 240 460 241 464 c 0
 266 550 322 564 355 564 c 0
 360 564 364 563 368 563 c 0
 393 560 416 550 436 534 c 0
 460 514 483 498 496 490 c 0
 510 481 521 480 524 480 c 0
 563 483 569 519 569 521 c 0
 572 540 587 554 606 554 c 0
 608 554 610 553 612 553 c 0
 631 550 644 535 644 516 c 0
 644 514 644 512 644 510 c 0
 639 476 609 412 531 405 c 0
 530 405 527 404 524 404 c 0
524 240 m 0
 512 240 487 243 457 261 c 0
 436 274 408 295 389 311 c 0
 380 318 370 322 360 323 c 0
 358 323 356 324 354 324 c 0
 343 324 325 318 313 278 c 0
 308 262 293 251 277 251 c 0
 273 251 270 251 266 252 c 0
 250 257 239 273 239 289 c 0
 239 293 240 296 241 300 c 0
 266 386 322 399 355 399 c 0
 360 399 364 399 368 399 c 0
 393 396 416 385 436 369 c 0
 460 349 483 334 496 326 c 0
 510 317 520 316 523 316 c 2
 524 316 l 2
 560 319 568 351 569 357 c 0
 572 376 588 390 606 390 c 0
 608 390 610 389 612 389 c 0
 631 386 644 371 644 352 c 0
 644 350 644 348 644 346 c 0
 639 312 609 247 531 240 c 0
 530 240 527 240 524 240 c 0
EndSplineSet
Validated: 1
Ligature2: "compound-1" tiki.lupa ZWJ tiki.tilu
EndChar

StartChar: c.lupa.titi
Encoding: 392 -1 392
Width: 872
VWidth: 1100
Flags: W
HStem: 42 76<172.587 701.524> 212 76<230.355 641.645> 364 76<268.355 337.645 401.355 470.645 534.355 603.645> 516 76<230.355 641.645>
VStem: 95 76<119.587 720.645> 265 76<367.355 436.645> 398 76<367.355 436.645> 531 76<367.355 436.645> 702 75<119.587 720.645>
LayerCount: 2
Fore
SplineSet
693 42 m 2
 179 42 l 2
 133 42 95 80 95 126 c 2
 95 686 l 2
 95 707 112 724 133 724 c 0
 154 724 171 707 171 686 c 2
 171 126 l 2
 171 121 174 118 179 118 c 2
 693 118 l 2
 698 118 702 121 702 126 c 2
 702 686 l 2
 702 707 718 724 739 724 c 0
 760 724 777 707 777 686 c 2
 777 126 l 2
 777 80 739 42 693 42 c 2
398 402 m 0
 398 423 415 440 436 440 c 0
 457 440 474 423 474 402 c 0
 474 381 457 364 436 364 c 0
 415 364 398 381 398 402 c 0
607 516 m 2
 265 516 l 2
 244 516 227 533 227 554 c 0
 227 575 244 592 265 592 c 2
 607 592 l 2
 628 592 645 575 645 554 c 0
 645 533 628 516 607 516 c 2
607 212 m 2
 265 212 l 2
 244 212 227 229 227 250 c 0
 227 271 244 288 265 288 c 2
 607 288 l 2
 628 288 645 271 645 250 c 0
 645 229 628 212 607 212 c 2
265 402 m 0
 265 423 282 440 303 440 c 0
 324 440 341 423 341 402 c 0
 341 381 324 364 303 364 c 0
 282 364 265 381 265 402 c 0
531 402 m 0
 531 423 548 440 569 440 c 0
 590 440 607 423 607 402 c 0
 607 381 590 364 569 364 c 0
 548 364 531 381 531 402 c 0
EndSplineSet
Validated: 1
Ligature2: "compound-1" tiki.lupa ZWJ tiki.titi
EndChar

StartChar: c.lupa.tuki
Encoding: 393 -1 393
Width: 872
VWidth: 1100
Flags: W
HStem: 40 76<169.587 698.535> 176 76<377.692 488.596> 419 76<377.692 488.596> 495 139<293.309 336.104 529.896 572.713> 518 144<398.355 467.645>
VStem: 92 76<117.587 718.819> 264 102<533.75 594.25> 274 76<280.404 391.308> 395 76<521.355 658.645> 500 102<533.75 594.25> 517 76<280.404 391.308> 699 76<117.587 718.819>
LayerCount: 2
Fore
SplineSet
690 40 m 2xc490
 176 40 l 2
 130 40 92 78 92 124 c 2
 92 685 l 2
 92 706 109 722 130 722 c 0
 151 722 168 706 168 685 c 2
 168 124 l 2
 168 119 171 116 176 116 c 2
 690 116 l 2
 695 116 699 119 699 124 c 2
 699 685 l 2
 699 706 716 722 737 722 c 0
 758 722 775 706 775 685 c 2
 775 124 l 2
 775 78 736 40 690 40 c 2xc490
433 419 m 0xe5b0
 387 419 350 382 350 336 c 0
 350 290 387 252 433 252 c 0
 479 252 517 290 517 336 c 0
 517 382 479 419 433 419 c 0xe5b0
433 495 m 0
 521 495 593 424 593 336 c 0
 593 248 521 176 433 176 c 0
 345 176 274 248 274 336 c 0
 274 424 345 495 433 495 c 0
433 518 m 0xcc90
 412 518 395 535 395 556 c 2
 395 624 l 2
 395 645 412 662 433 662 c 0
 454 662 471 645 471 624 c 2
 471 556 l 2
 471 535 454 518 433 518 c 0xcc90
328 495 m 0xd690
 313 495 299 503 293 518 c 2xce90
 267 581 l 2
 265 586 264 591 264 596 c 0
 264 611 273 625 288 631 c 0
 293 633 297 634 302 634 c 0
 317 634 331 625 337 610 c 2
 363 547 l 2
 365 542 366 538 366 533 c 0
 366 518 358 503 343 497 c 0
 338 495 333 495 328 495 c 0xd690
538 495 m 0xd4d0
 533 495 529 495 524 497 c 0
 509 503 500 518 500 533 c 0
 500 538 501 542 503 547 c 2
 529 610 l 2
 535 625 549 634 564 634 c 0xd4d0
 569 634 574 633 579 631 c 0
 594 625 602 611 602 596 c 0
 602 591 601 586 599 581 c 2
 573 518 l 2xccd0
 567 503 553 495 538 495 c 0xd4d0
EndSplineSet
Validated: 1
Ligature2: "compound-1" tiki.lupa ZWJ tiki.tuki
EndChar

StartChar: c.lupa.tula
Encoding: 394 -1 394
Width: 872
VWidth: 1100
Flags: W
HStem: 42 76<172.587 701.524> 191 61<378.683 493.317> 301 76<401.355 470.645> 426 72<379.085 492.915>
VStem: 95 76<119.587 720.645> 269 61<544.252 641.688> 288 61<281.683 396.468> 398 76<304.355 373.645> 523 61<281.683 396.468> 542 61<544.252 641.688> 702 75<119.587 720.645>
LayerCount: 2
Fore
SplineSet
693 42 m 2xf920
 179 42 l 2
 133 42 95 80 95 126 c 2
 95 686 l 2
 95 707 112 724 133 724 c 0
 154 724 171 707 171 686 c 2
 171 126 l 2
 171 121 174 118 179 118 c 2
 693 118 l 2
 698 118 702 121 702 126 c 2
 702 686 l 2
 702 707 718 724 739 724 c 0
 760 724 777 707 777 686 c 2
 777 126 l 2
 777 80 739 42 693 42 c 2xf920
520 461 m 1
 559 434 584 390 584 339 c 0
 584 257 518 191 436 191 c 0
 354 191 288 257 288 339 c 0xfba0
 288 390 313 434 352 461 c 1
 302 491 269 548 269 613 c 0
 269 630 283 643 300 643 c 0
 317 643 330 630 330 613 c 0
 330 550 377 498 436 498 c 0
 495 498 542 550 542 613 c 0
 542 630 556 643 573 643 c 0
 590 643 603 630 603 613 c 0xfd60
 603 548 570 491 520 461 c 1
436 252 m 0
 484 252 523 291 523 339 c 0
 523 387 484 426 436 426 c 0
 388 426 349 387 349 339 c 0
 349 291 388 252 436 252 c 0
398 339 m 0
 398 360 415 377 436 377 c 0
 457 377 474 360 474 339 c 0
 474 318 457 301 436 301 c 0
 415 301 398 318 398 339 c 0
EndSplineSet
Validated: 1
Ligature2: "compound-1" tiki.lupa ZWJ tiki.tula
EndChar

StartChar: c.tiki.lili
Encoding: 395 -1 395
Width: 872
VWidth: 1100
Flags: W
HStem: 118 76<482.593 651> 326 114<69.3055 158.694> 539 76<482.593 651>
VStem: 57 114<338.306 427.694> 739 76<282.593 451>
LayerCount: 2
Fore
SplineSet
815 367 m 1
 815 366 l 2
 815 300 789 238 742 191 c 1
 742 190 l 1
 695 144 634 118 568 118 c 2
 567 118 l 1
 566 118 l 2
 500 118 438 144 391 191 c 0
 384 198 380 207 380 217 c 0
 380 227 384 237 391 244 c 0
 398 251 408 255 418 255 c 0
 428 255 437 251 444 244 c 0
 477 211 521 194 567 194 c 0
 613 194 656 211 689 244 c 0
 722 277 739 321 739 367 c 0
 739 413 722 456 689 489 c 0
 656 522 613 539 567 539 c 0
 521 539 478 521 445 489 c 2
 419 462 l 1
 512 473 l 2
 514 473 515 474 517 474 c 0
 538 474 555 457 555 436 c 0
 555 417 541 400 522 398 c 2
 363 378 l 2
 360 378 357 378 354 378 c 0
 336 378 319 385 306 398 c 1
 305 398 l 1
 304 399 l 2
 291 412 284 430 284 448 c 0
 284 451 285 454 285 457 c 2
 305 615 l 2
 307 634 323 648 342 648 c 0
 344 648 345 648 347 648 c 0
 366 645 380 630 380 611 c 0
 380 609 380 608 380 606 c 2
 369 520 l 1
 391 542 l 2
 438 589 500 615 566 615 c 2
 567 615 l 1
 568 615 l 2
 634 615 695 589 742 542 c 0
 789 495 815 434 815 368 c 2
 815 367 l 1
57 383 m 0
 57 414 83 440 114 440 c 0
 145 440 171 414 171 383 c 0
 171 352 145 326 114 326 c 0
 83 326 57 352 57 383 c 0
EndSplineSet
Validated: 1
Ligature2: "compound-1" tiki.tiki ZWJ tiki.lili
EndChar

